<?xml version="1.0" encoding="utf-8"?>
<!-- Generator: Adobe Illustrator 19.0.0, SVG Export Plug-In . SVG Version: 6.00 Build 0)  -->
<svg version="1.1" id="Layer_1" xmlns="http://www.w3.org/2000/svg" xmlns:xlink="http://www.w3.org/1999/xlink" x="0px" y="0px"
	 width="686px" height="171.4px" viewBox="301 -41 686 171.4" style="enable-background:new 301 -41 686 171.4;"
	 xml:space="preserve">
<style type="text/css">
	.st0{fill:#0C3D84;}
	.st1{fill:#D3221E;}
	.st2{font-family:'MyriadPro-BoldCond';}
	.st3{font-size:40px;}
</style>
<title>vector_h-trans</title>
<g id="WjERNp.tif">
	<g>
		<path class="st0" d="M584.9,13.5c2.2,0.9,4.4,2.6,6.6,2.7c24,0.2,48.1,0.1,72.1,0.1c5.7,0,8.9-2.3,8.6-8.5c3.9,0,7.6,0,11.3,0
			c16.7,0,33.4-0.1,50.2,0.1c3.9,0,7.9,0.5,11.6,1.4c7.1,1.8,9,4.5,9.1,11.1c0,22.9,0,45.7,0,68.6c0,1.5,0,3,0,4.9
			c-55.2,0-109.9,0-164.6,0c3.6-2,7.3-4.1,11.4-6.4c2.3,5.7,7.9,5.3,13.4,5.3c10,0,19.9,0.1,29.9-0.1c1.6,0,3.2-1.4,4.8-2.2
			c-1.3-0.9-2.4-2.3-3.9-2.6c-4.7-1-7.1-3.1-7-7.8c0.2-7.5,0.1-15,0.1-22.5c12.4-2.2,16.3-0.1,20.4,10.1c0.4,1.1,2.1,1.8,3.2,2.7
			c0.6-1.1,1.8-2.1,1.8-3.2c0.1-8.4,0.1-16.8-0.1-25.3c0-1-1.3-2.1-1.9-3.1c-1,0.8-2.7,1.5-2.9,2.5c-1.8,9.4-8.3,11.5-20.1,9.9
			c0-9.3,0-18.6,0-28.2c6.5,0,12.7-0.6,18.7,0.3c3.2,0.5,6.4,3.2,8.9,5.5c2.1,2,3.1,5.1,4.8,7.5c0.6,0.8,2.1,1.6,3.1,1.5
			c0.7-0.1,1.9-1.5,1.9-2.4c0.2-5.6,0.1-11.3,0.1-17.2c-1.5-0.2-2.5-0.5-3.6-0.5c-19.9,0-39.8,0-59.7,0.1c-1.6,0-3.1,1-4.7,1.6
			c1.3,1.1,2.3,3,3.8,3.3c5.4,1.1,7.4,3.7,7.2,8.8c-0.3,9.1-0.1,18.1-0.1,27.5c-5.2,0.2-9.8,0.4-15.4,0.7c7.6,6.4,7.6,6.5,2.1,16.6
			c-3.6-4.9-6.9-9.5-10.1-13.9c2.3-3.1,4.9-5.7,6.4-8.7c3.2-6.3,0.4-12.6-5.9-14.5c-7-2.1-15,1.7-15.6,8.6
			c-0.4,5.2,1.5,10.6,2.4,15.9c0.6,0.1,1.1,0.1,1.7,0.2c-1.8,1.3-3.7,2.7-6.1,4.4c-3.8-10.5-13-13.8-23.4-15.7
			c4.5-2.1,8.9-3.7,12.7-6c5.6-3.3,7.5-8.5,6.7-14.3c-0.9-6.2-4.9-10.3-11.3-12.3c-2.8-0.9-5.8-1.8-8.8-1.8
			c-16.5-0.2-33-0.1-51.6-0.1c2.2,2.2,3.3,4.3,4.8,4.5c6,1,7.9,3.8,7.8,9.3c-0.3,15.6-0.1,31.3-0.1,46.9c0,7.5,0,7.5-7.9,9.2
			c-1.1,0.3-2,1.5-3,2.2c0.9,0.8,1.8,2.4,2.7,2.4c17.4-0.3,34.9-0.4,52.3-1.5c5.1-0.3,10.1-3.2,14.8-4.8c2.8,2.3,6,5,8.9,7.4
			c-26.2,0-53.4,0-81.1,0c-0.1-1.5-0.4-3-0.4-4.5c0-23,0-46.1,0-69.1c0-6.4,1.9-8.9,8.7-10.9c2.5-0.7,5.1-1.4,7.7-1.4
			c21.1,0.1,42.5,0.1,63.4,0.1c1.3,2.2,2.4,4,3.4,5.8L584.9,13.5z M751.3,18.1c-24.7,0-48.6,0-72.8,0c0,7.1,0,14,0,20.7
			c3.9,0.3,3.9,0.3,5.8-3.6c5.6-11.6,9.5-13.8,20.9-11.7c0,19.3,0,38.7,0,58.1c0,4.8-3.1,6-7.6,6.5c-1.4,0.2-2.7,1.6-4,2.4
			c1.3,0.8,2.6,2.2,4,2.2c11.4,0.2,22.9,0.2,34.4,0c1.4,0,2.7-1.3,4.1-2.1c-1.3-0.9-2.4-2.3-3.8-2.6c-7.2-1.9-7.9-2.6-7.9-9.7
			c0-7.6,0-15.1,0-22.7c0-10.8,0-21.6,0-32.3c11.5-1.2,13.7-0.3,18.8,8c1.1,1.8,1.7,3.9,3,5.5c1,1.2,2.7,2,5.1,3.7
			C751.3,32,751.3,25.2,751.3,18.1z"/>
		<path class="st0" d="M589.8-8c25.7,0,50.4,0,75.9,0c0,5.8,0.2,11.2-0.1,16.6c-0.1,0.9-2,2.6-3.1,2.6c-23.1,0.2-46.2,0.2-69.2,0
			c-1.2,0-3.2-1.8-3.3-2.9C589.5,3.1,589.8-2.1,589.8-8z"/>
		<path class="st0" d="M585.1,13.7c-0.4-2.5-0.7-5-1.2-8c-10.8,0-21.4,0-32.6,0c2.1-4.9,5.4-9.2,5.4-13.5s-3.5-8.5-5.8-13.5
			c9.8,0,18.8,0,27.9,0c3.6,0,7.1,0,10.7,0c10.6,0,10.6,0,11.9,9.8c1.9,0,3.9,0,5.9,0c1.7,0,3.4,0,5.1,0c0,0.5,0,1.1,0,1.6
			c-6.1,0-12.1,0.2-18.2-0.1c-4.8-0.2-6.9,1.5-6.7,6c0.2,4.1,0.1,8.2,0.1,12.4c0,2.9,1.3,4.4,4.7,4.4c23.5-0.1,46.9-0.1,70.4,0
			c3.3,0,4.8-1.1,4.7-4.3c-0.1-4.3-0.2-8.6,0-12.9c0.2-4-1.5-5.7-5.9-5.5c-5.6,0.2-11.3,0.1-16.9,0.1c-1.2,0-2.4-0.2-3.6-1.6
			c4.5,0,8.9,0,13.2,0c1.7-9.9,1.7-9.9,12.5-9.9c12.4,0,24.8,0,38.5,0c-5.9,8.9-9.5,17.7,1,26.9c-13.1,0-24.1,0-35.4,0
			c-0.2,1.8-0.4,3.1-0.4,4.4c-0.2,3.2-2,4.7-5.4,4.7c-25.2,0-50.3,0-75.5-0.1c-1.6,0-3.2-0.7-4.8-1.1
			C584.9,13.5,585.1,13.7,585.1,13.7z M697.3-1.8c0.2-3.6,0.4-7.1,0.6-10.7c1.1-2,2.2-4,3.7-6.7c-14.4,0-27.6-0.1-40.9,0.1
			c-1.2,0-2.3,1.5-3.5,2.3c1.2,0.9,2.2,2,3.6,2.5c1.1,0.4,2.6,0.2,3.9,0.1c4.6-0.4,6.4,1.6,6.3,5.7c-0.1,3.9,0.4,7.7,0.6,11.5
			c10.3,0,19.9,0,31,0C700.2,0.8,698.8-0.5,697.3-1.8z M584.4,3.3c0.2-2.4,0.4-4.3,0.6-6.1c0.2-3.1-0.7-7,1-8.9s6.2-1.5,9.4-2.5
			c1.3-0.4,2.3-1.7,3.4-2.7c-1-0.7-2.1-2.1-3.1-2.2c-13.4-0.1-26.9-0.1-41.5-0.1c4.8,7.8,7.6,15.1-0.6,22.4
			C564.8,3.3,574.2,3.3,584.4,3.3z"/>
		<path class="st0" d="M534.6,56.3c18.2-1.9,27.6,8.8,21.4,23.4c-2.2,5.2-7.3,8.3-13.1,8c-5.9-0.3-8.4-2.6-8.4-8
			C534.6,72,534.6,64.3,534.6,56.3z"/>
		<path class="st0" d="M534.9,23.2c6.7-0.7,12.7-0.5,16.8,4.6c3.1,3.9,2.6,12.8-0.6,17.2c-3.1,4.3-8.4,5.9-16.2,5
			C534.9,41.2,534.9,32.4,534.9,23.2z"/>
		<path class="st0" d="M644.8-30.5c-11,3.9-11.2,10.1-6.5,18.4c-7.6-7.3-14.8-8-22.6,0c5-8.6,3.9-14.7-6.9-18.2
			c9.9,0.9,17-1,17.9-11.7C628.5-32.5,633.9-28.5,644.8-30.5z"/>
		<path class="st0" d="M586.6,66.5c4.3,6.2,8.3,11.9,12.2,17.6c-3.3,3.6-7.6,4.3-11.1,1.8C582.4,82.3,581.6,73.9,586.6,66.5z"/>
		<path class="st0" d="M619.1,63.1c0,6.7,0.2,13.3-0.1,20c-0.1,1.3-1.6,3.1-3,3.7c-0.8,0.3-2.9-1.1-3.9-2.1
			c-3.4-3.3-5.1-6.8-1.7-11.3c2.6-3.5,4.4-7.4,6.6-11.2C617.8,62.5,618.4,62.8,619.1,63.1z"/>
		<path class="st0" d="M592.9,58.7c-1.1-4-2.7-8-3.2-12.1c-0.1-1.4,2.4-3.8,4.2-4.2c1.1-0.3,4,2,4.5,3.5c1.5,4.7,0,9.1-3.5,12.7
			C594.2,58.6,593.6,58.7,592.9,58.7z"/>
		<path class="st0" d="M616.8-11.2c6.6,0,13.2,0,19.8,0c0,0.3,0,0.6,0,0.9c-6.6,0-13.2,0-19.8,0C616.8-10.6,616.8-10.9,616.8-11.2z"
			/>
		<path class="st0" d="M697.9-12.5c-0.2,3.6-0.4,7.1-0.6,10.7c0.5,1.2,1,2.5,1.6,3.8c-8.7,0-17,0-26.1,0c0-3.8,0-7.2,0-10.6
			c-0.1-4.8-2.6-7.3-8.1-7c-1.9,0.1-3.8-0.4-5.7-0.6c0.1-0.4,0.1-0.8,0.2-1.2c13.2,0,26.4,0,39.5,0C698.3-15.5,698.2-14,697.9-12.5z
			"/>
		<path class="st0" d="M583.2,2c0-4-0.1-7.4,0-10.8c0.2-4.5,2.4-7,7.7-6.8c2.1,0.1,4.3-0.4,6.4-0.7c-0.1-0.4-0.1-0.7-0.2-1.1
			c-13.3,0-26.5,0-40.6,0c4.7,6.7,6.7,12.9-0.4,19.3C565.8,2,574,2,583.2,2z"/>
		<path class="st0" d="M583.2,2c-9.2,0-17.5,0-27.1,0c7.1-6.4,5-12.7,0.4-19.3c14.1,0,27.4,0,40.6,0c0.1,0.4,0.1,0.7,0.2,1.1
			c-2.1,0.2-4.3,0.7-6.4,0.7c-5.3-0.2-7.5,2.3-7.7,6.8C583.1-5.4,583.2-2,583.2,2z"/>
	</g>
</g>
<text transform="matrix(1 0 0 1 463.6361 125.0897)" class="st1 st2 st3">Business and financial times</text>
</svg>
