<?xml version="1.0" encoding="utf-8"?>
<!-- Generator: Adobe Illustrator 19.0.0, SVG Export Plug-In . SVG Version: 6.00 Build 0)  -->
<svg version="1.1" id="Layer_1" xmlns="http://www.w3.org/2000/svg" xmlns:xlink="http://www.w3.org/1999/xlink" x="0px" y="0px"
	 width="686px" height="161px" viewBox="301 -41 686 161" style="enable-background:new 301 -41 686 161;" xml:space="preserve">
<style type="text/css">
	.st0{fill:#0E8BD8;}
	.st1{fill:#F27A22;}
</style>
<title>vector_h-trans</title>
<g>
	<g>
		<path class="st0" d="M692.6,60.2c7.2-0.3,13.9,2.5,20.7,0.5c1.8-0.5,2.9,1.1,4,2.2c3.9,3.9,8.8,4.6,13.9,3.7
			c2.7-0.5,6.1-1,6.1-4.6c0-3.2-3.1-3.9-5.6-4.6c-3.5-1-7-1.7-10.5-2.6c-15-4.1-18.8-18.9-8-30.2c7.8-8.1,17.7-9.5,28.1-9
			c5.5,0.3,11,1.4,15.8,4.8c2.6,1.9,3.8,3.5,0.5,5.9c-1.9,1.4-3.8,3-5.5,4.7c-3.1,3.1-6,5.1-9.9,1c-1.3-1.4-3.6-1.8-5.7-1.8
			c-3.5,0.1-7.4,0.5-8.3,4.5c-1.1,4.7,3.4,4.8,6.2,5.7c3.8,1.2,7.9,1.7,11.7,3c11.7,4,15.4,14.4,9.2,25.1
			c-3.4,5.9-8.8,9.2-15.2,11.2c-6.4,2-13,2.4-19.7,2c-10.4-0.6-17.1-6.6-22.5-15.5c-8.8,15.2-23.4,16.7-37.7,15.5
			c-11.8-1-19.2-9.9-24.4-21.5c8.8,1.1,17.4-2.8,24.9,4.2c3.3,3.1,8.2,2.8,12.7,1.7c2.3-0.6,4.2-2.1,4.5-4.2c0.5-2.7-2-3.7-4.2-4.3
			c-3.5-1-7.1-1.7-10.5-2.6c-6.7-1.9-13.4-4.1-14.8-12.1c-1.4-7.9,1.5-14.7,7.5-20.1c10-9,31.2-10.3,42-2.7c2.8,1.9,4.2,3.7,0.5,6.2
			c-1.3,0.9-2.5,2.1-3.6,3.2c-3.9,3.9-7.6,6.8-12.9,1.8c-1.7-1.6-4.6-1.6-7-1c-2.8,0.7-5.8,1.7-6,5.1c-0.2,3.4,3.1,3.9,5.5,4.6
			c3.5,1,7,1.7,10.5,2.6c3.5,0.9,6.9,2.3,9.7,4.8C700.7,53,700.1,57.2,692.6,60.2z"/>
		<path class="st1" d="M777.4,105.1c47.3-4.5,94.6-9,141.9-13.5c11.2-1.1,13-3.7,9.2-14.4c-7.1-19.9-14.2-39.9-21.5-59.7
			c-1.6-4.4-1.3-5.9,3.9-5.9c14.7,0.1,14.7-0.1,18.9,13.8c3.3,11,6.6,22,9.9,33c0,0.1,0.3,0.2,0.9,0.5c3.8-12.8,7.5-25.5,11.3-38.2
			c2.5-8.3,3.6-9,12.4-9c10.1,0,10.1,0,6.8,9.6c-7.6,21.9-15,43.8-22.6,65.7c-1.1,3.2-2.4,6.4-3.8,9.5c-2.6,5.2-6.6,8.1-12.7,8.8
			c-10.5,1.3-20.9,1-31.4,1c-41.1,0.1-82.2,0-123.3,0C777.3,105.9,777.4,105.5,777.4,105.1z"/>
		<path class="st0" d="M479.7,24.3c9.3-7.6,18.4-10.4,28.8-8c10.6,2.5,17.3,9,19.5,19.8c4,19.8-10.6,47.7-38.3,46.1
			c-6.1-0.3-10.3-3.7-15.4-7.5c-1.6,10.6-3.4,20.6-4.6,30.6c-0.4,3.7-1.8,4.9-5.3,4.5c-1.8-0.2-3.6,0-5.4,0c-10.1,0-10.3,0-8.9-9.9
			c3.8-26.3,7.7-52.6,11.4-78.9c0.5-3.6,1.8-4.9,5.3-4.5c2.2,0.2,4.5,0.3,6.6,0C478.4,16,481.6,17.1,479.7,24.3z M508,46.1
			c0-7.9-5.6-13.3-13.9-13.3c-10.2-0.1-18,8.1-18,18.7c0,6.9,6,13.9,12.3,14.2C498.5,66.3,507.9,56.9,508,46.1z"/>
		<path class="st1" d="M777.2-8.5c13.6,0,26-0.7,38.4,0.2c12.1,0.8,20.9,10.9,21.5,23.1c0.3,5.8,0.7,11.6-1.3,17.3
			c-3.9,11.6-12.8,16-23.9,17c-6.4,0.6-12.9,0.6-19.3,0c-5.6-0.5-6.8,1.7-6.5,6.8c0.3,6.6-0.3,13.3-0.1,19.9
			c0.2,4.4-1.7,5.3-5.7,5.4c-13.4,0.1-13.4,0.2-13.4-13.2c0-17.5,0.1-35.1,0-52.6c0-3.5,0.7-4.9,4.6-5c14.7-0.2,15.1-0.4,14.5,14.3
			c-0.2,6.3,1.7,8.2,7.7,7.6c4.8-0.5,9.7,0.2,14.5-0.3c5.1-0.6,9.1-2.9,9.8-8.8c1-8.7-0.6-13.6-6.6-15c-9.3-2.1-16.9-7.3-25-11.6
			C783.6-4.7,780-4.7,777.2-8.5z"/>
		<path class="st1" d="M886.3,75.9c-10.2,6.7-20.7,9-31.9,4.8c-8.1-3-12.6-8.9-12.8-17.9c-0.3-11.7,2.5-16.7,11.6-21
			c5-2.3,10.4-3.8,15.8-3.5c4.6,0.3,8.2-1.7,11.9-3.5c4.1-1.9,3.8-6.1-0.1-8.4c-4.3-2.5-13.9-1.9-17.8,1.2c-5.6,4.5-12,1.6-18,1.8
			c-2.4,0.1-1.2-2.6-0.7-3.9c2.9-8.4,9.2-13,17.6-14.7c8.6-1.7,17.2-0.6,25.6,1.3c9.1,2,14.2,8.9,14.3,18.5
			c0.1,14.7,0.1,29.4-0.1,44.1c0,2.8,2.4,7.3-3.7,7.8C889.2,83.1,887.8,82.6,886.3,75.9z M869.5,68.5c9.8-0.3,16.3-8.8,14.5-18.7
			c-0.4-2.1-1-2.7-3.1-2.1c-4.8,1.4-9.7,2.5-14.5,3.8c-5,1.4-8.2,4.5-7.3,10.1C860.1,67.3,864.4,68.7,869.5,68.5z"/>
		<path class="st0" d="M329.1,55.2c2.3,1.9,4,2.2,5.1,3.9c6.2,9.3,14.5,10.5,23.6,3.9c1.6-1.1,2.8-4.5,5.4-2.4
			c3.5,2.9,8.1,4.7,10,9.3c0.7,1.6-1.1,1.9-1.9,2.5c-11.5,9.2-24.4,12.3-38.6,7.7C313,73.7,307.3,51,320.4,32.3
			C329,19.9,347,12.8,361.5,16c13.8,3,20.8,14.6,19.4,31c-0.5,5.9-2,8.7-8.9,8.4C358,54.7,344.1,55.2,329.1,55.2z M348.5,40.9
			C348.5,40.9,348.5,40.9,348.5,40.9c2.8,0.1,5.6-0.1,8.4,0.1c5.4,0.4,5.1-2.3,3.4-5.8c-3.8-7.8-16.3-7.6-22.2,0.3
			c-1,1.4-2.8,3-1.8,4.7c0.8,1.4,2.9,0.6,4.5,0.6C343.3,41,345.9,40.9,348.5,40.9z"/>
		<path class="st0" d="M592.8,55.2c3.7,1.7,5.9,4.3,8.2,7.5c4.4,5.9,14.5,6.2,21.2,0.3c4-3.4,6.1-2.5,9.4,0.3
			c8.4,7.1,8.6,7.5-1.2,13c-14.2,8.1-28.7,8.3-42.2-0.7c-7.5-5-10.3-13.6-10.1-22.7C579,26.7,607.6,8.1,631.9,18
			c8.7,3.5,13.9,12.6,12.9,22c-0.3,3.2,0.3,6.4,0.1,9.6c-0.2,3.6-1.1,5.9-6,5.7c-13.9-0.5-27.8-0.2-41.7-0.2
			C595.8,55.2,594.3,55.2,592.8,55.2z M600.1,41c8.3,0,15.9,0,23.5,0c2.1,0,3.2-1.1,2.4-3c-1.8-4.5-4.1-8.5-10.1-8.6
			C608.9,29.4,604.1,32.4,600.1,41z"/>
		<path class="st0" d="M373.6,79.8c9.2-9.9,17.4-19.3,26.2-28c4.3-4.2,4.4-7.4,1.1-12.2c-4.7-7-8.6-14.4-13.6-22.9
			c8,0,15.1,0,22.2,0c1.9,0,2.5,1.9,3.2,3.2c1.5,2.8,2.9,5.7,4.3,8.6c1.5,3.2,3.5,3.6,6,1c1.6-1.7,3.5-3.3,4.8-5.3
			c7.1-10.8,18-7,27.7-7.6c1,2.3-1,3-1.9,4.1c-6.8,7.7-13.6,15.4-20.5,23c-1.9,2.1-2.4,3.4-0.4,6.4c5.6,8.3,10.2,17.3,15.3,26
			c1.9,3.3,1.2,3.9-2.5,4.3c-12.8,1.6-22.8-0.9-26.6-15.1c-1.6-6-4.5-5.3-7.7-0.8c-1.6,2.3-4.2,3.9-5.6,6.3
			C398.1,83.8,386.3,80.7,373.6,79.8z"/>
		<path class="st0" d="M557.8,26.2c6.3-7.3,12.8-11.3,21.7-10.9c4.3,0.2,5.3,1.8,4.4,5.5c-0.1,0.4-0.1,0.8-0.2,1.2
			c-0.6,3.6-0.2,7.9-2,10.5c-2.1,2.9-6.3-0.1-9.6,0.1c-9.3,0.7-14.8,4.5-16.7,13.7c-2,9.6-3.5,19.4-4.7,29.2
			c-0.5,4.3-2.3,5.5-6.2,5.1c-2.4-0.2-4.8,0-7.3-0.1c-7.4-0.1-9.5-2.2-7.3-9.4c3.2-10.3,3.5-20.9,5.5-31.3c1.1-6.1,2-12.3,2.6-18.5
			c0.3-3.7,2-4.9,5.4-4.6c2.4,0.2,4.8,0,7.3,0C558.8,16.9,558.8,16.9,557.8,26.2z"/>
		<path class="st0" d="M597,4.4c49.7-2.4,99.5-4.8,150.8-7.3c-5.4-4.6-9.6-8.2-14.1-12c2.3-1.9,4.2-1.1,6.3-0.3
			c14.1,5.9,28.2,11.7,42.2,17.6c1.1,0.5,2.6,0.8,2.4,2.2c-0.2,1.7-1.8,1.3-2.9,1.3C778.3,6,774.6,6,771,6
			c-54.8,0-109.6-0.1-164.4-0.1c-3.2,0-6.4,0-9.6,0C597,5.4,597,4.9,597,4.4z"/>
	</g>
</g>
</svg>
