<?xml version="1.0" encoding="utf-8"?>
<!-- Generator: Adobe Illustrator 19.0.0, SVG Export Plug-In . SVG Version: 6.00 Build 0)  -->
<svg version="1.1" id="Layer_1" xmlns="http://www.w3.org/2000/svg" xmlns:xlink="http://www.w3.org/1999/xlink" x="0px" y="0px"
	 width="686px" height="161px" viewBox="248 -36 686 161" style="enable-background:new 248 -36 686 161;" xml:space="preserve">
<style type="text/css">
	.st0{fill:#3C5A98;}
	.st1{fill:#3E5B9A;}
</style>
<title>vector_h-trans</title>
<g id="QzL0he.tif">
	<g>
		<path class="st0" d="M573.8,41.8c0-19.1,0-38.2,0-57.3c0-2.6,0.5-3.7,3.4-4c6.7-0.8,13.5-1.9,20.1-3.3c2.8-0.6,3.1,0.3,3.1,2.6
			c-0.1,11.9,0.1,23.8-0.1,35.7c-0.1,3.3,0.8,3.7,3.7,2.8c9.1-2.7,18.4-3,27.8-1.5c12.5,2,19.3,9.8,20,22.7
			c0.7,12.6,0.7,25.1,0,37.7c-0.8,15.5-11.2,25.7-27.9,27.8c-15.7,2-31.1,0.4-46.6-1.8c-2.8-0.4-3.5-1.6-3.5-4.4
			C573.9,79.8,573.8,60.8,573.8,41.8z M600.3,62.5c0,6.3,0.1,12.5,0,18.8c0,2.1,0.6,2.9,2.7,2.8c3.6-0.1,7.2,0.1,10.8-0.1
			c6.8-0.4,11.2-4.2,11.3-10.1c0.3-9.1,0.2-18.1,0-27.2c-0.1-4.7-3.4-8-8-8.4c-5-0.4-9.8,0.1-14.4,2.3c-1.9,0.9-2.5,1.9-2.5,3.9
			C600.3,50.5,600.3,56.5,600.3,62.5z"/>
		<path class="st1" d="M860.9,55.5c4.6-7.3,9.2-14.5,13.8-21.8c3-4.7,5.9-9.5,8.9-14.2c0.7-1.1,1.3-2.3,3-2.3c8.8,0.1,17.6,0,27,0
			c-1.4,2.4-2.5,4.3-3.7,6.2c-7,11.1-13.9,22.2-21,33.1c-1.7,2.5-1.5,4.3,0,6.8c7.5,12.3,14.9,24.7,22.2,37.1c0.8,1.3,2,2.5,2.1,4.5
			c-8.9,0-17.7,0-26.5,0c-2.1,0-2.6-1.6-3.4-2.9c-6.9-11.6-13.9-23.1-20.8-34.7c-0.6-1-1.2-1.9-2.5-2.7c0,3.9,0,7.9,0,11.8
			c0,8.4-0.1,16.9,0,25.3c0,2.4-0.6,3.3-3.1,3.2c-6.9-0.2-13.9-0.1-20.9,0c-2.3,0-3.2-0.8-2.9-3c0-0.4,0-0.8,0-1.2
			c0-38.5,0-77-0.1-115.5c0-3.1,0.6-4.4,4-4.8c6.6-0.7,13.2-1.9,19.7-3.2c2.7-0.6,3.3-0.1,3.2,2.5c-0.2,3.3,0,6.7,0,10
			c0,20.6,0,41.2,0,61.8c0,1.3,0,2.5,0,3.8C860.4,55.4,860.6,55.4,860.9,55.5z"/>
		<path class="st0" d="M539.3,68.7c-7.4,0-14.7,0.1-22.1,0c-2.4,0-2.9,0.8-2.8,3c0.3,7.7,3.2,10.9,10.7,11.8
			c11.4,1.4,22.6-0.5,33.8-2.1c2-0.3,2.9-0.4,2.9,2c-0.1,5.6-0.1,11.2,0,16.8c0,1.7-0.7,2.4-2.2,2.6c-15.4,2.8-30.9,4.7-46.4,1.2
			c-14.3-3.3-23.1-13.4-24.6-27.9c-1.2-11.4-1.2-22.9,0.1-34.4c1.5-12.2,10.1-21.3,22.8-24.3c9.8-2.3,19.6-2.3,29.4,0.1
			c13.6,3.2,21,12,22.8,26.9c0.9,7.3,0.2,14.7,0.4,22c0.1,2.3-1.3,2.2-2.9,2.2C554,68.7,546.7,68.7,539.3,68.7z M526.4,51.2
			c2.9,0,5.9,0,8.8,0c1,0,2.1,0.2,2.5-1.3c1-3.5-1.1-10-3.9-12c-3.6-2.6-11.6-2.7-15.2-0.1c-2.8,1.9-4.9,8.4-4.1,12
			c0.3,1.5,1.3,1.5,2.3,1.5C520,51.2,523.2,51.2,526.4,51.2z"/>
		<path class="st0" d="M747.1,60.8c0.2-6.4-0.6-12.8,0.7-19.2c2.6-13.1,10.6-20.9,23.3-24c9.9-2.4,19.9-2.4,29.8,0
			c13.1,3.2,21.3,11.3,23.3,24.9c1.7,11.5,1.6,23.3,0.3,34.8c-1.7,15.7-10.8,24.6-26.4,27.4c-9.8,1.8-19.6,1.6-29.3-1.4
			c-13-4-21.1-14.4-21.7-28.1C747,70.5,747.1,65.7,747.1,60.8z M773.5,61C773.5,61,773.5,61,773.5,61c0,4,0,8,0,12
			c0,0.3,0,0.5,0,0.8c0.3,5.1,3.1,8.4,8,9.6c2.8,0.7,5.5,0.8,8.3,0.1c5.5-1.2,8.6-4.7,8.7-10.3c0.1-8.1,0.1-16.3,0-24.4
			c-0.1-6.3-4.2-10.3-10.6-10.5c-1.5,0-2.9-0.1-4.4,0c-5.7,0.2-9.8,4.1-10,9.8C773.4,52.4,773.5,56.7,773.5,61z"/>
		<path class="st0" d="M738.1,60.9c0,5.7,0.7,11.6-0.1,17.2c-2.3,15.1-11.1,23.8-26.4,26.6c-9.1,1.7-18.3,1.6-27.4-0.8
			c-13.6-3.5-21.7-12.4-23.3-26.3c-1.3-11.1-1.6-22.5,0.1-33.6c2.4-16.2,10.6-24,26.8-27c9.5-1.8,19.1-1.6,28.5,1.2
			c13.5,4,21.6,14.4,22.1,28.6c0.2,4.7,0,9.4,0,14C738.3,60.9,738.2,60.9,738.1,60.9z M711.9,61.1c0-3.7,0-7.5,0-11.2
			c0-7.5-3.8-11.5-11-11.6c-9.9-0.1-13.9,3.1-13.9,11.6c-0.1,7.1,0,14.1,0,21.2c0,1.6,0,3.2,0.3,4.8c1.4,5.7,7.4,9.1,14.2,8
			c7.6-1.2,10.4-4.5,10.4-12C711.9,68.3,711.9,64.7,711.9,61.1z"/>
		<path class="st0" d="M402.9,73.2c0,9.2-0.2,18.4,0.1,27.7c0.1,3.5-1,4.3-4.3,4.1c-4.9-0.3-9.9-0.2-14.8,0c-2.3,0.1-3.5-0.5-3.5-3
			c0-2.9-1.4-2.4-3.3-1.5c-9.6,4.6-19.6,6.7-30.2,4.4c-7.3-1.6-12.4-6-15.3-12.8c-2.9-6.9-3.2-14-1.3-21.2c2.4-8.9,9.6-14.3,20-14.9
			c7.6-0.4,15.2-0.5,22.8-0.4c2.5,0,3.8-0.6,3.4-3.3c-0.2-1.4,0-2.9-0.1-4.4c-0.3-4.8-2.2-7.1-6.9-7.9c-9.2-1.5-18.4-0.6-27.6-0.7
			c-2.9,0-3.9-0.5-3.3-3.7c0.9-5.2,1.2-10.6,1.7-15.9c0.1-1.2,0-2.5,1.8-2.5c13.5,0.3,27-1.2,40.4,1.4c16.3,3.2,19.6,13.1,20.4,26.4
			C403.3,54.5,402.9,63.8,402.9,73.2C402.9,73.2,402.9,73.2,402.9,73.2z M368.1,73c-2.1,0.2-4.7-0.3-7.2,0.4c-4.2,1-5.8,3.2-5.2,7.4
			c0.6,4.3,3.1,6.5,7.7,6.5c3.8,0,7.3-1.2,10.8-2.7c1.7-0.8,2.3-1.8,2.3-3.6c0.2-7.9,0.3-7.9-7.6-7.9C368.8,73,368.6,73,368.1,73z"
			/>
		<path class="st0" d="M310.7,72c0,9.9-0.1,19.8,0.1,29.7c0,2.4-0.5,3.3-3.1,3.2c-6.7-0.2-13.4-0.2-20.1,0c-3,0.1-3.5-1-3.5-3.7
			c0.1-19.4,0-38.8,0.1-58.2c0-3.2-0.9-4-4-4c-9.6,0.2-9.7,0-9.7-9.7c0-0.1,0-0.3,0-0.4c0.1-3.7-0.8-7.7,1-10.2
			c1.8-2.5,6.3-1.5,9.9-1.5c2.6,0,2.7-1.3,2.7-3.3c0.1-7.2-0.7-14.4,1.1-21.5c2.5-10,9.3-16,19.5-17.6c7.8-1.2,15.7-0.6,23.6-0.8
			c2,0,2.5,0.7,2.5,2.6c-0.1,5.7-0.1,11.5,0,17.2c0,1.9-0.7,2.6-2.6,2.5c-3.6-0.1-7.2-0.1-10.8,0.1c-4.6,0.3-6.5,2.3-6.7,6.8
			c-0.2,3.7,0.1,7.5-0.1,11.2c-0.1,2.3,1,2.7,2.9,2.7c4.8-0.1,9.6,0.1,14.4-0.1c2.4-0.1,3,0.8,2.8,3c-0.7,5.7-1.3,11.4-1.7,17.1
			c-0.2,2.1-1.5,1.9-2.8,1.9c-4.1,0-8.3,0.1-12.4,0c-2.5-0.1-3.2,0.8-3.2,3.2C310.7,52.3,310.7,62.1,310.7,72z"/>
		<path class="st0" d="M412.7,60.9c-0.2-7.2-0.5-14.4,1.6-21.5c4.1-13.8,14.2-20.4,27.7-22.7c11.9-2,23.7-0.3,35.4,2.2
			c1.9,0.4,2.4,1.2,2.3,2.9c0,5.5-0.1,11,0,16.4c0,2.3-0.9,2.7-2.9,2.2c-8.6-1.9-17.4-2.6-26.2-2.2c-7.7,0.3-11.3,3.7-11.5,11.3
			c-0.2,7.6-0.2,15.2,0,22.9c0.2,7.1,3.2,10,10.1,11.1c9.5,1.4,18.6-0.8,27.8-2.1c2.4-0.4,2.8,0.2,2.7,2.3c-0.1,5.5-0.1,11,0,16.4
			c0,1.6-0.5,2.5-2.1,2.8c-13.8,2.9-27.6,4.8-41.5,0.8c-14.2-4-22.4-14.7-23.4-30C412.4,69.5,412.7,65.2,412.7,60.9z"/>
	</g>
</g>
</svg>
