<?xml version="1.0" encoding="utf-8"?>
<!-- Generator: Adobe Illustrator 19.0.0, SVG Export Plug-In . SVG Version: 6.00 Build 0)  -->
<svg version="1.1" id="Layer_1" xmlns="http://www.w3.org/2000/svg" xmlns:xlink="http://www.w3.org/1999/xlink" x="0px" y="0px"
	 width="686px" height="161px" viewBox="301 -41 686 161" style="enable-background:new 301 -41 686 161;" xml:space="preserve">
<style type="text/css">
	.st0{fill:#060606;}
	.st1{fill:#0689C2;}
	.st2{fill:#030303;}
	.st3{fill:#0488C1;}
	.st4{fill:#F8FBFD;}
</style>
<title>vector_h-trans</title>
<g>
	<path class="st0" d="M453.2,58.3c0-13.9,0.1-27.7-0.1-41.6c0-3,0.6-4.9,3.8-5.8c20.2-5.8,40.6-8,61.2-2.7
		c15.8,4,22.5,13.2,22.5,29.6c0,20.5-0.1,40.9,0.1,61.4c0,4.3-1.2,5.9-5.5,5.4c-5.6-0.7-12.8,2.4-16.4-1.3
		c-3.3-3.4-0.9-10.5-0.9-15.9c-0.1-16.5,0-33-0.1-49.5c0-10.7-4-15.5-14.4-18.1c-7.7-1.9-15.3-1-22.9,0.3c-4.2,0.7-4.9,3.1-4.9,6.9
		c0.2,23.8-0.1,47.5,0.2,71.3c0.1,5.3-1.5,6.5-6.6,6.4c-16.1-0.3-16.1-0.1-16.1-16C453.2,78.5,453.2,68.4,453.2,58.3z"/>
	<path class="st1" d="M950.7,66.2c0,9.9-0.1,19.8,0.1,29.7c0.1,3.2-1,4.8-4,5.7c-19.7,6-39.7,7.7-59.8,2.3
		c-13.6-3.6-21-12.4-21.9-24.1c-1-13,4.9-22.6,17.8-28.7c12.7-6.1,26.4-8.2,40.3-9.1c6.3-0.4,7-3.4,6.3-8.4
		c-1-7.5-5.2-11.9-13.1-13.7c-11.8-2.6-23.3-1.1-34.4,2.9c-8,2.8-6.8-3.9-8.6-7.1c-2.7-4.9,2.3-4.6,4.7-5.4
		c15.3-4.8,31-6.6,46.8-3.4c16.8,3.4,25.7,14.5,25.8,31.7C950.7,47.8,950.7,57,950.7,66.2z M929.5,71.7c0-5.5,0-11,0-16.4
		c0-2.1,0-4.1-3-3.8c-11.1,1.2-22.4,2.2-32,8.7c-7.1,4.8-9.2,12-7.8,20.2c1.4,8,7,11.8,14.3,13.6c7.6,1.8,15.2,1.5,22.8-0.1
		c4-0.8,6.1-2.4,5.7-7C929.2,81.9,929.5,76.8,929.5,71.7z"/>
	<path class="st1" d="M550.2,56.1C550,19.5,576.7-1.7,612.5,6.9c19.2,4.6,33.1,24.9,31,45.1c-0.4,3.7-2.8,3.3-5.1,3.5
		c-20.3,2.5-40.6,5.2-60.9,7.4c-4.8,0.5-5.7,2.2-4.6,6.6c3.3,14.1,14.1,22.4,30.7,22.8c8.4,0.2,16.8-0.6,24.7-3.7c5-2,6.8-0.6,8.4,4
		c2.8,7.9,3.1,7.8-4.7,10.2c-11.7,3.5-23.7,4.9-35.9,3.9C566.8,104.3,550.3,86,550.2,56.1z M597.4,18.2c-16.2,0-30.2,16.8-27.1,32.3
		c0.5,2.7,2,2.4,3.8,2.2c14.6-1.9,29.2-3.8,43.8-5.7c2.5-0.3,3.8-1.1,3.8-4.1C621.8,28.3,611.9,18.2,597.4,18.2z"/>
	<path class="st1" d="M643.3,104.5c10-13.4,19.2-25.7,28.3-38c9.2-12.4,9.2-12.4,0.2-24.9c-7.8-10.8-15.7-21.6-24.5-33.7
		c8.5,0,15.8-0.1,23.1,0c2.7,0,3.4,2.6,4.6,4.3c6.3,9.2,12.4,18.5,19.1,28.4c6.2-8.9,12.3-16.9,17.5-25.5c3.5-5.8,7.8-8.2,14.4-7.3
		c3.8,0.5,7.7,0.1,13.1,0.1C731,18.5,723.7,28,716.5,37.6c-3.8,5.1-10.4,10.2-10.4,15.4c-0.1,5.2,6.4,10.4,10.1,15.6
		c8.5,11.7,17.1,23.2,26.4,35.9c-8.7,0-16.1-0.1-23.4,0c-3.1,0.1-4-2.2-5.3-4.2c-7.1-10.6-14.2-21.1-21.8-32.5
		c-7.2,10.7-14.3,20.6-20.7,31c-2.8,4.6-6.1,6.2-11.2,5.8C655.1,104.2,650.1,104.5,643.3,104.5z"/>
	<path class="st2" d="M337.9,42.4c0-18.5,0.1-37-0.1-55.4c0-3.9,0.4-5.8,5.1-5.7c20.2,0.3,40.5,0.4,60.7,0c6.7-0.1,4.7,4.1,4.8,7.4
		c0.1,3.3,1.4,7-4.7,6.8c-12.3-0.5-24.6,0.1-37-0.2c-4.4-0.1-5.6,1.2-5.4,5.5c0.3,9.4,0.4,18.9,0,28.4c-0.2,4.6,1.6,5.4,5.6,5.3
		c10.6-0.2,21.1,0.3,31.7-0.2c6.7-0.3,4.7,4.1,4.8,7.3c0.2,3.4,1,6.9-4.9,6.6c-10.3-0.5-20.7,0.1-31-0.2c-4.8-0.2-6.4,0.9-6.3,6
		c0.4,15.2,0,30.4,0.2,45.5c0.1,4-1,5.6-5.1,5.1c-6-0.7-13.9,2.6-17.6-1.4c-2.9-3.1-0.9-10.8-0.9-16.5
		C337.8,71.9,337.9,57.1,337.9,42.4z"/>
	<path class="st3" d="M779.1-19.5c0,7.9,0.2,15.2-0.1,22.4c-0.2,4.2,1.3,5.5,5.3,5.1c2.8-0.3,5.7,0.2,8.6-0.1
		c4.4-0.4,6.7,0.4,6.6,5.8c-0.1,5.4-1.4,7.1-7,7c-13.4-0.3-13.4,0-13.4,13.1c0,14.5,0,29,0,43.5c0,10.6,4.8,15.3,15.2,15.4
		c1.9,0,5.1-1.6,4.7,2.2c-0.3,3.6,2.6,8.4-2.3,10.6c-15.2,6.9-37-4-39.7-20c-0.7-4.3-0.4-8.8-0.4-13.2c0-15.2-0.3-30.3,0.1-45.5
		c0.1-5.4-1.6-6.7-6.6-6.5c-3.5,0.1-8.4,2.3-8.4-5.2c0-6.2,2-8.3,7.7-7.3c5.6,1,7.5-1,7.3-7c-0.5-14.6-0.1-14.6,14.3-18.3
		C773.5-18.1,776-18.7,779.1-19.5z"/>
	<path class="st3" d="M812,58.2c0-13.2,0.3-26.4-0.1-39.6c-0.2-5.2,1.7-7.2,6.5-8.6c14.6-4.2,29.4-4.9,44.4-4.5
		c3.3,0.1,4.4,1.2,3.2,4.4c-0.8,2.1-1.7,4.1-2.1,6.2c-0.7,3.7-2.7,4.5-6.1,3.8c-5.9-1.2-11.8-0.9-17.7,0c-4.2,0.6-5.7,2.5-5.7,6.9
		c0.2,23.8-0.1,47.5,0.2,71.3c0.1,5.3-1.4,6.6-6.6,6.5c-16-0.3-16,0-16-16.1C812,78.4,812,68.3,812,58.2z"/>
	<path class="st2" d="M440.7,56.3c0,14.5-0.1,29,0.1,43.5c0.1,3.7-1,5.1-4.8,4.8c-5.7-0.4-13,1.8-16.6-1c-3.9-3-1.2-10.6-1.3-16.2
		c-0.1-24.6,0.1-49.2-0.2-73.8c0-4.6,1-6.3,5.7-5.7c5.4,0.6,12.5-2.2,15.9,1c3.5,3.3,0.9,10.4,1,15.8
		C440.8,35.2,440.7,45.7,440.7,56.3z"/>
	<path class="st2" d="M429-4.8c-0.9,0-1.8,0-2.6,0c-7.7,0-10.9-4.9-8.3-12.2c0.8-2.2,2.4-1.6,3.7-1.6c3.7-0.1,7.5,0.4,11.2-0.1
		c6.2-0.8,8.6,1.1,7.9,7.7C440.2-4.8,440.7-4.8,429-4.8z"/>
	<path class="st4" d="M929.5,71.7c0,5-0.3,10.1,0.1,15.1c0.4,4.6-1.7,6.2-5.7,7c-7.6,1.6-15.2,1.9-22.8,0.1
		c-7.4-1.8-12.9-5.6-14.3-13.6c-1.5-8.2,0.7-15.4,7.8-20.2c9.6-6.5,20.9-7.5,32-8.7c3-0.3,3,1.7,3,3.8
		C929.5,60.8,929.5,66.3,929.5,71.7z"/>
	<path class="st4" d="M597.4,18.2c14.5,0,24.3,10.2,24.3,24.7c0,3-1.3,3.8-3.8,4.1c-14.6,1.9-29.2,3.8-43.8,5.7
		c-1.8,0.2-3.2,0.4-3.8-2.2C567.2,35,581.2,18.1,597.4,18.2z"/>
</g>
</svg>
