<?xml version="1.0" encoding="utf-8"?>
<!-- Generator: Adobe Illustrator 19.0.0, SVG Export Plug-In . SVG Version: 6.00 Build 0)  -->
<svg version="1.1" id="Layer_1" xmlns="http://www.w3.org/2000/svg" xmlns:xlink="http://www.w3.org/1999/xlink" x="0px" y="0px"
	 width="686px" height="161px" viewBox="301 -41 686 161" style="enable-background:new 301 -41 686 161;" xml:space="preserve">
<style type="text/css">
	.st0{fill:none;stroke:#FFF100;stroke-width:0.784;stroke-linecap:round;stroke-linejoin:round;}
	.st1{fill:#DA3793;}
	.st2{fill:#EC008B;}
	.st3{fill:#231F1F;}
	.st4{fill:#58595B;}
	.st5{fill:#EA0A8A;}
	.st6{fill:#05AFEB;}
	.st7{fill:#2BABE2;}
</style>
<title>vector_h-trans</title>
<g id="Symbols">
	<g id="gharage-logo">
		<g id="dc-gharage">
			<g id="Page-1" transform="translate(121.000000, 43.000000)">
				<path id="Stroke-1" class="st0" d="M509.2,41.8c0,0,1.6-1,1.6-0.9c0,0.1,0.5,2.2,0.5,2.3c0.1,0.1,4.5-2.8,4.6-2.6
					c0.1,0.1-3.5,4.4-3.5,4.6c0.1,0.3,6.3-4,6.4-3.7c0.1,0.2-5.7,5.6-5.6,5.8c0.2,0.4,12.9-8,13.1-7.6c0.2,0.4-15.1,10.6-14.8,11.1
					c0.3,0.5,17.8-10.9,18.1-10.4c0.2,0.4-17.9,12.3-17.7,12.8c0.3,0.6,23.9-14.4,24.1-13.9c0.3,0.6-24.1,15.7-23.7,16.2
					c0.3,0.6,27.6-17,28-16.2c0.5,0.8-29.3,18.5-28.9,19.2c0.5,0.8,28.3-17.5,28.8-16.6c0.5,0.8-29,18.1-28.5,19
					c0.5,0.9,35.2-21.5,35.7-20.6c0.5,0.8-36.3,22.5-35.8,23.2c0.6,1,37.1-23,37.7-21.8c0.6,1.1-38.9,23.6-38.3,24.6
					c0.7,1.2,45.1-27.2,45.6-26.3c0.7,1.1-45.5,27.5-45,28.5c0.7,1.3,46.8-28.8,47.5-27.4c0.6,1.1-41.1,24.8-40.5,25.9
					c0.7,1.2,43.4-26.9,44.2-25.5c0.6,1-42.3,25.6-41.7,26.6c0.6,1,45-27.6,45.7-26.4c0.7,1.2-42,25.6-41.5,26.5
					c0.6,1.1,47.7-29.1,48.4-27.9c0.6,1-44.3,26.7-43.7,27.8c0.8,1.3,48.6-29.8,49.4-28.5c0.7,1.2-44.6,27-44,28
					c0.7,1.2,47.9-29.3,48.6-28.1c0.6,1-46.4,27.7-45.7,28.9c0.6,1.1,47.4-29.2,48.2-27.8c0.6,1.1-40.5,24.8-40,25.6
					c0.7,1.1,43.7-27.1,44.5-25.7c0.5,0.9-42.7,25.9-42.1,26.8c0.7,1.3,47-28.4,47.6-27.5c0.7,1.2-41.5,25.1-40.9,26.2
					c0.6,1,42.9-26.1,43.5-25.1c0.7,1.1-41.8,25.3-41.2,26.3c0.7,1.2,45.1-27.6,45.8-26.4c0.7,1.2-42.1,25.6-41.5,26.5
					c0.6,1.1,48.2-29.5,48.9-28.3c0.7,1.3-43.9,26.7-43.3,27.6c0.6,1,45.7-27.7,46.3-26.7c0.5,0.9-44.1,26.4-43.4,27.6
					c0.6,1,44.8-27.2,45.4-26.2c0.6,1-40.4,24.4-39.8,25.5c0.5,0.9,45.5-28,46.2-26.7c0.5,1-45.2,27.1-44.5,28.2
					c0.6,1,46.3-28.1,46.9-27.1c0.7,1.1-39.1,23.8-38.5,24.8c0.6,1,46.1-28.3,46.8-27c0.6,1.1-45.5,27.4-44.9,28.5
					c0.7,1.3,46.6-28.2,47.1-27.2c0.6,1.1-43.8,26.1-43.1,27.4c0.6,1.1,45.2-27.8,46-26.5c0.7,1.2-40.3,24.5-39.7,25.5
					c0.8,1.3,45.8-27.9,46.4-26.8c0.5,0.9-41.6,25-41,26.2c0.6,1,43.9-26.9,44.6-25.7c0.6,1-43.7,26.4-43.1,27.4
					c0.6,1,45.1-27.4,45.7-26.4c0.7,1.2-41.2,25.1-40.6,26c0.7,1.2,45.4-27.7,46-26.6c0.5,0.9-40.4,24.5-39.8,25.5
					c0.6,1,42.6-26.4,43.4-25.1c0.5,0.9-40,24.2-39.4,25.3c0.7,1.1,46.4-28.5,47.1-27.2c0.6,1.1-45.8,27.5-45.2,28.6
					c0.7,1.1,48.5-29.5,49.1-28.4c0.6,1.1-41.6,25.3-41.1,26.3c0.7,1.3,43.7-26.9,44.4-25.6c0.6,1-40.6,24.8-40.1,25.7
					c0.6,1.1,42.8-26.3,43.5-25.1c0.7,1.2-41.9,25.2-41.2,26.3c0.7,1.2,45.7-27.8,46.3-26.7c0.8,1.3-44.5,26.7-43.9,27.9
					c0.6,1.1,45.6-28,46.3-26.7c0.6,1-38.3,23.2-37.7,24.3c0.5,0.8,34.1-20.9,34.6-20c0.5,0.9-33.1,20.5-32.6,21.3
					c0.5,0.8,34.8-21.2,35.3-20.4c0.5,0.9-32.9,20.6-32.5,21.3c0.5,0.8,32.1-19.5,32.5-18.8c0.4,0.8-25.1,16.3-24.7,16.8
					c0.4,0.6,22.4-13.9,22.8-13.2c0.3,0.5-19.4,13.1-19.1,13.6c0.3,0.6,18.8-11.5,19.1-11c0.3,0.5-17.3,11.9-17,12.4
					c0.2,0.4,18.9-11.4,19.1-11c0.2,0.4-15.5,10.9-15.2,11.3c0.2,0.3,15.8-9.5,15.9-9.2c0.2,0.3-10.8,8.3-10.6,8.7
					c0.1,0.2,8-4.8,8.1-4.7c0,0.1-1.1,3.1-1.1,3.2c0.1,0.1,4-2.4,4.1-2.4"/>
				<path id="Fill-3" class="st1" d="M522,56.8c0.1-0.5,0.1-1.1,0.1-1.9c0-1,0-1.7-0.1-2.1c-0.1-0.8-0.5-1.3-1-1.8
					c-0.6-0.5-1.3-0.7-2.1-0.7c-1.1,0-1.9,0.4-2.5,1.2c-0.6,0.8-0.9,1.9-0.9,3.3c0,1.4,0.3,2.6,0.9,3.4c0.6,0.8,1.5,1.2,2.6,1.2
					c0.8,0,1.5-0.2,2.1-0.7C521.6,58.2,521.9,57.5,522,56.8 M518.8,48.7c1.5,0,2.6,0.6,3.4,1.7v-2.3c0-0.6,0-1,0-1.1
					c-0.1-0.5-0.3-0.7-0.6-0.7c-0.1,0-0.3,0-0.5,0.1c-0.2,0.1-0.4,0.1-0.5,0.1c-0.6,0-0.8-0.2-0.8-0.7c0-0.5,0.4-0.8,1.1-0.8
					c0.1,0,0.3,0,0.7,0c0.5,0,0.7,0.1,0.7,0.1c0.1,0,0.3,0,0.6-0.1c0.3,0,0.5-0.1,0.6-0.1c0.4,0,0.6,0.3,0.6,0.9v0.3
					c0,0,0,0.4,0,1.2c0,0.1,0,0.7-0.1,1.8c0,0.8,0,1.3,0,1.7v2.2v3.8c0,1,0.1,1.6,0.1,1.9c0.1,0.2,0.3,0.4,0.6,0.4
					c0.2,0,0.4,0,0.5,0c0.2,0,0.4,0,0.5,0c0.6,0,0.9,0.2,0.9,0.7c0,0.5-0.3,0.8-1,0.8c-0.2,0-0.4,0-0.7-0.1c-0.3,0-0.5-0.1-0.7-0.1
					c0,0-0.2,0-0.5,0c-0.2,0-0.3,0.1-0.5,0.1c-0.4,0-0.6-0.3-0.6-0.8v-0.1v-0.4c-0.8,1.1-2,1.6-3.5,1.6c-1.5,0-2.8-0.6-3.7-1.7
					c-0.9-1.1-1.4-2.6-1.4-4.4c0-1.8,0.5-3.3,1.4-4.4C516,49.3,517.2,48.7,518.8,48.7"/>
				<path id="Fill-5" class="st2" d="M542.7,51.8l2.7,7.1l2.6-7.1c0.2-0.4,0.2-0.7,0.2-0.8c0-0.3-0.2-0.5-0.5-0.5
					c-0.1,0-0.3,0-0.5,0.1c-0.2,0-0.4,0.1-0.5,0.1c-0.5,0-0.7-0.2-0.7-0.7c0-0.5,0.4-0.8,1.1-0.8h0.2c0.1,0,0.1,0,0.2,0l1,0.1
					c0.2,0,0.4,0.1,0.7,0.1c0.3,0,0.8,0,1.5-0.1c0.4-0.1,0.7-0.1,0.9-0.1c0.7,0,1,0.2,1,0.7c0,0.5-0.3,0.7-0.8,0.7
					c-0.2,0-0.3,0-0.4,0c-0.2,0-0.4-0.1-0.5-0.1c-0.3,0-0.6,0.4-0.8,1.1l-3.2,8.2c-0.3,0.7-0.7,1-1.4,1c-0.6,0-1.1-0.3-1.3-1
					l-3.3-8.4c-0.2-0.6-0.5-0.8-0.7-0.8c-0.1,0-0.3,0-0.5,0.1c-0.2,0-0.4,0.1-0.5,0.1c-0.5,0-0.7-0.2-0.7-0.7c0-0.5,0.3-0.8,1-0.8
					c0.1,0,0.2,0,0.3,0l1,0.1c0.3,0,0.6,0.1,1,0.1c0.3,0,0.6,0,1.1-0.1l0.7-0.1c0.1,0,0.2,0,0.3,0c0.7,0,1,0.3,1,0.8
					c0,0.5-0.3,0.7-0.9,0.7c-0.2,0-0.3,0-0.4,0c-0.3-0.1-0.5-0.1-0.5-0.1c-0.2,0-0.4,0.1-0.4,0.3c0,0.1,0,0.3,0.1,0.5L542.7,51.8z"
					/>
				<path id="Fill-7" class="st3" d="M555.1,60.9c-0.4,0-0.7-0.1-1-0.4c-0.3-0.3-0.4-0.6-0.4-1c0-0.4,0.1-0.7,0.4-1
					c0.3-0.3,0.6-0.4,1-0.4c0.4,0,0.7,0.1,1,0.4c0.3,0.3,0.4,0.6,0.4,1c0,0.4-0.1,0.7-0.4,1C555.8,60.7,555.5,60.9,555.1,60.9
					 M555.1,53.2c-0.4,0-0.7-0.1-1-0.4c-0.3-0.3-0.4-0.6-0.4-1c0-0.4,0.1-0.7,0.4-1c0.3-0.3,0.6-0.4,1-0.4c0.4,0,0.7,0.1,1,0.4
					c0.3,0.3,0.4,0.6,0.4,1c0,0.4-0.1,0.7-0.4,1C555.8,53.1,555.5,53.2,555.1,53.2"/>
				<path id="Fill-9" class="st4" d="M565.7,53c0-0.6,0.4-1,1.1-1c-0.1-0.5-0.3-0.9-0.8-1.2c-0.4-0.3-1-0.5-1.7-0.5
					c-1,0-1.9,0.4-2.5,1.2c-0.6,0.8-1,1.9-1,3.3c0,1.4,0.3,2.5,0.9,3.3c0.6,0.8,1.4,1.2,2.5,1.2c0.7,0,1.2-0.2,1.7-0.6
					c0.5-0.4,0.8-0.9,1-1.6c0.2-0.5,0.2-0.8,0.3-0.9c0.2-0.3,0.4-0.5,0.7-0.5c0.3,0,0.5,0.1,0.6,0.2c0.2,0.2,0.3,0.4,0.3,0.6
					c0,0.4-0.1,0.8-0.4,1.4c-0.2,0.5-0.5,1-0.9,1.3c-0.9,1-2.1,1.4-3.5,1.4c-1.5,0-2.8-0.5-3.7-1.6c-0.9-1.1-1.4-2.5-1.4-4.3
					c0-1.9,0.5-3.4,1.5-4.5c1-1.1,2.3-1.7,3.9-1.7c1.2,0,2.2,0.3,3,1c0.8,0.7,1.2,1.5,1.2,2.5c0,0.6-0.2,1-0.5,1.4
					c-0.3,0.4-0.7,0.5-1.2,0.5c-0.4,0-0.7-0.1-0.9-0.3C565.8,53.6,565.7,53.3,565.7,53"/>
				<path id="Fill-11" class="st4" d="M576,50.2c-1.1,0-1.9,0.4-2.5,1.1c-0.6,0.7-0.9,1.8-1,3.2v0.3c0,1.4,0.3,2.5,0.9,3.3
					c0.6,0.8,1.4,1.2,2.5,1.2c1.1,0,2-0.4,2.6-1.2c0.6-0.8,0.9-1.9,0.9-3.4C579.5,51.8,578.3,50.2,576,50.2 M575.9,60.9
					c-1.6,0-2.9-0.5-3.8-1.6c-1-1.1-1.4-2.6-1.4-4.4c0-1.8,0.5-3.3,1.4-4.4c1-1.1,2.3-1.6,3.9-1.6c1.6,0,3,0.5,3.9,1.6
					c1,1.1,1.4,2.5,1.4,4.4c0,1.8-0.5,3.3-1.5,4.4C578.8,60.3,577.5,60.9,575.9,60.9"/>
				<path id="Fill-13" class="st4" d="M586.5,49.8v0.6c0.9-1.1,2.1-1.7,3.6-1.7c0.8,0,1.6,0.2,2.3,0.6c0.7,0.4,1.2,0.9,1.5,1.6
					c0.2,0.5,0.3,1.2,0.3,2v4.3c0,0.7,0,1,0,1.2c0.1,0.5,0.3,0.8,0.6,0.8c0.1,0,0.3,0,0.5-0.1c0.2,0,0.4-0.1,0.5-0.1
					c0.2,0,0.4,0.1,0.5,0.2c0.1,0.1,0.2,0.3,0.2,0.5c0,0.2-0.1,0.4-0.3,0.6c-0.2,0.2-0.4,0.2-0.7,0.2c-0.2,0-0.6,0-1-0.1
					c-0.5-0.1-0.9-0.1-1.4-0.1c-0.4,0-0.7,0-1,0c-0.8,0.1-1.2,0.1-1.2,0.1c-0.6,0-0.9-0.3-0.9-0.8c0-0.5,0.3-0.7,0.8-0.7
					c0.1,0,0.3,0,0.4,0c0.3,0.1,0.5,0.1,0.6,0.1c0.4,0,0.6-0.4,0.6-1.2v-1.2v-1.4v-1.7c0-0.8,0-1.4-0.1-1.7c-0.1-0.6-0.4-1-0.9-1.3
					c-0.5-0.3-1.1-0.5-1.7-0.5c-1.2,0-2.1,0.4-2.6,1.3c-0.4,0.6-0.5,1.6-0.5,3v3c0,0.7,0,1.1,0.1,1.4c0.1,0.2,0.3,0.4,0.5,0.4
					c0.1,0,0.3,0,0.5-0.1c0.2-0.1,0.4-0.1,0.5-0.1c0.5,0,0.7,0.3,0.7,0.8c0,0.5-0.3,0.7-0.9,0.7c-0.1,0-0.5,0-1.2-0.1
					c-0.3,0-0.7-0.1-1.1-0.1c-0.3,0-0.7,0-1.3,0.1c-0.7,0.1-1,0.1-1.1,0.1c-0.6,0-1-0.3-1-0.8c0-0.5,0.2-0.7,0.7-0.7
					c0.1,0,0.2,0,0.4,0.1c0.2,0,0.4,0.1,0.6,0.1c0.5,0,0.7-0.4,0.7-1.3v-2.5v-2.7v-0.8c0-0.5-0.1-0.9-0.2-1.1
					c-0.1-0.2-0.3-0.3-0.5-0.3c-0.1,0-0.3,0-0.5,0.1c-0.2,0-0.4,0.1-0.5,0.1c-0.6,0-0.8-0.2-0.8-0.7c0-0.5,0.3-0.8,1-0.8
					c0.1,0,0.2,0,0.2,0l0.8,0.1c0.2,0,0.5,0,0.6-0.1c0.4,0,0.6-0.1,0.6-0.1C586.3,49.1,586.5,49.4,586.5,49.8"/>
				<path id="Fill-15" class="st4" d="M603,50.2c-0.7,0-1.2,0.2-1.7,0.6c-0.5,0.4-0.7,0.9-0.8,1.5v0.1c0,0.7,0.2,1.2,0.7,1.6
					c0.5,0.4,1,0.6,1.8,0.6c0.8,0,1.4-0.2,1.8-0.6c0.5-0.4,0.7-0.9,0.7-1.6c0-0.7-0.2-1.2-0.7-1.6C604.3,50.5,603.7,50.2,603,50.2
					 M603,59c-1.2,0-2.2,0.2-2.9,0.5c-0.7,0.4-1,0.9-1,1.5c0,0.6,0.3,1.1,1,1.5c0.7,0.4,1.6,0.5,2.8,0.5c1.2,0,2.2-0.2,2.9-0.5
					c0.7-0.4,1.1-0.8,1.1-1.5c0-0.6-0.3-1.1-1-1.5C605.1,59.2,604.2,59,603,59 M602.9,48.7c0.4,0,0.8,0.1,1.3,0.2
					c0.1-1.5,0.9-2.2,2.6-2.2c0.7,0,1.3,0.2,1.7,0.5c0.5,0.4,0.7,0.8,0.7,1.4c0,0.4-0.1,0.7-0.4,0.9c-0.2,0.3-0.5,0.4-0.8,0.4
					c-0.2,0-0.5-0.1-0.6-0.2c-0.2-0.2-0.3-0.4-0.3-0.6c0-0.2,0.2-0.5,0.5-0.7c-0.2-0.3-0.6-0.5-0.9-0.5c-0.8,0-1.2,0.5-1.2,1.5
					c1.1,0.8,1.7,1.8,1.7,3.1c0,1-0.4,1.9-1.2,2.6c-0.8,0.7-1.8,1-3,1c-0.8,0-1.7-0.2-2.6-0.6c-0.2-0.1-0.4-0.2-0.6-0.2
					c-0.2,0-0.4,0.1-0.6,0.3c-0.2,0.2-0.3,0.4-0.3,0.7c0,0.8,0.8,1.2,2.4,1.2h0.1h0.4h0.3c1.4,0,2.6,0.1,3.5,0.4
					c0.8,0.3,1.5,0.7,2,1.2c0.5,0.5,0.7,1.2,0.7,1.8c0,1.1-0.5,2-1.5,2.6c-1,0.6-2.4,1-4.1,1c-1.7,0-3.1-0.3-4.1-0.9
					c-1-0.6-1.5-1.4-1.5-2.5c0-1.2,0.7-2.1,2.1-2.6c-1.3-0.5-1.9-1.2-1.9-2.2c0-1.1,0.6-1.8,1.9-2.2c-0.4-0.5-0.6-1.2-0.6-1.9
					c0-1,0.4-1.9,1.2-2.6C600.7,49.1,601.7,48.7,602.9,48.7"/>
				<path id="Fill-17" class="st4" d="M613.9,49.8v0.6c0.8-1.1,1.8-1.7,3.2-1.7c1.1,0,1.9,0.3,2.6,0.9c0.7,0.6,1,1.4,1,2.3
					c0,0.7-0.2,1.2-0.5,1.6c-0.3,0.4-0.8,0.6-1.3,0.6c-0.3,0-0.6-0.1-0.9-0.3c-0.2-0.2-0.4-0.5-0.4-0.8c0-0.2,0.1-0.5,0.3-0.6
					c0.2-0.2,0.4-0.3,0.6-0.3c0,0,0.1,0,0.3,0.1c0.1-0.2,0.1-0.3,0.1-0.5c0-0.4-0.2-0.8-0.6-1.1c-0.4-0.3-0.9-0.5-1.4-0.5
					c-1.2,0-2,0.5-2.4,1.6c-0.2,0.7-0.4,1.6-0.4,3v1.5c0,1,0,1.6,0,1.7c0.1,0.9,0.3,1.3,0.7,1.3c0.2,0,0.4,0,0.6-0.1
					c0.2,0,0.3-0.1,0.4-0.1c0.5,0,0.7,0.2,0.7,0.7c0,0.5-0.3,0.8-0.9,0.8h-0.1c-0.2,0-0.6,0-1-0.1c-0.5-0.1-0.8-0.1-1-0.1
					c-0.6,0-1.1,0-1.4,0l-1.3,0.1c-0.6,0-0.9-0.3-0.9-0.8c0-0.5,0.3-0.7,0.9-0.7c0.2,0,0.3,0,0.3,0l0.3,0.1c0.2,0,0.3,0,0.3,0
					c0.4,0,0.6-0.3,0.6-1V57l-0.1-5.2c0-0.9-0.3-1.3-0.7-1.3c-0.1,0-0.3,0-0.5,0.1c-0.2,0-0.4,0.1-0.5,0.1c-0.5,0-0.7-0.2-0.7-0.7
					c0-0.5,0.3-0.8,1-0.8c0.2,0,0.4,0,0.7,0.1c0.3,0,0.5,0.1,0.7,0.1c0.1,0,0.3,0,0.6-0.1c0.1,0,0.3-0.1,0.4-0.1
					C613.7,49.1,613.9,49.3,613.9,49.8"/>
				<path id="Fill-19" class="st4" d="M623.7,53.2c0,0.2,0.2,0.3,0.5,0.3h5.4c0.3,0,0.5-0.1,0.5-0.3c0-0.8-0.3-1.5-0.9-2.1
					c-0.6-0.6-1.3-0.9-2.1-0.9c-0.9,0-1.6,0.3-2.3,0.9C624,51.8,623.7,52.5,623.7,53.2 M631.9,53.8c0,0.6,0,0.9-0.1,1.1
					c-0.1,0.1-0.3,0.2-0.7,0.2h-7.2c-0.2,0-0.3,0-0.4,0.1c-0.1,0.1-0.1,0.1-0.1,0.3c0,1.1,0.3,2.1,1,2.9c0.7,0.8,1.5,1.1,2.5,1.1
					c0.7,0,1.3-0.2,1.8-0.5c0.6-0.4,0.9-0.8,1.1-1.4l0.2-0.7c0.1-0.4,0.4-0.5,0.8-0.5c0.6,0,0.8,0.3,0.8,0.9c0,1-0.5,1.9-1.5,2.6
					c-1,0.8-2.1,1.1-3.4,1.1c-1.6,0-2.9-0.5-3.8-1.6c-0.9-1.1-1.4-2.5-1.4-4.3c0-1.8,0.5-3.3,1.5-4.5c1-1.1,2.3-1.7,3.9-1.7
					c1.4,0,2.6,0.5,3.5,1.4C631.5,51.1,631.9,52.3,631.9,53.8"/>
				<path id="Fill-21" class="st4" d="M638.4,48.7c1,0,1.9,0.3,2.5,0.8v-0.1c0-0.6,0.2-0.8,0.7-0.8c0.5,0,0.7,0.2,0.7,0.7
					c0,0.1,0,0.3,0,0.7c-0.1,0.3-0.1,0.6-0.1,0.9c0,0.2,0,0.4,0.1,0.8c0,0.3,0.1,0.6,0.1,0.8c0,0.6-0.2,0.9-0.7,0.9
					c-0.5,0-0.7-0.2-0.7-0.7v-0.7c0-0.5-0.3-0.8-0.8-1.2c-0.5-0.3-1.1-0.5-1.8-0.5c-0.7,0-1.3,0.2-1.8,0.5c-0.5,0.4-0.7,0.8-0.7,1.3
					c0,1,0.7,1.5,2,1.7l1.3,0.2c2.6,0.3,3.9,1.4,3.9,3.2c0,1.1-0.4,2-1.2,2.6c-0.8,0.7-1.9,1-3.3,1c-1.3,0-2.3-0.4-3.3-1.1v0.4
					c0,0.5-0.3,0.8-0.8,0.8c-0.6,0-0.8-0.3-0.8-0.9c0,0.1,0-0.3,0.1-1.2c0-0.2,0-0.4,0-0.6c0-0.4,0-0.7-0.1-1
					c-0.1-0.3-0.1-0.6-0.1-0.7c0-0.5,0.2-0.8,0.7-0.8c0.3,0,0.5,0.1,0.6,0.2c0.1,0.2,0.1,0.6,0.1,1.2c0,0.7,0.4,1.2,1,1.6
					c0.7,0.4,1.5,0.6,2.5,0.6c0.7,0,1.4-0.2,1.8-0.6c0.5-0.4,0.7-0.9,0.7-1.4c0-1-0.8-1.6-2.5-1.8c-1.6-0.2-2.7-0.5-3.6-0.9
					c-0.8-0.4-1.2-1.2-1.2-2.3c0-1.1,0.4-1.9,1.2-2.6C636.1,49.1,637.1,48.7,638.4,48.7"/>
				<path id="Fill-23" class="st4" d="M649.6,48.7c1,0,1.9,0.3,2.5,0.8v-0.1c0-0.6,0.2-0.8,0.7-0.8c0.5,0,0.7,0.2,0.7,0.7
					c0,0.1,0,0.3,0,0.7c-0.1,0.3-0.1,0.6-0.1,0.9c0,0.2,0,0.4,0.1,0.8c0,0.3,0.1,0.6,0.1,0.8c0,0.6-0.2,0.9-0.7,0.9
					c-0.5,0-0.7-0.2-0.7-0.7v-0.7c0-0.5-0.3-0.8-0.8-1.2c-0.5-0.3-1.1-0.5-1.8-0.5c-0.7,0-1.3,0.2-1.8,0.5c-0.5,0.4-0.7,0.8-0.7,1.3
					c0,1,0.7,1.5,2,1.7l1.3,0.2c2.6,0.3,3.9,1.4,3.9,3.2c0,1.1-0.4,2-1.2,2.6c-0.8,0.7-1.9,1-3.3,1c-1.3,0-2.3-0.4-3.3-1.1v0.4
					c0,0.5-0.3,0.8-0.8,0.8c-0.6,0-0.8-0.3-0.8-0.9c0,0.1,0-0.3,0.1-1.2c0-0.2,0-0.4,0-0.6c0-0.4,0-0.7-0.1-1
					c-0.1-0.3-0.1-0.6-0.1-0.7c0-0.5,0.2-0.8,0.7-0.8c0.3,0,0.5,0.1,0.6,0.2c0.1,0.2,0.1,0.6,0.1,1.2c0,0.7,0.4,1.2,1,1.6
					c0.7,0.4,1.5,0.6,2.5,0.6c0.7,0,1.4-0.2,1.8-0.6c0.5-0.4,0.7-0.9,0.7-1.4c0-1-0.8-1.6-2.5-1.8c-1.6-0.2-2.7-0.5-3.6-0.9
					c-0.8-0.4-1.2-1.2-1.2-2.3c0-1.1,0.4-1.9,1.2-2.6C647.2,49.1,648.3,48.7,649.6,48.7"/>
				<path id="Fill-25" class="st4" d="M661.3,52.3c0,0.7-0.1,1.3-0.3,1.7c-0.2,0.4-0.6,0.7-1.1,1c0.5,0.3,0.9,0.6,1.1,1
					c0.2,0.4,0.3,1,0.3,1.7v3.7c0,0.8,0.1,1.4,0.4,1.6c0.3,0.3,0.9,0.4,1.7,0.4v1.4h-0.7c-1.1,0-2-0.3-2.5-0.8
					c-0.5-0.5-0.7-1.4-0.7-2.6v-3.7c0-0.7-0.1-1.1-0.3-1.5c-0.2-0.3-0.5-0.5-1-0.7v-1.3c0.9-0.2,1.3-0.9,1.3-2v-4
					c0-1.1,0.3-1.9,0.8-2.4c0.5-0.5,1.3-0.7,2.4-0.7h0.6v1.4c-0.9,0-1.5,0.2-1.7,0.4c-0.3,0.3-0.4,0.8-0.4,1.6V52.3z"/>
				<path id="Fill-27" class="st4" d="M669.3,57.5c0-0.7,0.1-1.3,0.3-1.7c0.2-0.4,0.6-0.7,1.1-1c-0.5-0.3-0.9-0.6-1.1-1
					c-0.2-0.4-0.3-1-0.3-1.7v-3.7c0-0.8-0.1-1.4-0.4-1.6c-0.3-0.3-0.9-0.4-1.7-0.4v-1.4h0.6c1.1,0,2,0.3,2.5,0.8
					c0.5,0.5,0.7,1.4,0.7,2.6v3.7c0,1.2,0.4,1.9,1.3,2.1v1.3c-0.9,0.2-1.3,0.9-1.3,2v4c0,1.1-0.2,1.9-0.7,2.4
					c-0.5,0.5-1.3,0.7-2.5,0.7h-0.6v-1.4c0.9,0,1.5-0.2,1.7-0.4c0.3-0.3,0.4-0.8,0.4-1.6V57.5z"/>
				<path id="Fill-29" class="st3" d="M678.2,53.2c-0.4,0-0.7-0.1-1-0.4c-0.3-0.3-0.4-0.6-0.4-1c0-0.4,0.1-0.7,0.4-1
					c0.3-0.3,0.6-0.4,1-0.4c0.4,0,0.7,0.1,1,0.4c0.3,0.3,0.4,0.6,0.4,1c0,0.4-0.1,0.7-0.4,1C678.9,53.1,678.6,53.2,678.2,53.2
					 M678.7,61.2c0-0.3-0.1-0.4-0.4-0.4h-0.5c-0.3,0-0.6-0.1-0.9-0.4c-0.2-0.3-0.4-0.6-0.4-1c0-0.4,0.2-0.8,0.5-1.1
					c0.3-0.3,0.7-0.4,1.1-0.4c0.5,0,1,0.2,1.3,0.6c0.3,0.4,0.5,1,0.5,1.7c0,1.2-0.4,2.3-1.3,3.6c-0.4,0.5-0.7,0.8-1,0.8
					c-0.3,0-0.5-0.2-0.5-0.5c0-0.1,0.1-0.2,0.2-0.4C678.3,62.6,678.7,61.8,678.7,61.2"/>
				<path id="Fill-31" class="st2" d="M529.8,52.8c0,0.2,0.2,0.3,0.5,0.3h5.4c0.3,0,0.5-0.1,0.5-0.3c0-0.8-0.3-1.5-0.9-2.1
					c-0.6-0.6-1.3-0.9-2.1-0.9c-0.9,0-1.6,0.3-2.3,0.9C530.1,51.4,529.8,52,529.8,52.8 M538,53.4c0,0.6,0,0.9-0.1,1.1
					c-0.1,0.1-0.3,0.2-0.7,0.2H530c-0.2,0-0.3,0-0.4,0.1c-0.1,0.1-0.1,0.1-0.1,0.3c0,1.1,0.3,2.1,1,2.9c0.7,0.8,1.5,1.1,2.5,1.1
					c0.7,0,1.3-0.2,1.8-0.5c0.6-0.4,0.9-0.8,1.1-1.4l0.2-0.7c0.1-0.4,0.4-0.5,0.8-0.5c0.6,0,0.8,0.3,0.8,0.9c0,1-0.5,1.9-1.5,2.6
					c-1,0.8-2.1,1.1-3.4,1.1c-1.6,0-2.9-0.5-3.8-1.6c-0.9-1.1-1.4-2.5-1.4-4.3c0-1.8,0.5-3.3,1.5-4.5c1-1.1,2.3-1.7,3.9-1.7
					c1.4,0,2.6,0.5,3.5,1.4C537.5,50.7,538,51.9,538,53.4"/>
			</g>
			<path id="Shape" class="st5" d="M318.9,26.6c-2.9,0-5.3-1-7.3-3c-2-2-3-4.5-3-7.3c0-2.8,1-5.3,3-7.3c2-2,4.4-3,7.3-3
				c2.9,0,5.3,1,7.3,3c2,2,3,4.5,3,7.3c0,2.9-1,5.3-3,7.3C324.1,25.6,321.7,26.6,318.9,26.6L318.9,26.6z M318.9,82.2
				c-2.9,0-5.3-1-7.3-3c-2-2-3-4.5-3-7.3c0-2.8,1-5.3,3-7.3c2-2,4.4-3,7.3-3c2.9,0,5.3,1,7.3,3c2,2,3,4.5,3,7.3c0,2.9-1,5.3-3,7.3
				C324.1,81.2,321.7,82.2,318.9,82.2L318.9,82.2z"/>
			<path id="Shape_1_" class="st6" d="M387.1-5.6c2.9,0,6.1,0.4,9.7,1.3c0.5-10.7,6.8-16.1,18.8-16.1c5.1,0,9.3,1.3,12.7,3.9
				c3.4,2.6,5.1,6,5.1,10c0,2.6-0.9,4.9-2.6,6.7c-1.7,1.9-3.7,2.8-6,2.8c-1.8,0-3.3-0.6-4.6-1.8c-1.3-1.2-2-2.6-2-4.3
				c0-1.8,1.2-3.6,3.6-5.4c-1.8-2.2-4-3.3-6.8-3.3c-5.8,0-8.8,3.6-8.9,10.8c8.4,5.6,12.5,13.1,12.5,22.5c0,7.6-2.9,13.9-8.6,18.9
				c-5.7,5-12.9,7.6-21.5,7.6c-6.1,0-12.4-1.4-18.9-4.3c-1.8-0.8-3.3-1.2-4.5-1.2c-1.5,0-2.9,0.7-4.1,2.1c-1.2,1.4-1.8,3-1.8,4.8
				c0,5.7,5.8,8.5,17.4,8.5h1h3h2c10.5,0,19,1,25.5,2.9c6.1,1.9,10.9,4.8,14.4,8.7c3.5,3.9,5.3,8.4,5.3,13.3c0,8-3.7,14.3-11.1,18.9
				c-7.4,4.6-17.5,7-30.1,7c-12.7,0-22.6-2.2-29.8-6.6c-7.2-4.4-10.8-10.4-10.8-18.1c0-8.9,5-15.2,15-18.9
				c-9-3.5-13.5-8.8-13.5-15.8c0-7.7,4.5-12.9,13.5-15.8c-2.9-3.8-4.3-8.3-4.3-13.5c0-7.5,2.9-13.6,8.7-18.6
				C371.1-3.1,378.4-5.6,387.1-5.6L387.1-5.6z M387.7,69c-8.8,0-15.7,1.3-20.8,3.9c-5.1,2.6-7.6,6.2-7.6,10.7c0,4.5,2.5,8,7.4,10.6
				c5,2.6,11.6,3.9,20,3.9c8.8,0,15.8-1.3,20.9-3.9c5.1-2.6,7.7-6.1,7.7-10.5c0-4.6-2.4-8.2-7.3-10.8C403.2,70.3,396.4,69,387.7,69
				L387.7,69z M387.5,5.3c-4.8,0-9,1.4-12.4,4.3c-3.4,2.9-5.3,6.4-5.6,10.7v1c0,4.8,1.7,8.7,5,11.7c3.3,3,7.6,4.4,12.9,4.4
				c5.5,0,10-1.5,13.5-4.4c3.5-3,5.2-6.7,5.2-11.3c0-4.7-1.8-8.6-5.3-11.7C397.2,6.8,392.8,5.3,387.5,5.3L387.5,5.3z"/>
			<path id="Shape_2_" class="st6" d="M463.8-26.6l-0.7,32c4.4-4.2,8.4-7,12.1-8.6c3.6-1.6,7.9-2.4,12.9-2.4
				c9.5,0,17.1,2.7,22.9,8.1c5.7,5.4,8.6,12.4,8.6,21.2v27.5c0,6.5,0.1,10,0.2,10.7c0.4,5.5,1.9,8.2,4.3,8.2c0.9,0,2.1-0.3,3.8-0.9
				c0.7-0.2,1.5-0.2,2.6-0.2c4.1,0,6.1,1.9,6.1,5.6c0,3.7-2.6,5.6-7.9,5.6c-1.4,0-3.5-0.2-6.3-0.5c-4.6-0.5-8.4-0.8-11.2-0.8
				c-2.9,0-5.1,0.1-6.6,0.3c-4.6,0.7-7.5,1-8.6,1c-2,0-3.6-0.6-5-1.7c-1.3-1.2-2-2.6-2-4.4c0-1.4,0.6-2.6,1.7-3.6
				c1.2-1,2.5-1.5,4-1.5c1.2,0,2.6,0.3,4.3,0.8c1,0.3,1.9,0.5,2.8,0.5c3.3,0,5-3.6,5.1-10.7c0-1.3,0.1-3.9,0.3-7.7v-7.1v-8.9
				c0-11.2-1.1-18.7-3.3-22.5c-3.2-5.7-8.8-8.5-16.9-8.5c-8.7,0-15.1,3-19.1,8.9c-2.8,4.1-4.2,10.6-4.3,19.6v11.8
				c0,0.7-0.2,1.8-0.7,3.3v3.1c0,6.2,0.1,9.9,0.2,10.8c0.6,5.4,2.2,8.1,4.9,8.1c0.9,0,2.2-0.2,3.8-0.7c1.6-0.5,2.9-0.7,3.7-0.7
				c3.6,0,5.4,1.8,5.4,5.2c0,4-2.4,5.9-7.3,5.9c-1.6,0-3.9-0.2-7-0.5c-4.2-0.4-7.8-0.7-10.8-0.7c-1.9,0-4.5,0.2-7.8,0.5
				c-4.4,0.4-7.3,0.7-8.5,0.7c-4.5,0-6.8-2-6.8-6.1c0-3.4,2.1-5.1,6.4-5.1c1.5,0,2.5,0.2,3.2,0.5c1.9,0.5,3.3,0.7,4,0.7
				c1.8,0,3-1.7,3.6-5c0.6-3.3,1-10.2,1.1-20.5V15.1c0-16.4-0.3-26.8-1-31.2c-0.7-4.3-2.2-6.5-4.6-6.5c-0.8,0-1.9,0.2-3.5,0.5
				c-1.5,0.3-2.8,0.5-3.6,0.5c-3.7,0-5.6-1.8-5.6-5.3c0-1.5,0.7-2.8,2-3.9c1.3-1.1,2.9-1.6,4.8-1.6c0.5,0,2.4,0.2,5.6,0.5
				c2.1,0.2,4.3,0.3,6.8,0.3c1,0,2.4-0.1,4.1-0.4c1.8-0.3,3-0.4,3.8-0.4c2.5,0,3.8,1.8,3.8,5.4L463.8-26.6L463.8-26.6z"/>
			<path id="Shape_3_" class="st7" d="M614.3,81.5c-9,0-14.6-3.9-16.7-11.7c-5.6,8.2-14.4,12.3-26.4,12.3c-8.9,0-16-2.2-21.4-6.6
				c-5.3-4.4-8-10.2-8-17.6c0-9.1,3.9-15.8,11.7-20.1c3-1.6,5.5-2.7,7.7-3.2c2.1-0.5,6.5-1.1,13-1.9c9.2-1,15.3-2.4,18.1-4.1
				c2.8-1.8,4.2-5,4.2-9.7c0-4.5-1.6-8-4.7-10.6c-3.1-2.6-7.5-3.9-13.1-3.9c-5,0-9.6,1.4-13.9,4.1c-1.7,1.1-2.5,2.2-2.5,3.5
				c0,0.4,0.5,1,1.5,1.6c1.5,1.1,2.3,3,2.3,5.6c0,2.2-0.8,4-2.4,5.4c-1.6,1.4-3.6,2.1-6,2.1c-2.9,0-5.3-1-7.2-3
				c-1.9-2-2.9-4.4-2.9-7.2c0-6.1,3.1-11.4,9.2-15.8c6.1-4.4,13.5-6.6,22.2-6.6C599-5.6,609,4,609,23.1v33.1c0,5.2,0.1,8.4,0.3,9.3
				c0.7,3.8,2.5,5.7,5.6,5.7c3.9,0,5.8-3.5,5.8-10.4v-8c0-3.5,1.7-5.2,5-5.2c3.6,0,5.4,2.6,5.4,7.9v0.8v9.4
				C630.9,76.3,625.3,81.5,614.3,81.5L614.3,81.5z M595.9,48.8V37.2c-2.4,2.2-5,3.7-7.6,4.6c-2.7,0.9-7.5,1.6-14.4,2.3
				c-12.5,1.2-18.7,5.8-18.7,13.8c0,4.2,1.5,7.5,4.5,9.9c3,2.4,7.1,3.6,12.3,3.6c7.4,0,13.2-2,17.4-6
				C593.6,61.4,595.8,55.8,595.9,48.8L595.9,48.8z"/>
			<path id="Shape_4_" class="st7" d="M661.3,1.9v4.5c5.7-8,13.4-12,23-12c7.7,0,14,2.2,18.7,6.5c4.8,4.3,7.2,9.9,7.2,16.7
				c0,4.8-1.2,8.7-3.6,11.8c-2.4,3-5.6,4.5-9.6,4.5c-2.5,0-4.7-0.8-6.4-2.3c-1.8-1.5-2.6-3.4-2.6-5.6c0-1.8,0.7-3.3,2-4.7
				c1.3-1.4,2.9-2.1,4.6-2.1c0.3,0,1,0.2,2.1,0.5c0.7-1.3,1-2.5,1-3.6c0-3.2-1.4-5.9-4.2-8.1c-2.8-2.2-6.3-3.3-10.5-3.3
				c-8.6,0-14.3,3.8-17.2,11.5c-1.8,4.7-2.6,11.8-2.6,21.4v10.8c0,7.3,0.1,11.5,0.2,12.3c0.5,6.2,2.3,9.4,5.1,9.4
				c1.4,0,2.9-0.2,4.5-0.6c1.2-0.3,2.3-0.4,3.1-0.4c3.5,0,5.3,1.7,5.3,5.2c0,3.8-2.2,5.7-6.7,5.7h-0.7c-1.6,0-4.1-0.2-7.5-0.6
				c-3.3-0.4-5.8-0.6-7.5-0.6c-4.4,0-7.8,0.1-10.4,0.3l-9.2,0.8c-4.5,0-6.7-1.9-6.7-5.8c0-3.4,2.1-5.1,6.3-5.1
				c1.1,0,1.9,0.1,2.5,0.2l2.5,0.5c1.1,0.2,1.9,0.3,2.3,0.3c2.8,0,4.3-2.5,4.5-7.6v-8.4l-0.5-37.3c-0.3-6.5-2-9.7-5-9.7
				c-0.9,0-2.1,0.2-3.6,0.5c-1.5,0.3-2.8,0.5-3.6,0.5c-3.6,0-5.4-1.8-5.4-5.3c0-3.8,2.4-5.8,7.1-5.8c1.1,0,2.8,0.1,5,0.4
				c2.2,0.3,3.9,0.4,5,0.4c0.9,0,2.3-0.1,4.3-0.4c0.9-0.3,1.9-0.4,3.1-0.4C659.9-2.8,661.3-1.2,661.3,1.9L661.3,1.9z"/>
			<path id="Shape_5_" class="st7" d="M788.5,81.5c-9,0-14.6-3.9-16.7-11.7c-5.6,8.2-14.4,12.3-26.4,12.3c-8.9,0-16-2.2-21.4-6.6
				c-5.3-4.4-8-10.2-8-17.6c0-9.1,3.9-15.8,11.7-20.1c3-1.6,5.5-2.7,7.7-3.2c2.1-0.5,6.5-1.1,13-1.9c9.2-1,15.3-2.4,18.1-4.1
				c2.8-1.8,4.2-5,4.2-9.7c0-4.5-1.6-8-4.7-10.6c-3.1-2.6-7.5-3.9-13.1-3.9c-5,0-9.6,1.4-13.9,4.1c-1.7,1.1-2.5,2.2-2.5,3.5
				c0,0.4,0.5,1,1.5,1.6c1.5,1.1,2.3,3,2.3,5.6c0,2.2-0.8,4-2.4,5.4c-1.6,1.4-3.6,2.1-6,2.1c-2.9,0-5.3-1-7.2-3
				c-1.9-2-2.9-4.4-2.9-7.2c0-6.1,3.1-11.4,9.2-15.8c6.1-4.4,13.5-6.6,22.2-6.6c20,0,30.1,9.6,30.1,28.7v33.1c0,5.2,0.1,8.4,0.3,9.3
				c0.7,3.8,2.5,5.7,5.6,5.7c3.9,0,5.8-3.5,5.8-10.4v-8c0-3.5,1.7-5.2,5-5.2c3.6,0,5.4,2.6,5.4,7.9v0.8v9.4
				C805.1,76.3,799.5,81.5,788.5,81.5L788.5,81.5z M770.1,48.8V37.2c-2.4,2.2-5,3.7-7.6,4.6c-2.7,0.9-7.5,1.6-14.4,2.3
				c-12.5,1.2-18.7,5.8-18.7,13.8c0,4.2,1.5,7.5,4.5,9.9c3,2.4,7.1,3.6,12.3,3.6c7.4,0,13.2-2,17.4-6
				C767.8,61.4,770,55.8,770.1,48.8L770.1,48.8z"/>
			<path id="Shape_6_" class="st7" d="M849.7-5.6c2.9,0,6.1,0.4,9.7,1.3c0.5-10.7,6.8-16.1,18.8-16.1c5.1,0,9.3,1.3,12.7,3.9
				c3.4,2.6,5.1,6,5.1,10c0,2.6-0.9,4.9-2.6,6.7c-1.7,1.9-3.7,2.8-6,2.8c-1.8,0-3.3-0.6-4.6-1.8c-1.3-1.2-2-2.6-2-4.3
				c0-1.8,1.2-3.6,3.6-5.4c-1.8-2.2-4-3.3-6.8-3.3c-5.8,0-8.8,3.6-8.9,10.8c8.4,5.6,12.5,13.1,12.5,22.5c0,7.6-2.9,13.9-8.6,18.9
				c-5.7,5-12.9,7.6-21.5,7.6c-6.1,0-12.4-1.4-18.9-4.3c-1.8-0.8-3.3-1.2-4.5-1.2c-1.5,0-2.9,0.7-4.1,2.1c-1.2,1.4-1.8,3-1.8,4.8
				c0,5.7,5.8,8.5,17.4,8.5h1h3h2c10.5,0,19,1,25.5,2.9c6.1,1.9,10.9,4.8,14.4,8.7c3.5,3.9,5.3,8.4,5.3,13.3c0,8-3.7,14.3-11.1,18.9
				c-7.4,4.6-17.5,7-30.1,7c-12.7,0-22.6-2.2-29.8-6.6c-7.2-4.4-10.8-10.4-10.8-18.1c0-8.9,5-15.2,15-18.9
				c-9-3.5-13.5-8.8-13.5-15.8c0-7.7,4.5-12.9,13.5-15.8c-2.9-3.8-4.3-8.3-4.3-13.5c0-7.5,2.9-13.6,8.7-18.6S841-5.6,849.7-5.6
				L849.7-5.6z M850.4,69c-8.8,0-15.7,1.3-20.8,3.9c-5.1,2.6-7.6,6.2-7.6,10.7c0,4.5,2.5,8,7.4,10.6c5,2.6,11.6,3.9,20,3.9
				c8.8,0,15.8-1.3,20.9-3.9c5.1-2.6,7.7-6.1,7.7-10.5c0-4.6-2.4-8.2-7.3-10.8C865.8,70.3,859.1,69,850.4,69L850.4,69z M850.2,5.3
				c-4.8,0-9,1.4-12.4,4.3c-3.4,2.9-5.3,6.4-5.6,10.7v1c0,4.8,1.7,8.7,5,11.7s7.6,4.4,12.9,4.4c5.5,0,10-1.5,13.5-4.4
				s5.2-6.7,5.2-11.3c0-4.7-1.8-8.6-5.3-11.7C859.9,6.8,855.5,5.3,850.2,5.3L850.2,5.3z"/>
			<path id="Shape_7_" class="st7" d="M972.7,31.1c0,4.2-0.3,6.7-0.8,7.6c-0.6,0.9-2.1,1.4-4.8,1.4h-52.5c-1.4,0-2.4,0.2-2.8,0.6
				c-0.4,0.4-0.7,1-0.7,1.9c0,8.2,2.5,15.1,7.4,20.5c5,5.5,11.1,8.2,18.5,8.2c4.8,0,9.3-1.3,13.3-3.9c4-2.6,6.6-6,7.8-10l1.5-4.8
				c0.8-2.6,2.6-3.9,5.4-3.9c4.1,0,6.1,2.1,6.1,6.2c0,7.1-3.6,13.5-10.9,19c-7.3,5.5-15.5,8.3-24.8,8.3c-11.6,0-20.8-3.9-27.6-11.6
				c-6.8-7.7-10.2-18.1-10.2-31.2c0-13.4,3.6-24.2,10.9-32.5c7.3-8.3,16.7-12.5,28.4-12.5c10.3,0,18.9,3.5,25.6,10.4
				C969.4,11.7,972.7,20.4,972.7,31.1L972.7,31.1z M912.8,26.8c0,1.5,1.2,2.3,3.6,2.3h39.5c2.3,0,3.5-0.8,3.5-2.3
				c0-5.8-2.2-10.8-6.6-15.1c-4.4-4.3-9.6-6.4-15.5-6.4c-6.2,0-11.8,2.2-16.8,6.7C915.3,16.4,912.8,21.3,912.8,26.8L912.8,26.8z"/>
		</g>
	</g>
</g>
</svg>
