<?xml version="1.0" encoding="utf-8"?>
<!-- Generator: Adobe Illustrator 19.0.0, SVG Export Plug-In . SVG Version: 6.00 Build 0)  -->
<svg version="1.1" id="Layer_1" xmlns="http://www.w3.org/2000/svg" xmlns:xlink="http://www.w3.org/1999/xlink" x="0px" y="0px"
	 width="686px" height="161px" viewBox="248 -36 686 161" style="enable-background:new 248 -36 686 161;" xml:space="preserve">
<style type="text/css">
	.st0{fill:#090909;}
	.st1{fill:#060606;}
	.st2{fill:#070707;}
</style>
<title>vector_h-trans</title>
<g>
	<g>
		<path class="st0" d="M861.2,35c1.8-4.9,3.6-9.8,5.5-14.6c1.4-3.7,2.7-7.4,8.1-6.3c5.3,1.1,8.7,3.7,8.7,9.5c0,5.6,0,11.3,0.8,17.2
			c4.5-5.5,5-12.7,7.9-18.9c1.8-3.9,2.2-9.2,8.8-7.6c6.1,1.4,10.1,3.9,9.6,11.4c-0.6,9.5-0.3,19.1-0.1,28.6c0.1,2.9,1,5.8,1.7,8.7
			c0.5,2.2,1.8,3.9,4.2,4c2.5,0.1,3.5-1.8,4.5-3.7c1.8-3.3,0.9-7.8,4.3-10.5c3.6,8.8-0.4,19.8-7.9,22.3c-7.1,2.3-14.8-3.2-17-13
			c-2.2-9.8-2.2-20-2.6-30.2c-5.6,9.7-7.4,20.4-8.7,31.2c-0.4,2.9,1.4,7-3.8,7.6c-4.9,0.5-8-1.8-9.1-6.5c-2.5-9.9-2.8-20-3.4-30.2
			c-0.1-1-0.2-2.1-0.4-5.2c-7.5,12.8-9.3,24.8-10,37.3c-0.2,3.4,2.2,8.5-3.8,9.4c-5.3,0.8-10.1-0.2-11.1-7
			c-10.1,10.5-16.8,9.5-25-3.7c-4.1,5.2-8.6,9.9-15.5,10.7c-7.1,0.8-11.4-3.6-15.6-8.4c-3.8,5.1-7.7,9.9-14.8,8
			c-7.8-2.1-11.8-8.1-12.8-15.5c-1.1-8.3-1-16.6,0.7-24.9c0.4-2.1,2.4-5.3-0.7-5.9c-2.9-0.6-7.3-1.9-9.1,3
			c-5,13.1-11.6,25.4-20.8,36.2c-2.1,2.5-1.2,5.7-1.1,8.7c0.3,9.9,0.2,19.7-2.8,29.2c-2.2,6.7-6.3,11.3-12.9,13.7
			c-7.4,2.7-13.8,0.6-18.6-4.8c-4.7-5.2-4-11.6-0.8-17.5c4-7.5,10.7-12.7,16.6-18.6c1.7-1.7,4.9-2.6,4-7.4
			c-9.9,5.4-19.7,7.7-26.9-4.5c-3.9,4.5-7.5,9.7-14.2,8.9c-6.3-0.7-9.9-4.9-11.8-10.9c-13.7,15.7-24.5,14.6-34-2.9
			c-4.7,6.2-7.6,15.6-17.6,13.6C603,73,602.2,63.3,599.9,54.5c-2.1,3.3-3.8,6.3-5.9,9.2c-8.2,11.3-22,15.2-34.1,10
			c-4-1.7-5.8-4.3-3.6-8.3c1.9-3.3,4.3-5.6,8.5-2.2c3.1,2.5,7.1,5.6,10.9,1c3.2-3.9,2.4-8.3,0-12.5c-0.6-1-1.2-2-2-3
			c-8.1-10.2-8.5-10.1-15.1,1.1c-4.5,7.7-8.4,15.9-15.3,21.8c-8,6.9-14.3,4.5-16.5-5.7c-3-13.3,0.8-26.6-0.1-40.8
			c-5.4,2.7-7,7.6-9.2,11.8c-5,9.9-8.1,20.4-10,31.3c-0.6,3.4-0.2,7.5-5.6,7.4c-5.5-0.1-7.3-3.3-7.3-8.1c0-16.4,0-32.8,0.1-49.2
			c0-2.4,0-5.2,3.8-4.2c3.3,0.8,7.5,0.4,7.5,5.7c-0.1,7.4,0,14.7,0,24.5c4.5-8.7,6.1-16.4,10.6-22.5c3.7-4.9,7.5-9.4,14.7-7.1
			c7.4,2.3,8.7,7.6,8.3,14.6c-0.6,9.8-1.6,19.6-0.3,29.5c0.2,1.3,0.6,3.2,1.6,3.8c2,1.3,3.4-0.6,4.3-2c4.7-7.6,9.1-15.3,13.7-23
			c1.4-2.3-0.2-3.8-1-5.7c-2-5.1-1.3-10,2.3-14.2c3.6-4.3,8.7-6.8,13.4-4c5.3,3.2,2.7,8.9-0.1,12.5c-3.9,5-2,7.3,2.2,10.3
			c7.4,5.1,14.8,10.5,14.5,21.8c6.9-5.7,9.3-12.7,9.9-20.5c0.3-4.5-0.2-9,0.2-13.4c0.7-8.3,0.9-15.9-11.2-13.9
			c-2.1,0.3-4.5-0.3-4.1-3.3c0.4-2.5,0.5-5.7,4-6.1c2.3-0.2,4.8-0.1,7.1,0.3c3.6,0.5,4.8-0.9,4.5-4.4c-0.2-2.4-0.1-4.8,0.2-7.1
			c0.5-3.5-0.7-8.4,5.9-7.4c5.1,0.8,9.6,2,8.2,8.6c-2,9.5,1.9,12.7,11.1,11.6c2.4-0.3,6.6-1.3,6.8,3.4c0.2,5.1-3.6,5.9-7.4,5.2
			c-10.3-1.9-12.4,3.1-12,12.1c0.4,11.6-1.1,23.2,0.4,34.8c0.4,2.8,0.7,6.6,4,7.4c3.7,0.9,5.7-2.5,7.6-5.1c3.6-5,4.7-10.8,4.9-16.9
			c0.4-8.8,2.2-17.2,7.7-24.3c5.5-7.1,12.8-8.5,20.4-3.9c2.1,1.3,2.8,2.5,6.1,0.3c4.9-3.5,11,1.3,10.9,7.7
			c-0.2,11.9-1.9,23.8,0,35.7c0.6,3.9,0.7,8.9,5.7,8.6c4.7-0.2,6.4-5.2,6.7-9.3c0.5-5.9,0-11.9,0.1-17.9c0.2-7.3,2.6-14,6.6-20
			c2.7-4,6.2-7.4,11.5-7.5c7.4-0.1,14,5.1,22.1,2.8c3.2-0.9,4.5,3.4,4.4,7.2c-0.3,11.3-0.1,22.6-0.1,34c9.2-7.6,13.8-22,11.1-32.7
			c-1.3-5.3-0.4-10.6,5.6-12.5c5.4-1.7,8.2,0.8,8.9,6.6c0.5,4.6,4.4,1.7,6.4,1.5c14.1-2.1,15.8-0.4,12.6,13.7
			c-2,8.8-3.4,17.6-1.3,26.5c0.8,3.6,2.1,7.9,6.1,7.7c4.7-0.3,6.6-4.6,6.5-9.2c-0.2-9.2-1.3-18.4,1.6-27.5c1.3-4.3,3.2-8.4,5.9-11.9
			c3.2-4.2,7.6-7.1,13.1-6.1c6.1,1.1,11.4,4.8,18.5,2.5c3.7-1.2,5.9,3.2,5.7,8c-0.6,11.9-2,23.8-0.2,35.7c0.5,3.6,0.6,8,4.8,8.6
			c4.2,0.6,5.6-3.7,7.1-6.9c1.7-3.8,2.6-7.8,2.6-12.1c-0.2-9.2,0-18.5,0.2-27.7c0.1-2.9-1.4-7.3,4.3-6.6c4,0.5,8.7,0.2,8.2,6.7
			c-0.3,4.6-0.1,9.3-0.1,13.9C860.5,34.9,860.9,34.9,861.2,35z M642.7,44.9c0.4,4.7,0.4,9.6,1.4,14.2c0.8,3.6,2.1,7.9,7,8.1
			c4.1,0.2,6.6-2.8,8-6.2c4.4-10.5,5.4-21.3,2.2-32.3c-1-3.3-3.1-6-6.8-6.3c-3.6-0.3-6,2.2-7.7,5.2C643.7,33,643.4,38.9,642.7,44.9z
			 M720.3,39.1c-0.1-1,0.1-3.8-0.5-6.4c-0.9-4.3-1.7-9.6-7.2-10.1c-5.7-0.6-8.3,4.1-9.8,8.7c-3.2,9.5-3.3,19.3-1,29
			c0.8,3.2,2.1,6.5,6.1,6.9c4.2,0.4,6.6-2.5,8.2-5.7C719.1,54.9,720.4,47.9,720.3,39.1z M800.6,48.7c0.3,2.1,0.4,6.6,1.4,11
			c0.8,3.4,2.1,7.2,6.5,7.6c4.1,0.4,6.6-2.5,8.1-5.9c4.7-10.4,5.4-21.2,2.4-32.3c-0.9-3.4-3-6.1-6.5-6.6c-4.1-0.5-6.6,2.3-8.3,5.6
			C801.1,33.8,801,40.1,800.6,48.7z M721,81.6c-6.2,6.1-11.3,11.3-14.6,18c-2,4-3.6,8.3-0.7,12.5c1.4,2,3.6,3.2,6.2,2.6
			c5.4-1.3,7.4-5.9,8.1-10.6C721.1,97.3,722.7,90.4,721,81.6z M719.3,72.8c0.5-0.9,1.2-1.6,1.2-2.2c0-0.7-0.7-1.3-1.1-2
			c-0.6,0.8-1.3,1.5-1.6,2.4C717.7,71.4,718.7,72,719.3,72.8z"/>
		<path class="st1" d="M323.5-34.8c13.3,0.5,26.8-1.5,40,1.6c15.1,3.6,26.4,15.3,28.2,30.8c2.9,24.9,2.9,49.9,0.1,74.8
			c-2.1,18.6-14.9,30.8-33.5,32.5c-23.2,2.1-46.4,2-69.6,0c-18.3-1.6-31-13.4-33.3-31.7c-3.1-24.6-2.9-49.4-0.2-74
			c2.3-20.8,17-33.3,38-34.1C303.2-35.1,313.3-34.8,323.5-34.8z M323.7-22.1c-9.8,0-19.7-0.3-29.5,0.1c-16.2,0.5-26.5,9-27.3,24.9
			c-1.1,21.7-1,43.5,0,65.3c0.7,15.1,9.2,23,24.6,24.5c21.4,2.1,42.9,2.2,64.3-0.1c14.9-1.5,22.5-8.4,23.9-23
			c2.1-22.6,2.2-45.3,0-67.9c-1.5-15.3-11-23.1-26.5-23.6C343.4-22.4,333.5-22.1,323.7-22.1z"/>
		<path class="st1" d="M466.3,86.3c5.3-31.4,2-62.9,3.4-94.7c-13,6.3-16.7,26-9.2,44.8c-8.9,0.1-15.5-6.9-15.9-17
			c-0.5-12.6,11.1-31.1,22.8-36.3c8.3-3.7,15,0.3,15,9.3c0.1,22.4,0.2,44.7-0.1,67.1C482.2,74.7,476.9,83.2,466.3,86.3z"/>
		<path class="st0" d="M719.3,72.8c-0.7-0.8-1.6-1.4-1.5-1.8c0.3-0.9,1-1.6,1.6-2.4c0.4,0.7,1.1,1.3,1.1,2
			C720.5,71.2,719.8,71.9,719.3,72.8z"/>
		<path class="st2" d="M323.9,71.6c-20,0.2-36.3-16-36.3-36.1c0-19.8,15.8-36,35.4-36.4c19.7-0.3,36.3,16.3,36.4,36.3
			C359.3,55.3,343.5,71.4,323.9,71.6z M300.2,35.1c-0.2,13.5,10,24,23.2,24c12.7,0,23.1-10.3,23.3-23.1c0.2-13.1-10.4-24-23.4-24.1
			C310.8,11.8,300.4,22.2,300.2,35.1z"/>
		<path class="st0" d="M368.7-1.4C368.3,3.8,365,6.4,360,6c-4.7-0.4-7.6-3.7-7.5-8.3c0.1-5.1,3.1-8.2,8.5-8
			C366.4-10.1,368.8-7,368.7-1.4z"/>
	</g>
</g>
</svg>
