<?xml version="1.0" encoding="utf-8"?>
<!-- Generator: Adobe Illustrator 19.0.0, SVG Export Plug-In . SVG Version: 6.00 Build 0)  -->
<svg version="1.1" id="Layer_1" xmlns="http://www.w3.org/2000/svg" xmlns:xlink="http://www.w3.org/1999/xlink" x="0px" y="0px"
	 width="686px" height="161px" viewBox="301 -41 686 161" style="enable-background:new 301 -41 686 161;" xml:space="preserve">
<style type="text/css">
	.st0{fill:#010101;}
	.st1{fill:#C72507;}
	.st2{fill:#FCFCFC;}
</style>
<title>vector_h-trans</title>
<g>
	<path class="st0" d="M696.2,51c0-15.9,0.1-31.9-0.1-47.8c0-3.3,0.6-4.6,4.2-4.8c16.9-0.9,33.8-1.8,50.8-0.4c3.8,0.3,7.4,1.1,11,2.2
		c9.6,2.8,14.4,9.8,16.1,19.2c1.4,8.1,1.6,16.3,0.2,24.4c-2.3,14.4-9,20.7-23.6,22.5c-8.7,1.1-17.5,1.1-26.2,0
		c-3.1-0.4-4.3,0.1-4.2,3.7c0.3,10.1,0,20.2,0.2,30.4c0,2.4-0.6,3-3,3c-7.5-0.2-15-0.2-22.5,0c-2.4,0.1-3-0.6-3-3
		C696.3,84,696.2,67.5,696.2,51z M724.6,32.1c0,4.1,0,8.2,0,12.3c0,1.3,0.1,2.2,1.8,2.1c5.6-0.3,11.1,0.5,16.7-0.6
		c4.5-0.9,6.5-2.9,7.3-7.4c0.7-4.1,0.8-8.1,0-12.2c-0.9-4.9-3.1-7.1-8-7.8c-5.2-0.8-10.4-0.3-15.7-0.5c-1.7-0.1-2.2,0.6-2.1,2.2
		C724.7,24.2,724.6,28.1,724.6,32.1z"/>
	<path class="st0" d="M627.9-1.2c13.8,0,27.5,0.1,41.3-0.1c2.4,0,3.1,0.7,3,3c-0.2,5.5-0.2,10.9,0,16.4c0.1,2.1-0.5,2.7-2.7,2.7
		c-8-0.1-15.9,0.1-23.9-0.1c-2.9-0.1-3.8,0.5-3.8,3.7c0.2,25.3,0,50.5,0.2,75.8c0,2.7-0.7,3.4-3.3,3.3c-7.3-0.2-14.6-0.2-21.8,0
		c-2.6,0.1-3.4-0.6-3.4-3.3c0.1-25.1,0-50.3,0.2-75.4c0-3.4-0.9-4.1-4.2-4c-7.7,0.2-15.5,0-23.2,0.1c-2.3,0-2.8-0.7-2.8-2.9
		c0.1-5.5,0.2-10.9,0-16.4c-0.1-2.2,0.6-2.9,2.8-2.8C600.1-1.1,614-1.2,627.9-1.2z"/>
	<path class="st0" d="M494.5,41.1c0-13,0.1-25.9-0.1-38.9c0-2.5,0.4-3.6,3.3-3.5c7.4,0.2,14.8,0.2,22.2,0c2.6-0.1,3.1,0.7,3.1,3.2
		C523,25.1,523,48.3,523,71.5c0,7.5,1.7,9.1,9.3,9.2c10.1,0,20.3,0.1,30.4-0.1c2.6,0,3.2,0.8,3.3,3.2c0.1,5.2,0.5,10.5,0.9,15.7
		c0.1,1.8-0.1,2.7-2.2,2.9c-16.3,1.2-32.7,2.1-49.1,1.2c-13.6-0.8-21-9.6-21.1-24.3C494.4,66.6,494.5,53.8,494.5,41.1z"/>
	<path class="st1" d="M785.9,69.9c0,4,0,7.9,0,11.8c0,11.3-0.1,22.5,0.1,33.8c0,2.9-0.7,3.5-3.5,3.5c-95.8-0.1-191.6-0.1-287.4-0.1
		c-3.4,0-6.8,0-10.2,0c-1.2,0-2.2,0.1-2.2-1.7c0-1.7,0.8-1.8,2.1-1.7c0.8,0,1.6,0,2.4,0c80.9,0,161.8,0,242.7,0
		c2.6,0,4.4-0.7,6.4-2.4c15.7-14,31.5-27.9,47.2-41.9C784,70.7,784.5,69.8,785.9,69.9z"/>
	<path class="st2" d="M724.6,32.1c0-4,0.1-8,0-11.9c0-1.6,0.5-2.2,2.1-2.2c5.2,0.2,10.5-0.3,15.7,0.5c4.9,0.7,7.1,2.9,8,7.8
		c0.7,4.1,0.7,8.1,0,12.2c-0.8,4.5-2.8,6.5-7.3,7.4c-5.5,1.1-11.1,0.3-16.7,0.6c-1.7,0.1-1.8-0.8-1.8-2.1
		C724.6,40.3,724.6,36.2,724.6,32.1z"/>
</g>
<path class="st0" d="M691.5-20.2c0-1.7-0.1-3.4,0-5.1c0.1-1-0.6-2.5,0.5-3c1.6-0.7,0.8,1.2,1.4,1.7c0.9,0.8,1.4-0.3,2-0.7
	c3.1-1.6,6.2-3.1,9,0.6c0.7,1,1.2,0.2,1.7-0.1c1.5-1,3.1-1.8,5-2c3.1-0.2,4.9,1.1,5.1,4.2c0.2,3.7,0.1,7.5,0.1,11.2
	c0,0.9-0.1,1.8-1.3,1.7c-1.1-0.1-0.9-1-0.9-1.6c0-3.1,0-6.3,0-9.4c0-2.2-0.4-4.2-3.2-4.3c-2.5-0.1-6,2.4-6.1,4.5
	c-0.1,2.8,0,5.5-0.1,8.3c0,0.9,0.7,2.5-1.1,2.4c-1.6-0.1-1-1.7-1-2.6c-0.1-2.8-0.1-5.5,0-8.3c0-2.2-0.1-4.2-3-4.3
	c-2.6-0.1-5.9,2.4-6,4.6c-0.1,3,0,6,0,9c0,0.9-0.1,1.8-1.3,1.7c-1-0.1-0.9-0.9-0.9-1.6C691.5-15.7,691.5-17.9,691.5-20.2z"/>
<path class="st0" d="M593.4-18.5c0,1.2,0.1,2.4,0,3.6c-0.1,1,0.6,2.5-0.6,3c-1.6,0.6-0.9-1.1-1.3-1.8c-0.5-0.9-1,0-1.4,0.2
	c-1.3,0.6-2.6,1.4-3.9,1.8c-2.2,0.7-4.4,0.6-5.9-1.4c-1.5-2-1.3-4.4-0.6-6.6c0.7-2.1,2.9-2.3,4.9-2.4c1.3,0,2.7,0.1,4,0
	c1-0.1,2.6,0.7,2.6-1.4c0-1.5-0.3-2.9-2.1-3.4c-2.3-0.6-4.6,0-6.8,0.1c-0.7,0-1.9,0.6-2.1-0.6c-0.2-1.2,1.1-0.9,1.8-1.2
	c0.1,0,0.2,0,0.4-0.1C594.1-29.7,593.5-28.1,593.4-18.5z M587-20.2c-2.5,0.3-5.6-0.9-5.6,3.3c0,2.4,0.9,3.6,3.4,3.5
	c3.2-0.1,6.2-2.3,6.3-4.6C591.3-22,588.2-19.3,587-20.2z"/>
<path class="st0" d="M665.4-14.1c-1.6,0.7-3,1.6-4.6,2.2c-2.3,0.9-4.7,0.9-6.3-1.1c-1.6-1.9-1.5-4.3-0.7-6.5
	c0.9-2.4,3.1-2.4,5.1-2.5c1.1,0,2.2,0.1,3.3,0c1.2-0.2,3.2,1,3.2-1.6c0-2-1-3.3-3.1-3.3c-2.2,0-4.3,0.2-6.5,0.3
	c-0.5,0-1.1-0.1-1.8-0.2c2-1.8,8.6-2.6,11-1.5c2.9,1.3,2.6,4.1,2.7,6.6c0.1,2.5,0.1,5.1,0,7.6c0,0.9,0.5,2.3-0.8,2.5
	C665.2-11.6,666-13.5,665.4-14.1z M661.4-20.2c-2.7,0.2-6-0.9-5.8,3.5c0.1,2.2,1,3.3,3.3,3.3c3.4-0.1,6.6-2.4,6.5-4.8
	C665.4-21.8,662.5-19.4,661.4-20.2z"/>
<path class="st0" d="M634.3-23.6c0-3.1,0.1-6.3-0.1-9.4c-0.1-2.3,0.8-3,2.9-2.9c1.6,0.1,3.1,0,4.7,0c8.4-0.5,8.8,5.7,7.1,11.5
	c-0.8,2.8-3.5,3-5.9,3.1c-6.4,0.2-6.4,0.2-6.5,6.8c0,0.5,0,1,0,1.4c0,0.8-0.1,1.5-1.1,1.5c-1,0-1.1-0.7-1.1-1.5
	C634.3-16.6,634.3-20.1,634.3-23.6z M636.6-28.1c0.6,1.6-2,5.3,3.3,5c6.1-0.4,7.6-1.2,7.5-5.7c-0.1-4.2-1.4-4.7-6.7-5.3
	C635.7-34.5,636.4-31.5,636.6-28.1z"/>
<path class="st0" d="M735.2-12.2c-3.4,1.2-7,1.5-10.5,0.1c-3.2-1.3-3.4-4.5-3.5-7.4c-0.3-7.5,3-10.5,10-9.2c3.1,0.6,4.5,2.6,4.4,5.7
	c-0.1,3.1-2,4.1-4.9,4c-1.2-0.1-2.5-0.2-3.6,0.1c-1.2,0.3-3.3-1.3-3.5,1.2c-0.1,2.1,1,3.7,3.2,4.3c2.3,0.5,4.6,0.2,6.9,0.1
	c0.4,0,0.9,0.1,1.3,0.2C735.1-12.9,735.1-12.6,735.2-12.2z M727.9-20.7c2.3-0.4,5.5,1.1,5.5-2.9c0-3-2.3-3.4-4.6-3.4
	c-3.3,0-5.4,1.8-5.1,4.7C723.9-19.1,726.7-21.6,727.9-20.7z"/>
<path class="st0" d="M513.2-12.8c-6.2,4.3-13.3,1.2-14-5.9c-0.8-7.6,2.5-11,9.6-10c3.3,0.5,4.9,2.3,4.8,5.6
	c-0.1,3.4-2.2,4.2-5.1,4.1c-1.1,0-2.2-0.2-3.2,0c-1.2,0.3-3.3-1.2-3.5,1.2c-0.2,2.1,1,3.7,3.1,4.3c2.3,0.6,4.6,0.2,6.9,0.1
	C512.2-13.5,512.9-13.6,513.2-12.8z M505.8-20.6c2.2-0.6,5.4,1.3,5.5-2.9c0.1-3.1-2.2-3.4-4.4-3.5c-3.4-0.1-5.3,1.6-5.2,4.6
	C501.8-19,504.7-21.7,505.8-20.6z"/>
<path class="st0" d="M621.5-28.3c-0.1,0.3-0.2,0.7-0.4,1c-1.8,2.1-4.9,4.2-5,6.3c0,2.2,3,4.4,4.6,6.7c0.5,0.7,1.5,1.3,1.3,2.4
	c-1.5,0.8-2.2-0.2-2.9-1.2c-1.4-2-2.9-3.9-4.3-5.8c-0.7-1-1.5-1.7-2.7-1.3c-1.4,0.4-0.7,1.6-0.7,2.5c-0.1,1.4,0,2.9,0,4.3
	c0,0.8,0.3,1.9-1.1,1.8c-1.3,0-1.1-1-1.1-1.9c0-5,0-9.9,0-14.9c0-2.1,0-4.1,0-6.2c0-0.8,0.1-1.4,1.1-1.4c1.1,0,1.1,0.7,1.1,1.5
	c0,3.4,0,6.8,0,10.1c0,0.7-0.6,1.8,0.5,2.2c0.9,0.3,1.9,0.2,2.6-0.7c1.3-1.6,2.7-3.1,4.1-4.6C619.4-28.4,620.2-28.9,621.5-28.3z"/>
<path class="st0" d="M676-7.1c1.6-1.7,3.1-3,1.4-6c-2.4-4.1-3.7-8.9-5.4-13.4c-0.3-0.7-1.2-1.6,0.2-2c1-0.4,1.5,0.5,1.8,1.3
	c1.5,4,3.1,8.1,4.6,12.1c0.2,0.4,0.4,0.8,0.9,2c1.9-4.9,3.4-9.1,5-13.2c0.4-1,0.6-2.8,2.2-2.2c1.6,0.6,0.1,1.9-0.2,2.7
	c-2,5.4-4.1,10.8-6.4,16.1"/>
<path class="st0" d="M740.5-20.1c0-2.3,0-4.6,0-6.9c0-0.6,0-1.3,0.7-1.5c0.7-0.2,1.2,0.1,1.2,0.9c0,2.1,0.9,1.2,1.9,0.7
	c1-0.6,2.1-1.2,3.2-1.6c4.7-1.5,7.2,0.2,7.3,5.1c0,3.3,0,6.5,0,9.8c0,0.8,0.3,1.9-1.1,1.8c-1.3,0-1.1-1-1.1-1.9c0-3.3,0.1-6.5,0-9.8
	c-0.1-3.4-1.3-4.2-4.6-3.4c-4.3,1.1-5.3,2.3-5.3,6.7c0,2.3,0,4.6,0,6.9c0,0.8-0.1,1.5-1.1,1.5c-0.9,0-1.1-0.7-1.1-1.5
	C740.5-15.5,740.5-17.8,740.5-20.1z"/>
<path class="st0" d="M571.9-22.9c0,3,0,6,0,9c0,0.9,0.4,2.2-1.1,2.2c-1.5,0-1.2-1.2-1.2-2.1c0-5.2-0.2-10.4,0.1-15.5
	c0.2-3.4-0.6-4.9-4.2-4.4c-1.2,0.2-3.5,1-3.6-0.8c0-2.1,2.3-1,3.5-1c4.1-0.2,8.2-0.1,12.3,0c0.9,0,2.2-0.4,2.2,1.1
	c0,1.3-1.2,0.8-2,0.9c-5.9,0.4-5.9,0.4-5.9,6.5C571.9-25.8,571.9-24.4,571.9-22.9z"/>
<path class="st0" d="M781.1-27c-1.3,0-2.7-0.1-4,0c-1.5,0.1-2.5,0.8-2.5,2.5c0,1.6,0.8,2.5,2.2,2.8c1.8,0.4,3.6,0.6,5.3,1
	c2.7,0.6,4.2,2,4,5.1c-0.2,3-2,4-4.5,4.1c-2.4,0.1-4.8-0.1-7.2-0.1c-0.7,0-1.6-0.1-1.4-1.2c0.1-0.8,0.9-0.6,1.4-0.6
	c2.2,0,4.3,0,6.5,0c1.6,0,2.9-0.5,3-2.4c0.1-1.8-0.8-2.6-2.4-2.9c-1.8-0.3-3.5-0.8-5.3-1.1c-2.8-0.5-3.9-2.3-3.7-4.9
	c0.1-2.7,1.7-4.1,4.5-4.1c2.4,0,4.8,0.1,7.2,0.1c0.6,0,1.4,0.1,1.4,0.8c0,1-0.8,1-1.6,0.9c-1-0.1-1.9-0.1-2.9-0.2
	C781.1-27.1,781.1-27,781.1-27z"/>
<path class="st0" d="M546.2-28.8c1.4,0.5,4.7-0.7,4.6,1.1c-0.1,1.9-3.2,0.3-5,0.6c-0.8,0.2-1.7,0-2.5,0.1c-1.5,0.1-2.9,0.4-3.1,2.4
	c-0.1,2,1,2.8,2.7,3.2c1.8,0.3,3.6,0.6,5.3,1c2.4,0.6,3.6,2.1,3.5,4.7c-0.1,2.7-1.6,4-4,4.2c-2.5,0.2-5.1,0-7.6-0.1
	c-0.7,0-1.6-0.1-1.5-1.1c0.2-1,1.1-0.7,1.8-0.7c2.2,0,4.3,0,6.5-0.1c1.5,0,2.5-0.7,2.6-2.4c0.1-1.6-0.6-2.5-2.2-2.8
	c-1.8-0.4-3.5-0.8-5.3-1.1c-3-0.5-4.4-2.3-4-5.4c0.3-2.9,2.3-3.7,4.8-3.7C543.9-28.8,544.8-28.8,546.2-28.8z"/>
<path class="st0" d="M482.5-25.2c0-2.9,0-5.8,0-8.7c0-0.9,0-1.8,1.2-1.8c1.2,0,1.1,1,1.1,1.9c0,5.4,0.1,10.9,0,16.3
	c-0.1,3,1.1,4.2,4,4c2-0.2,4.1,0,6.2,0c0.5,0,1,0,1.1,0.6c0.1,0.8-0.4,1-1.1,1.1c-3.1,0.1-6.3,0.5-9.4,0c-2.4-0.4-3.1-2.2-3.1-4.2
	C482.4-19.1,482.5-22.2,482.5-25.2C482.5-25.2,482.5-25.2,482.5-25.2z"/>
<path class="st0" d="M758.4-27.4c2.8-0.8,4-2.1,3.5-4.7c-0.1-0.7,0-1.5,1-1.5c1,0,1.2,0.7,1.1,1.5c-0.5,3.1,0.7,4.1,3.7,3.6
	c0.8-0.1,1.9-0.3,1.8,1c0,1-1,0.9-1.7,0.8c-3.7-0.8-4.1,1.3-3.8,4.2c0.2,1.5,0.1,3.1,0,4.7c-0.2,2.8,0.3,4.8,3.8,4.4
	c0.6-0.1,1.3-0.1,1.4,0.7c0.1,1-0.7,1-1.4,1.2c-3.7,0.8-5.8-0.8-6-4.6c-0.1-2.3-0.1-4.6,0-6.9C761.9-25.2,762.1-27.4,758.4-27.4z"/>
<path class="st0" d="M516.2-27.5c3-0.7,4.1-2.2,3.5-4.9c-0.1-0.6,0.1-1.2,0.9-1.2c1,0,1.4,0.6,1.2,1.4c-0.7,3.5,1.1,4.1,4,3.7
	c0.7-0.1,1.6,0,1.7,0.9c0,0.9-0.9,1-1.6,0.9c-3.8-0.7-4.4,1.3-4,4.4c0.2,1.5,0.1,3.1,0,4.7c-0.2,2.7,0.4,4.6,3.7,4.2
	c0.7-0.1,1.6-0.1,1.5,1c0,0.7-0.7,0.8-1.3,0.9c-3.6,0.9-5.9-0.8-6-4.5c-0.1-1.9,0-3.9,0-5.8C519.7-24.2,520.8-27.3,516.2-27.5z"/>
<path class="st0" d="M599.1-25c0-3,0-6,0-9c0-0.8-0.3-1.8,1-1.9c1.6-0.1,1.2,1.2,1.2,2c0,5.3,0,10.6,0,15.9c0,2.3-0.3,4.8,3.3,4.6
	c0.5,0,0.9,0.3,1,0.8c0.1,0.7-0.4,1-1.1,1.2c-2.6,0.7-5.1-0.9-5.3-3.8C599-18.5,599.2-21.8,599.1-25C599.2-25,599.2-25,599.1-25z"/>
<path class="st1" d="M534-36c1,0,1.9,0,2.4,1.1c0.7,1.5-1.3,8.7-2.6,9.5c-0.6,0.4-1.1,0.1-1.7-0.1c-0.9-0.4-0.9-1.1-0.6-1.8
	c0.4-1.4,0.6-2.4-0.4-3.9C529.7-33.2,531.6-36,534-36z"/>
</svg>
