<?xml version="1.0" encoding="utf-8"?>
<!-- Generator: Adobe Illustrator 19.0.0, SVG Export Plug-In . SVG Version: 6.00 Build 0)  -->
<svg version="1.1" id="Layer_1" xmlns="http://www.w3.org/2000/svg" xmlns:xlink="http://www.w3.org/1999/xlink" x="0px" y="0px"
	 width="686px" height="161px" viewBox="248 -36 686 161" style="enable-background:new 248 -36 686 161;" xml:space="preserve">
<style type="text/css">
	.st0{fill:#006699;}
	.st1{fill:#010101;}
</style>
<title>vector_h-trans</title>
<g id="jtSj9I.tif">
	<g>
		<path class="st0" d="M892.9-34c0.9,0.3,1.8,0.5,2.6,0.8c4.6,1.8,7,5.2,7.4,10.2c0,0.4,0,0.8,0,1.2c0,43.8,0,87.6,0,131.5
			c0,6.1-3.4,10.4-9,11.8c-1,0.2-2,0.2-2.9,0.2c-43.6,0-87.2,0-130.7,0c-7.1,0-11.9-4.8-11.9-11.9c0-43.9,0-87.7,0-131.6
			c0-6.7,4.7-11.3,9.8-11.9c0.1,0,0.2-0.1,0.4-0.2C803.2-34,848.1-34,892.9-34z M831.4,35.8c0-3.1,0-5.9,0-8.7c0-0.8-0.1-1.2-1-1.1
			c-7.1,0-14.2,0-21.4,0c-0.8,0-1,0.3-1,1c0.1,1.8,0.1,3.6,0.1,5.3c0,20.8-0.1,41.6-0.2,62.3c0,1.3,0.3,1.6,1.6,1.6
			c6.7-0.1,13.5-0.1,20.2,0c1.3,0,1.6-0.3,1.6-1.6c-0.1-12.9,0-25.7,0-38.6c0-3.9,1.4-7.2,4.2-9.9c6.6-6.4,17.1-3.6,19.5,5.3
			c0.7,2.6,0.9,5.3,0.9,7.9c0,11.8,0,23.6,0,35.5c0,1.2,0.3,1.5,1.5,1.4c6.8-0.1,13.6-0.1,20.3,0c1.2,0,1.6-0.3,1.6-1.5
			c-0.1-12.8,0-25.5,0-38.3c0-3.6-0.2-7.2-1-10.8c-1.6-7.1-4.7-13.2-11-17.3c-5.6-3.6-11.8-4.5-18.3-3.9c-6,0.6-11,3.2-14.9,7.7
			C833.2,33.4,832.5,34.5,831.4,35.8z M795.2,61.3c0-11.3,0-22.6,0-33.8c0-1.2-0.3-1.5-1.5-1.5c-6.8,0.1-13.7,0.1-20.5,0
			c-1.1,0-1.5,0.2-1.5,1.5c0,22.5,0,45,0,67.5c0,1.1,0.3,1.4,1.4,1.4c6.8-0.1,13.6-0.1,20.3,0c1.3,0,1.7-0.2,1.7-1.7
			C795.2,83.5,795.2,72.4,795.2,61.3z M783.4,16.5c1-0.1,2.1-0.2,3.1-0.4c5.8-0.9,10-5.5,10.2-11.2c0.2-6-3.4-10.8-9.2-12.3
			c-2.2-0.6-4.4-0.6-6.6-0.2c-7.3,1.1-11.8,7.8-10,15C772.2,13,777.1,16.4,783.4,16.5z"/>
		<path class="st0" d="M315.5-5.5L315.5-5.5c0.1,0,0.1,0,0.1,0c0,0.4,0.1,0.9,0.1,1.3c0,33,0,66,0,99.1c0,0.4,0,0.9-0.1,1.3
			c0,0,0,0.1,0,0.1l-0.1,0C315.5,62.4,315.5,28.4,315.5-5.5z"/>
		<path class="st1" d="M701.5,29.5c0-0.5,0-1,0-1.6c0-10.7,0-21.4,0-32.1c0-1.1,0.2-1.5,1.4-1.5c6.8,0.1,13.7,0.1,20.5,0
			c1.2,0,1.5,0.3,1.5,1.5c0,27.6,0,55.1,0,82.7c0,5.5,0.2,11,0.6,16.5c0.1,1-0.1,1.3-1.2,1.3c-6.1-0.1-12.3,0-18.4,0
			c-0.9,0-1.1-0.2-1.2-1.1c-0.2-3.1-0.5-6.3-0.8-9.4c-0.6-0.1-0.7,0.3-0.9,0.6c-4.6,7-11.3,10.4-19.4,11.4
			c-14.4,1.7-27-6.3-32.3-19.5c-5.5-13.8-5.2-27.7,2.2-40.7c8.9-15.6,26.5-19.1,39.6-14.1C696.3,24.8,699.1,26.8,701.5,29.5z
			 M701.5,59.1c-0.1-2.8,0.3-5.7-0.2-8.4c-1-5.8-5.3-10.3-10.5-11.3c-6.3-1.3-12.1,1-15.5,6c-2.3,3.3-3.3,7-3.7,11
			c-0.5,5.8,0,11.5,3.1,16.6c3.1,5.2,8.8,7.7,15.1,6.8c5.4-0.8,9.8-4.9,11.2-10.5C701.8,65.9,701.4,62.5,701.5,59.1z"/>
		<path class="st1" d="M533.6,66.3c-1.8,2.3-3.6,4.6-5.4,6.8c-0.5,0.6-0.4,1.2-0.4,1.8c0,6.7,0,13.5,0,20.2c0,1-0.2,1.3-1.3,1.3
			c-6.9-0.1-13.8,0-20.8,0c-1,0-1.3-0.2-1.3-1.3c0-33.1,0-66.3,0-99.4c0-1,0.3-1.3,1.3-1.3c6.9,0,13.7,0.1,20.6,0
			c1.2,0,1.4,0.3,1.4,1.5c0,18.3,0,36.7,0,55c0,0.5,0,0.9,0,1.8c0.8-1.1,1.3-1.9,1.8-2.7c6.1-8.7,12.3-17.3,18.4-26
			c0.4-0.5,0.8-0.9,1.5-0.9c8.9,0,17.7,0,26.6,0c0.1,0,0.2,0.1,0.5,0.2c-0.6,0.6-1.1,1.2-1.6,1.8c-8,8.9-16.1,17.7-24.1,26.6
			c-0.7,0.8-0.8,1.3-0.1,2.2c9.6,13.6,19.3,27.3,28.9,40.9c0.3,0.4,0.6,0.9,0.9,1.3c-0.5,0.3-0.9,0.2-1.2,0.2c-8.7,0-17.4,0-26.1,0
			c-1,0-1.5-0.4-1.9-1.2c-5.5-9.2-11.1-18.3-16.6-27.5C534.3,67.3,534,66.8,533.6,66.3z"/>
		<path class="st1" d="M618.9,66.9c-7.6,0-15.1,0.1-22.7,0c-1.5,0-1.6,0.6-1.3,1.7c1.2,5.5,4.9,8.6,9.9,10.5c5.4,2.1,11,2,16.7,1.7
			c4.8-0.3,9.6-1.2,14.2-2.7c0.6-0.2,0.9-0.3,1.1,0.5c0.9,4.7,1.8,9.3,2.8,13.9c0.2,0.9-0.4,0.9-0.9,1c-4,1.6-8.2,2.6-12.4,3.2
			c-5.2,0.8-10.5,1.1-15.8,1c-7.2-0.2-14.1-1.5-20.5-5c-9.1-4.9-14.5-12.6-16.5-22.7c-2-9.9-1.2-19.6,3.4-28.7
			c6.5-12.9,17.2-19.4,31.5-20.1c9-0.4,17.3,1.4,24.2,7.6c5.8,5.1,8.9,11.9,10.3,19.4c1.1,5.8,1.1,11.6,0.4,17.4
			c-0.1,1.1-0.5,1.4-1.5,1.4c-7.6,0-15.2,0-22.8,0C618.9,67,618.9,67,618.9,66.9z M608.3,51.2c3.5,0,7,0,10.5,0c3.6,0,3.6,0,3-3.6
			c-1.7-9.9-11.9-14.5-20.2-9c-4.1,2.7-6,6.8-6.9,11.4c-0.2,1,0,1.3,1,1.2C599.9,51.2,604.1,51.2,608.3,51.2z"/>
		<path class="st1" d="M447,36c2.1-3.2,4.3-5.7,7.1-7.6c5.9-3.9,12.4-4.7,19.2-3.5c11.1,1.9,18.3,9.5,20.6,21.2
			c0.6,3.3,0.9,6.5,0.9,9.9c0,13,0,26,0,39c0,1-0.2,1.3-1.3,1.3c-6.9-0.1-13.8-0.1-20.8,0c-1.2,0-1.3-0.4-1.3-1.4
			c0-11.8,0-23.5,0-35.3c0-3.1-0.2-6.1-1.2-9.1c-3.1-9.6-14.5-9.2-19.3-4.2c-2.6,2.7-4.1,5.9-4.1,9.7c0,12.9,0,25.8,0,38.7
			c0,1.4-0.4,1.6-1.6,1.6c-6.8-0.1-13.6-0.1-20.3,0c-1.1,0-1.5-0.2-1.5-1.4c0.1-22.6,0.4-45.1,0-67.7c0-0.9,0.2-1.2,1.1-1.2
			c7.1,0,14.1,0,21.2,0c0.9,0,1.1,0.3,1.1,1.1C447,30,447,32.8,447,36z"/>
		<path class="st1" d="M315.7,96.3c0-0.4,0.1-0.9,0.1-1.3c0-33,0-66,0-99.1c0-0.4,0-0.9-0.1-1.3c2.4-0.3,4.8-0.1,7.3-0.1
			c4.8,0,9.7,0,14.5,0c1.2,0,1.5,0.3,1.5,1.5c0,25.9,0,51.7-0.1,77.6c0,1.5,0.4,1.7,1.8,1.7c12.7-0.1,25.3,0,38-0.1
			c1.2,0,1.5,0.3,1.5,1.5c-0.1,6.1-0.1,12.3,0,18.4c0,1-0.2,1.3-1.3,1.3c-20.8,0-41.6,0-62.3,0C316.2,96.4,316,96.3,315.7,96.3z"/>
		<path class="st1" d="M389.4,61.3c0-11.2,0-22.5,0-33.7c0-1.1,0.2-1.5,1.4-1.5c6.9,0.1,13.8,0.1,20.6,0c1.1,0,1.4,0.3,1.4,1.4
			c0,22.5,0,44.9,0,67.4c0,1.2-0.3,1.5-1.5,1.5c-6.9-0.1-13.8-0.1-20.6,0c-1.2,0-1.3-0.4-1.3-1.4C389.4,83.7,389.4,72.5,389.4,61.3z
			"/>
		<path class="st1" d="M401.1-7.7c7.3,0.1,12.1,4.1,13,10.3c0.9,6.3-2.6,11.8-8.8,13.4c-5.1,1.3-10,0.8-13.9-3.1
			c-3.5-3.6-4.3-7.9-2.6-12.6c1.7-4.8,5.4-7.1,10.3-7.8C399.9-7.7,400.7-7.7,401.1-7.7z"/>
	</g>
</g>
</svg>
