<?xml version="1.0" encoding="utf-8"?>
<!-- Generator: Adobe Illustrator 19.0.0, SVG Export Plug-In . SVG Version: 6.00 Build 0)  -->
<svg version="1.1" id="Layer_1" xmlns="http://www.w3.org/2000/svg" xmlns:xlink="http://www.w3.org/1999/xlink" x="0px" y="0px"
	 width="686px" height="161px" viewBox="248 -36 686 161" style="enable-background:new 248 -36 686 161;" xml:space="preserve">
<style type="text/css">
	.st0{fill:#01AB6C;}
	.st1{fill:#0CE270;}
	.st2{fill:#050505;}
	.st3{fill:#32FB8C;}
	.st4{fill:#14C667;}
</style>
<title>vector_h-trans</title>
<g>
	<g>
		<path class="st0" d="M311.7,67.3c0.1,13.8,0.2,27.6,0.1,41.4c0,4-1.3,4.8-5,3c-13.2-6.5-26.2-13.2-39.4-19.7
			c-2.5-1.3-3.6-3.1-3.6-5.9c0-31.2,0.1-62.3,0-93.5c0-3.4,1.1-4.3,4.2-2.7c13.9,7,27.8,13.9,41.8,20.8c1.3,0.6,2,1.6,2.7,2.7
			c-0.3,1.9-0.8,3.7-0.8,5.6C311.6,35.1,311.7,51.2,311.7,67.3z"/>
		<path class="st1" d="M360.1,90c-0.3-0.1-0.7-0.3-1-0.4c-0.1-0.6-0.4-1-1.1-0.8c0,0-0.3,0.1-0.3,0.1c1.1-1.5-0.1-2.4-0.8-3.5
			c-9.5-15.6-19-31.2-28.5-46.9c3.3-3.6,5.3-8,7.9-12.1c7.3-11.7,14.5-23.4,21.6-35.2c1.5-2.6,2.9-3,5.6-1.7
			c13.8,7,27.7,13.9,41.6,20.9c1.2,0.6,3,0.8,2.7,2.9c-3.4,5.3-6.8,10.5-10.1,15.8C385.1,49.4,372.6,69.7,360.1,90z"/>
		<path class="st2" d="M486.9,36.5c0,5.7,0,11.3,0,17c0,12.8-0.1,25.6,0.1,38.3c0,3.1-0.9,4-3.9,4c-9.7,0-9.7,0.2-9.7-9.3
			c0-22.9,0.1-45.8-0.1-68.7c0-3.7,1.1-4.2,4.6-4.7c9.5-1.3,14.8,1.9,18.5,11.1c4.3,11,10.5,21.2,16,31.8c0.6,1.2,0.8,2.9,2.6,3.6
			c7.1-14,14.4-27.8,21.3-41.9c1.7-3.4,3.5-5,7.3-4.5c2.8,0.3,5.6,0.3,8.4,0c3.1-0.3,4,0.8,4,3.9c-0.2,10.4-0.1,20.9-0.1,31.3
			c0,14.4-0.1,28.8,0.1,43.2c0,3.4-1,4.2-4.2,4.2c-9.4-0.1-9.4,0.1-9.4-9.1c0-15.1,0-30.3,0-45.4c0-1.4,0-2.9,0-4.4
			c-2-0.1-2,1.3-2.5,2.2c-6.7,12.5-13.4,25.1-20,37.6c-1.2,2.3-2.5,3.5-5.3,3.5c-2.9,0-4.1-1.4-5.3-3.6
			c-7.1-13.5-14.3-26.9-21.5-40.3C487.5,36.5,487.2,36.5,486.9,36.5z"/>
		<path class="st2" d="M806.3,65.6c0-8.7,0-17.3,0-26c0-4.6,0.4-4.8,4.4-2.9c0.9,0.4,1.9,0.8,2.7,1.4c2.9,2,5.4,2,8.7,0.1
			c10.5-6,22.4-4.7,31,3.1c1.8,1.6,2.6,0.8,3.9-0.2c7-5.4,14.9-7.4,23.6-6c10.6,1.7,17,8.2,17.4,18.9c0.5,13.1,0.8,26.2-0.1,39.2
			c-0.3,5.4-6.1,1.7-9.3,2.5c-2.1,0.6-3.8,0-3.8-3.1c0.2-11,0.1-22,0.1-33.1c0-11.3-8.3-16.6-18.7-12.1c-4.6,2-7.2,5-7.2,10.4
			c0.2,11.3,0,22.6,0.1,33.9c0,3-0.7,4.1-3.9,4.1c-9.8,0-9.8,0.2-9.8-9.7c0-9.3,0.1-18.5,0-27.8c-0.1-6.9-2.4-10.3-8.1-11.9
			c-5.8-1.6-13.7,1.1-16.5,5.6c-1.1,1.9-1.2,3.9-1.2,6c0,11.3-0.1,22.6,0.1,33.9c0,2.8-0.6,3.8-3.6,3.9c-9.8,0.1-9.8,0.3-9.8-9.5
			C806.3,79.4,806.3,72.5,806.3,65.6z"/>
		<path class="st2" d="M679.3,38c0-8.4,0.1-16.3-0.1-24.2c-0.1-2.6,0.5-3.5,3.4-3.6c10.1-0.1,10.1-0.2,10.1,9.6
			c0,23.6,0,47.3,0,70.9c0,5.6-0.6,6.2-5.2,3.4c-4.2-2.5-7.5-2.7-12.2-0.3c-18.4,9.2-38.3-2.7-40-23.2c-0.4-4.5-0.6-9.1,0.5-13.6
			c3.9-17.1,19.4-26,36.7-21.2C674.5,36.4,676.6,37.1,679.3,38z M679.3,65.7C679.3,65.7,679.2,65.7,679.3,65.7
			c-0.1-3.1,0-6.2-0.1-9.2c-0.1-2.2-0.6-4.3-2.2-6c-6.2-6.6-19.2-5.9-24.6,1.3c-5.2,7-5.2,20.8,0.1,27.8c4,5.3,10.9,7.3,17.8,5
			c6.6-2.1,9.1-5.8,9.1-13.6C679.3,69.2,679.3,67.5,679.3,65.7z"/>
		<path class="st3" d="M360.1,90c12.5-20.3,25-40.6,37.5-60.8c3.3-5.3,6.8-10.6,10.1-15.8c0.1,20.7,0.1,41.3,0.2,62c0,11,0,22,0,33
			c0,4.3-1.3,5.1-5.1,3.2C388.6,104.4,374.3,97.2,360.1,90z"/>
		<path class="st2" d="M602.9,68.8c-6.2,0-12.3,0.1-18.5-0.1c-2.8-0.1-3.2,0.9-2.6,3.3c2.1,9.5,10.4,14.8,20.7,13.3
			c4.5-0.7,8.9-2,12.8-4.4c2.2-1.3,3.2-0.9,4.4,1.3c3.5,6.5,3.6,6.7-2.9,10.1c-8.1,4.2-16.8,5.3-25.7,3.7
			c-12.8-2.4-21.6-12.5-22.7-25.7c-0.4-5.3-0.4-10.5,1.2-15.7c4-13.3,16.7-21.4,31-19.8c14.5,1.6,23.2,11,24.1,26.1
			c0,0.6,0,1.2,0.1,1.8c0.1,6.3,0.1,6.3-6,6.3C613.5,68.8,608.2,68.8,602.9,68.8z M596.3,58.4c3.7,0,7.4-0.3,11,0.1
			c4.1,0.4,3.9-1.8,3.1-4.4c-1.6-5.4-7.5-9.1-13.8-8.7c-7,0.4-12.9,4.8-14.2,10.5c-0.4,1.9,0,2.6,2.1,2.6
			C588.4,58.3,592.4,58.4,596.3,58.4z"/>
		<path class="st2" d="M790.6,65.8c0,8.8-0.1,17.6,0,26.4c0.1,3.5-1.2,4.3-4.1,2.5c-0.6-0.4-1.3-0.6-1.9-1
			c-3.5-2.4-6.6-2.4-10.7-0.2c-7.6,4.2-16.1,4.2-24.3,1.6c-9.8-3.2-13.3-11.1-13.5-20.5c-0.3-12-0.1-24.1-0.1-36.1
			c0-2.3,0.8-3,3.1-3.1c10.5-0.5,10.5-0.6,10.5,10c0,8.8-0.1,17.6,0,26.4c0.1,7.8,2.2,11.3,7.5,12.9c6.6,2.1,15.2-0.4,18.8-5.3
			c1.3-1.8,1.5-3.7,1.4-5.8c0-11.5,0.1-22.9-0.1-34.4c0-3.1,0.8-4,3.9-4c9.5,0.1,9.5-0.1,9.5,9.3C790.6,51.7,790.6,58.7,790.6,65.8z
			"/>
		<path class="st4" d="M328.3,38.4c9.5,15.6,19,31.3,28.5,46.9c0.7,1.1,1.9,2,0.8,3.5c-13.7-6.8-27.4-13.6-41.2-20.3
			c-1.5-0.7-2.8-2.3-4.8-1.2c0-16.1-0.1-32.2-0.1-48.2c0-1.9,0.5-3.7,0.8-5.6C318.3,21.4,322.8,30.2,328.3,38.4z"/>
		<path class="st2" d="M708.2,65.8c0-8.8,0.1-17.6-0.1-26.4c-0.1-2.9,0.5-4.1,3.8-4.1c9.7,0.1,9.7-0.1,9.7,9.6
			c0,15.5-0.1,31.1,0.1,46.6c0,3.2-0.7,4.3-4.1,4.3c-9.4-0.1-9.4,0.1-9.4-9.4C708.2,79.6,708.2,72.7,708.2,65.8z"/>
		<path class="st2" d="M714.7,24.9c-4.5-0.1-8-3.5-7.8-7.6c0.2-4,3.8-7.3,7.9-7.3c4.4,0,7.9,3.4,7.9,7.6
			C722.6,22,719.4,25,714.7,24.9z"/>
		<path class="st4" d="M358,88.7c0.7-0.2,1,0.2,1.1,0.8C358.7,89.2,358.4,89,358,88.7z"/>
	</g>
</g>
</svg>
