<?xml version="1.0" encoding="utf-8"?>
<!-- Generator: Adobe Illustrator 19.0.0, SVG Export Plug-In . SVG Version: 6.00 Build 0)  -->
<svg version="1.1" id="Layer_1" xmlns="http://www.w3.org/2000/svg" xmlns:xlink="http://www.w3.org/1999/xlink" x="0px" y="0px"
	 width="686px" height="161px" viewBox="301 -41 686 161" style="enable-background:new 301 -41 686 161;" xml:space="preserve">
<style type="text/css">
	.st0{fill:#FFFFFF;}
</style>
<title>vector_h-trans</title>
<g>
	<path d="M319.1,27.7c0-11.8,0-23.6,0-35.3c1.3-4.7,2.6-9.4,4-14.4c48.5,0,97.5,0,147.5,0c0,8.8,0,17.1,0,25.4
		c5.9-6.8,10.7-13.6,14.9-20.8c2.3-3.8,4.9-5,9.3-5c37.6,0.2,75.2,0.1,112.8,0.1c2,0,4,0.2,6.8,0.4c0,8.7,0,17.1,0,25.4
		c2.8-2,4.8-4,5.7-6.5c6.6-16.7,18.7-22.1,36.1-19.6c9.7,1.4,19.7,0.2,30.3,0.2c0,9.2,0,17.4,0,25.6c5.6-6.2,10.1-12.6,14.1-19.4
		c2.7-4.6,5.8-6.4,11.3-6.4c23.4,0.3,46.8,1.3,70.1-0.2c17.2-1.1,30.9,3.1,42.3,15.6c2.8,3,5,6.5,7.8,10.2
		c4.2-6.5,8.9-14.1,14.1-21.4c1.4-2,4.5-3.9,6.9-3.9c26.8-0.3,53.6-0.2,80.4-0.1c1.3,0,2.6,0.4,4.5,0.8c0,23.2,0,46.2,0,70.2
		c10.3,0,19.8,0,30.7,0c-0.9,17.4-1.8,33.9-2.7,50.5c-48.1,0-95,0-142.7,0c0-6,0-11.5,0-17c-0.6-0.4-1.2-0.7-1.8-1.1
		c-4.3,4.5-8.7,8.9-12.7,13.7c-3.2,3.9-7,4.8-11.9,4.8c-36.5-0.2-72.9-0.1-109.4-0.1c-2.6,0-5.2,0-8.7,0c0-6.5,0-11.9,0-17.4
		c-0.6-0.3-1.2-0.6-1.9-1c-3.6,4.1-7.4,8-10.7,12.2c-4,5.2-9.1,6.5-15.4,6.2c-12.6-0.4-25.2-0.1-38.2-0.1c-0.3,4.4-0.5,8-0.7,11.6
		c-13.8,0-26.9,0-40,0c-0.2-4-0.4-7.6-0.7-11.8c-12.1,0-23.8,0-36.3,0c0-6.2,0-11.6,0-17c-0.7-0.4-1.5-0.8-2.2-1.2
		c-3.7,4.3-7.5,8.4-11,12.8c-3.6,4.4-7.9,5.7-13.6,5.7c-36.2-0.3-72.5-0.1-108.7-0.1c-2.6,0-5.2,0-8.4,0c0-24.2,0-47.2,0-70.3
		c-3.7,0-6.7,0-11.5,0c0,27.6,0,54.7,0,82.1c-14.8,0-27.8,0-41.6,0c0-27.6,0-54.9,0-81.9C331.2,28.7,325.2,28.2,319.1,27.7z
		 M544.9,77.9c8.8,0,17.1,0,26.2,0c0-13.2,0-26,0-38.7c3.7,0,6.5,0,10,0c0,17.1,0,33.8,0,50.7c9.1,0,17.5,0,25.9,0
		c0-35.1,0-69.7,0-104.7c-8.6,0-16.8,0-25.9,0c0,12.4,0,24.5,0,36.9c-3.7,0-6.5,0-10.2,0c0-12.4,0-24.5,0-36.8c-9.1,0-17.4,0-25.9,0
		C544.9,16.2,544.9,46.7,544.9,77.9z M810.8,30.6c0.1-1,0-1.3,0.1-1.5c3.3-3.4,6.6-6.8,9.9-10.2c3-3.2,4.2-16.4,1.2-18.9
		c-9.4-7.6-17.3-17.7-32.1-15.5c-9.4,1.4-19.2,0.3-28.6,0.3c0,31.8,0,62.4,0,93.5c7,0,13.5,0,20.1,0c23.4,0,23.4,0,39.3-17
		c1.2-1.2,2.6-2.9,2.6-4.4c0.3-8.5,0.1-17,0.1-25.7C818.6,31,814.8,30.8,810.8,30.6z M894.9,78c0-31.4,0-62.1,0-93.2
		c-13.4,0-26.2-0.2-39.1,0.2c-1.9,0.1-4.4,2.1-5.6,3.8c-17.5,25.1-17.5,25.2-17.5,56c0,3.8,0,7.7,0,11.5c0,7.2,0,14.3,0,21.5
		c9.2,0,17.4,0,26.2,0c0-6.8,0-13.1,0-19.4c0-6.5,0-12.9,0-19.2c4,0,6.8,0,10.2,0c0,6.8,0,13.1,0,19.4c0,6.5,0,12.9,0,19.5
		C878.4,78,886.5,78,894.9,78z M751-15.2c-6.6,0-13.1,0.9-19.2-0.2c-17.7-3.2-29.2,3.6-36,19.8c-1.8,4.3-6.6,8.1-6.7,12.3
		c-0.7,20.3-0.3,40.6-0.3,61.1c9,0,17.4,0,26.4,0c0-13.2,0-25.8,0-38.7c3.4,0,6.3,0,10,0c0,13.1,0,25.8,0,38.9c9.1,0,17.3,0,25.9,0
		C751,46.8,751,16.2,751-15.2z M679-15.2c-13.6,0-26.9-0.1-40.2,0.2c-1.5,0-3.4,2-4.4,3.5c-5,7.3-9.9,14.6-14.4,22.2
		c-1.8,3.1-3.1,7-3.1,10.6c-0.3,16.1-0.1,32.1-0.1,48.2c0,2.8,0,5.7,0,8.8c8.8,0,16.6-0.8,24.1,0.2c13.6,1.8,23.2-3.2,32.5-13.1
		c6.9-7.4,6.4-14.4,5.6-22.3c-8.9,0-17.1,0-26.1,0c0,5.1,0,9.7,0,14.3c-3.6,0-6.4,0-9.2,0c0-16.8,0-33.2,0-49.4c3.4,0,6.2,0,9.7,0
		c0,9.4,0,18.4,0,27.7c8.9,0,17.1,0,25.8,0C679,18.7,679,2.1,679-15.2z M472.7,78.3c9.3,0,17.9-0.7,26.3,0.2
		c11.8,1.2,20.1-2.8,28.4-11.3c7.3-7.4,9.2-14.7,7.3-24.3c-8.4,0-16.6,0-25.6,0c0,4.9,0,9.6,0,14.4c-3.7,0-6.7,0-9.8,0
		c0-16.7,0-32.9,0-49.3c3.4,0,6.4,0,10,0c0,9.5,0,18.4,0,27.6c8.9,0,17.1,0,25.5,0c0-17,0-33.6,0-50.8c-13.5,0-26.6,0-39.7,0.1
		c-1.2,0-3,0.6-3.5,1.6c-8.1,14.3-21.7,25.8-19.5,45.3C474.1,46.8,472.7,62.3,472.7,78.3z M462.9,55.3c-12.2,0-23.8,0-35.4,0
		c0-6,0-11,0-16.3c4.7-0.2,8.9-0.4,13.1-0.6c0-5.6,0-10.6,0-16.1c-4.6,0-8.7,0-13.1,0c0-5.1,0-9.7,0-15c12.1,0,23.7,0,35.5,0
		c0-7.7,0-14.7,0-22.1c-20.7,0-41.2,0-61.8,0c0,31.2,0,62,0,92.7c20.8,0,41.1,0,61.7,0C462.9,70.6,462.9,63.7,462.9,55.3z
		 M347.7,7.5c0,28.2,0,55.3,0,82.5c8.9,0,17.1,0,26.2,0c0-27.7,0-54.9,0-82.7c6.2,0,11.5,0,16.8,0c0-7.7,0-14.8,0-21.9
		c-20.9,0-41.4,0-61.7,0c0,7.5,0,14.5,0,22.1C335.1,7.5,340.9,7.5,347.7,7.5z M960.3,78c0-7.9,0-14.9,0-22.7c-10,0-19.4,0-29.4,0
		c0-23.7,0-46.7,0-69.9c-9,0-17.4,0-25.6,0c0,31.3,0,61.9,0,92.6C923.9,78,941.9,78,960.3,78z M462.9,48.2c0-6.5,0-12.8,0-19
		c-5.1,0-9.7,0-14.3,0c-0.4,6.6-0.7,12.7-1,19C452.4,48.2,457.4,48.2,462.9,48.2z"/>
	<path class="st0" d="M544.9,77.9c0-31.2,0-61.7,0-92.6c8.5,0,16.8,0,25.9,0c0,12.3,0,24.4,0,36.8c3.7,0,6.5,0,10.2,0
		c0-12.3,0-24.4,0-36.9c9.1,0,17.4,0,25.9,0c0,35,0,69.6,0,104.7c-8.4,0-16.8,0-25.9,0c0-16.9,0-33.6,0-50.7c-3.5,0-6.3,0-10,0
		c0,12.7,0,25.5,0,38.7C562,77.9,553.8,77.9,544.9,77.9z"/>
	<path class="st0" d="M810.8,30.6c4,0.2,7.8,0.4,12.5,0.6c0,8.7,0.1,17.2-0.1,25.7c0,1.5-1.5,3.2-2.6,4.4c-15.9,17-15.9,17-39.3,17
		c-6.5,0-13.1,0-20.1,0c0-31.1,0-61.7,0-93.5c9.5,0,19.3,1.2,28.6-0.3c14.8-2.2,22.6,7.9,32.1,15.5c3,2.4,1.8,15.7-1.2,18.9
		c-3.3,3.4-6.6,6.8-9.9,10.2C810.7,29.3,810.8,29.6,810.8,30.6z M787.4,39c0,5.5,0,10.8,0,16.1c3.3,0,6.1,0,8.9,0
		c0-5.7,0-10.9,0-16.1C793.1,39,790.4,39,787.4,39z M787.3,21.8c3.4,0,6.3,0,9.1,0c0-5,0-9.4,0-13.8c-3.3,0-6.1,0-9.1,0
		C787.3,12.9,787.3,17.3,787.3,21.8z"/>
	<path class="st0" d="M894.9,78c-8.4,0-16.5,0-25.8,0c0-6.6,0-13,0-19.5c0-6.3,0-12.6,0-19.4c-3.4,0-6.2,0-10.2,0
		c0,6.3,0,12.8,0,19.2c0,6.3,0,12.6,0,19.4c-8.8,0-17,0-26.2,0c0-7.1,0-14.3,0-21.5c0-3.8,0-7.7,0-11.5c0-30.8,0-30.8,17.5-56
		c1.2-1.8,3.7-3.8,5.6-3.8c12.9-0.3,25.7-0.2,39.1-0.2C894.9,16,894.9,46.6,894.9,78z M868.5,22.1c0-5.4,0-10.5,0-15.6
		c-0.3-0.1-0.7-0.1-1-0.2c-2.6,5.1-5.2,10.1-8.1,15.7C863.1,22.1,865.8,22.1,868.5,22.1z"/>
	<path class="st0" d="M751-15.2c0,31.4,0,62.1,0,93.1c-8.5,0-16.8,0-25.9,0c0-13,0-25.8,0-38.9c-3.7,0-6.5,0-10,0
		c0,12.9,0,25.5,0,38.7c-9,0-17.4,0-26.4,0c0-20.5-0.4-40.8,0.3-61.1c0.1-4.1,4.9-8,6.7-12.3c6.9-16.2,18.4-23,36-19.8
		C737.9-14.3,744.4-15.2,751-15.2z M715.4,22.1c3.9,0,6.5,0,9.3,0c0-5.5,0-10.6,0-15.7c-0.3-0.1-0.7-0.2-1-0.2
		C721,11.2,718.4,16.2,715.4,22.1z"/>
	<path class="st0" d="M679-15.2c0,17.3,0,33.9,0,50.8c-8.6,0-16.8,0-25.8,0c0-9.3,0-18.2,0-27.7c-3.5,0-6.3,0-9.7,0
		c0,16.2,0,32.6,0,49.4c2.8,0,5.6,0,9.2,0c0-4.6,0-9.2,0-14.3c9,0,17.2,0,26.1,0c0.8,7.9,1.4,14.9-5.6,22.3
		c-9.3,9.9-18.9,14.9-32.5,13.1c-7.6-1-15.3-0.2-24.1-0.2c0-3.1,0-6,0-8.8c0-16.1-0.2-32.1,0.1-48.2c0.1-3.6,1.3-7.5,3.1-10.6
		c4.4-7.6,9.4-14.9,14.4-22.2c1-1.5,2.9-3.5,4.4-3.5C652.1-15.3,665.4-15.2,679-15.2z"/>
	<path class="st0" d="M472.7,78.3c0-16,1.4-31.5-0.3-46.6c-2.2-19.5,11.4-30.9,19.5-45.3c0.5-0.9,2.3-1.5,3.5-1.6
		c13.1-0.1,26.2-0.1,39.7-0.1c0,17.2,0,33.8,0,50.8c-8.4,0-16.7,0-25.5,0c0-9.1,0-18.1,0-27.6c-3.6,0-6.6,0-10,0
		c0,16.3,0,32.5,0,49.3c3.1,0,6.1,0,9.8,0c0-4.8,0-9.5,0-14.4c9,0,17.2,0,25.6,0c1.9,9.6,0,16.9-7.3,24.3
		c-8.3,8.5-16.7,12.5-28.4,11.3C490.6,77.6,482,78.3,472.7,78.3z"/>
	<path class="st0" d="M462.9,55.3c0,8.3,0,15.2,0,22.6c-20.6,0-40.9,0-61.7,0c0-30.7,0-61.5,0-92.7c20.6,0,41,0,61.8,0
		c0,7.4,0,14.3,0,22.1c-11.8,0-23.4,0-35.5,0c0,5.4,0,10,0,15c4.4,0,8.4,0,13.1,0c0,5.5,0,10.5,0,16.1c-4.2,0.2-8.4,0.4-13.1,0.6
		c0,5.3,0,10.4,0,16.3C439.1,55.3,450.8,55.3,462.9,55.3z"/>
	<path class="st0" d="M347.7,7.5c-6.9,0-12.6,0-18.7,0c0-7.6,0-14.6,0-22.1c20.4,0,40.8,0,61.7,0c0,7,0,14.1,0,21.9
		c-5.3,0-10.6,0-16.8,0c0,27.9,0,55.1,0,82.7c-9.1,0-17.3,0-26.2,0C347.7,62.8,347.7,35.8,347.7,7.5z"/>
	<path class="st0" d="M960.3,78c-18.4,0-36.5,0-55.1,0c0-30.7,0-61.4,0-92.6c8.3,0,16.7,0,25.6,0c0,23.2,0,46.3,0,69.9
		c10,0,19.4,0,29.4,0C960.3,63.1,960.3,70.2,960.3,78z"/>
	<path d="M787.4,39c3,0,5.6,0,8.9,0c0,5.2,0,10.4,0,16.1c-2.8,0-5.6,0-8.9,0C787.4,49.8,787.4,44.5,787.4,39z"/>
	<path d="M787.3,21.8c0-4.5,0-8.9,0-13.8c3,0,5.8,0,9.1,0c0,4.3,0,8.7,0,13.8C793.6,21.8,790.7,21.8,787.3,21.8z"/>
	<path d="M868.5,22.1c-2.7,0-5.4,0-9.1,0c2.9-5.6,5.5-10.7,8.1-15.7c0.3,0.1,0.7,0.1,1,0.2C868.5,11.6,868.5,16.6,868.5,22.1z"/>
	<path d="M715.4,22.1c3-5.9,5.6-10.9,8.3-16c0.3,0.1,0.7,0.2,1,0.2c0,5.1,0,10.2,0,15.7C721.9,22.1,719.2,22.1,715.4,22.1z"/>
</g>
</svg>
