<?xml version="1.0" encoding="utf-8"?>
<!-- Generator: Adobe Illustrator 19.0.0, SVG Export Plug-In . SVG Version: 6.00 Build 0)  -->
<svg version="1.1" id="Layer_1" xmlns="http://www.w3.org/2000/svg" xmlns:xlink="http://www.w3.org/1999/xlink" x="0px" y="0px"
	 width="686px" height="161px" viewBox="301 -41 686 161" style="enable-background:new 301 -41 686 161;" xml:space="preserve">
<style type="text/css">
	.st0{fill:#013D01;}
	.st1{fill:#040404;}
	.st2{fill:#FDFDFD;}
</style>
<title>vector_h-trans</title>
<g>
	<path class="st0" d="M482.2,29.6c1.4-2.2,2.8-4.1,4.5-5.6c5.4-4.9,11.9-6.2,18.9-5.3c6,0.7,10.7,3.4,13.3,9.1
		c1.2,2.6,1.8,5.3,2,8.1c0.5,8.2,0.1,16.4,0.2,24.5c0,2.5,0.5,3,3,3.1c1.2,0,2.8-0.6,3.5,0.3c0.6,0.7,0.2,2.2,0.2,3.4
		c0,2.3,0,4.6,0,6.9c0,0.8-0.1,1.1-1,1.1c-4.2-0.1-8.4,0-12.7,0c-4.6,0-6.7-2-6.8-6.5c-0.2-9-0.1-17.9-0.1-26.9
		c0-1.2-0.1-2.3-0.3-3.5c-0.9-5.6-4.3-7.7-9.9-7.1c-7.5,0.9-12.7,6.1-14,13.8c-0.3,1.6-0.4,3.3-0.4,4.9c0,8,0,16,0,24
		c0,0.9-0.2,1.3-1.2,1.2c-3.8-0.1-7.7-0.1-11.5,0c-1,0-1.1-0.3-1.1-1.2c0-13.1,0-26.3,0-39.4c0-2.5-0.6-3.1-3-3.1c0,0-0.1,0-0.1,0
		c-1.2-0.1-2.7,0.5-3.4-0.2c-0.6-0.7-0.2-2.2-0.2-3.4c0-2.4,0-4.8,0-7.2c0-0.7,0.2-1,0.9-0.9c4.2,0,8.4,0,12.5,0
		c4.4,0.1,6.6,2.3,6.6,6.7C482.2,27.4,482.2,28.3,482.2,29.6z M482.2,29.7c0-0.1,0-0.1-0.1-0.2c0,0-0.1,0.1-0.1,0.1
		c0,0.1,0,0.2,0.1,0.2C482.1,29.7,482.2,29.7,482.2,29.7z"/>
	<path class="st0" d="M617.1,64.9c-6.4,12-20.5,13.6-29.3,9.4c-4.8-2.3-7.1-6.4-8.3-11.4c-0.6-2.4-0.8-4.8-0.8-7.2
		c0-7.1,0-14.1,0-21.2c0-2.6-0.6-3.1-3.2-3.1c-1.2,0-2.7,0.5-3.4-0.2c-0.7-0.7-0.2-2.2-0.2-3.4c0-2.3,0.1-4.6,0-6.9
		c0-1.1,0.3-1.3,1.3-1.3c4.1,0,8.2,0,12.3,0c4.7,0,7,2.3,7,7c0,8.6,0,17.2,0,25.9c0,1.3,0.1,2.7,0.3,4c0.8,5.1,3.9,7.6,9.1,7.2
		c6.9-0.5,11.1-4.5,13.4-10.7c0.9-2.5,1.3-5.1,1.3-7.8c0-8.1,0-16.2,0-24.3c0-1.1,0.3-1.3,1.3-1.3c3.8,0.1,7.6,0.1,11.4,0
		c1,0,1.3,0.2,1.3,1.3c0,13.2,0,26.4,0,39.6c0,2.3,0.6,2.9,2.9,2.9c1.2,0,2.9-0.6,3.6,0.3c0.6,0.7,0.2,2.3,0.2,3.5
		c0,2.3,0,4.6,0,6.9c0,0.8-0.2,1-1,1c-4,0-8.1,0-12.1,0c-1.1,0-2.2-0.2-3.2-0.5c-2.3-0.8-3.7-2.7-3.7-5.1
		C617,68.1,617.1,66.7,617.1,64.9z"/>
	<path class="st0" d="M436.2,49.8c-6,0-12,0-18,0c-0.8,0-1.1,0.1-1,1.1c0.9,7.1,6.6,12.7,13.6,13.6c6.4,0.8,12-1.3,17.1-5
		c1.4-1,1.3-1,2.2,0.5c1.5,2.4,2.9,4.9,4.4,7.2c0.4,0.6,0.5,1-0.2,1.5c-7.2,5.7-15.3,8.3-24.5,7.6c-7.2-0.6-13.6-3.1-18.8-8.3
		c-6.3-6.5-8.7-14.4-8.1-23.3c0.4-6.4,2.4-12.2,6.7-17.1c5.3-6.2,12.3-9,20.4-9.3c5.3-0.2,10.4,0.8,14.9,3.8
		c5.9,3.9,8.9,9.7,10.2,16.5c0.6,3.4,0.6,6.7,0.3,10.1c-0.1,0.9-0.5,1-1.2,1C448.2,49.8,442.2,49.8,436.2,49.8z M429.4,40.2
		c3.7,0,7.3,0,11,0c0.5,0,1,0.2,1-0.7c-0.1-4.3-3.2-8.5-7.3-9.9c-6.9-2.2-15.3,2.9-16.4,9.9c-0.1,0.9,0.4,0.7,0.8,0.7
		C422.1,40.2,425.7,40.2,429.4,40.2z"/>
	<path class="st0" d="M731.7,58.4c1.8,3,3.6,6.1,5.5,9c0.5,0.8-0.2,1-0.5,1.3c-3.8,3.1-8,5.3-12.7,6.5c-9.3,2.3-18.3,1.5-26.4-3.9
		c-8-5.4-11.8-13.3-12.2-22.9c-0.3-7.2,1.4-13.9,5.9-19.7c5.4-6.9,12.6-10.1,21.3-10.3c6.4-0.2,12.3,1.3,17.3,5.7
		c4.7,4.2,7,9.6,7.9,15.7c0.4,3,0.4,6,0.1,9c-0.1,0.9-0.4,1.1-1.3,1.1c-11.9,0-23.9,0-35.8,0c-1.2,0-1.4,0.3-1.1,1.4
		c2.1,10.4,11.6,15.8,22.3,12.6c1.8-0.5,3.5-1.3,5.1-2.2C728.7,60.7,730.2,59.6,731.7,58.4z M711.9,40.2c3.7,0,7.3,0,11,0
		c0,0,0.1,0,0.1,0c0.4,0,1,0.2,0.9-0.7c-0.5-5.2-3.7-9.1-8-10.1c-6.9-1.6-14.2,3-15.7,9.9c-0.2,0.8,0.1,0.9,0.8,0.9
		C704.6,40.2,708.3,40.2,711.9,40.2z"/>
	<path class="st1" d="M756.2,29.7c0.9-1.5,1.8-2.8,2.9-4c5.4-5.5,12.1-7,19.4-6c8.4,1.2,14.2,6,17.3,13.7c4,9.7,4.1,19.6-0.2,29.3
		c-6.2,14-21.1,16.4-30.4,12.2c-3.5-1.6-6.3-4.1-8.5-7.3c-0.2-0.3-0.3-1-0.9-0.7c-0.4,0.2,0,0.7,0,1c0,2.3,0,4.6,0.1,6.9
		c0,0.5-0.2,0.6-0.6,0.6c-2,0-3.9,0-5.9,0c-0.6,0-0.8-0.2-0.8-0.7c0-0.3,0-0.6,0-0.9c0-21.7,0-43.4,0-65c0-2.7-0.5-3.3-3.3-3.3
		c-1.2,0-2.8,0.5-3.5-0.2c-0.6-0.7-0.2-2.2-0.2-3.4c0-2.8,0-2.8,2.8-2.8c2,0,4.1-0.1,6.1,0.1c3.8,0.3,5.5,2.2,5.5,6.1
		c-0.1,8.1,0.2,16.2-0.2,24.3C756.1,29.4,756.1,29.5,756.2,29.7z M756,47.4c0,4.9,0.7,9.1,2.7,13c2.9,5.9,7.6,9.5,14.3,9.6
		c6.1,0.1,11.1-2.5,14.2-7.7c5.3-9.2,5.4-18.7,0.4-28c-5.9-10.8-21-11.1-27.8-0.9C756.9,37.9,756.1,42.8,756,47.4z"/>
	<path class="st0" d="M552.8,42.8c0,3.2,0,6.4,0,9.5c0,7.3,3.8,11.1,11.1,11.1c2.4,0,2.4,0,2.4,2.4c0,2.9,0,5.7,0,8.6
		c0,0.5,0.1,0.9-0.6,1c-6.9,0.7-13.5,0-19.3-4.1c-4.3-3-6.4-7.4-7.1-12.6c-0.5-3.4-0.2-6.8-0.2-10.2c0-5.6,0-11.2,0-16.8
		c0-0.9-0.2-1.1-1.1-1.1c-1.7,0.1-3.4,0-5.1,0c-0.7,0-1.1-0.1-1.1-1c0.1-3,0-6.1,0-9.1c0-0.8,0.2-1,1-0.9c1.8,0,3.7,0,5.5,0
		c0.9,0,1.1-0.3,1.1-1.1c0-4.3,0-8.5,0-12.8c0-1.1,0.3-1.3,1.3-1.3c3.7,0.1,7.5,0.1,11.2,0c0.9,0,1.1,0.2,1.1,1.1
		c0,4.3,0,8.6,0,12.9c0,0.9,0.2,1.2,1.1,1.1c3.5-0.1,7,0,10.4,0c0.8,0,1.1,0.1,1,1c-0.1,3,0,6.1,0,9.1c0,0.8-0.2,0.9-0.9,0.9
		c-3.4,0-6.9,0-10.3,0c-1,0-1.4,0.2-1.4,1.3C552.8,35.6,552.8,39.2,552.8,42.8z"/>
	<path class="st1" d="M852.2,63.2c-1.2,2.3-2.5,4.3-4.1,6c-7,7.2-15.5,9.1-25,6.3c-5.7-1.7-8.5-6.1-9.8-11.7
		c-0.6-2.6-0.8-5.1-0.8-7.8c0-8.6,0-17.2,0-25.9c0-2.4-0.7-3.1-3.1-3.1c-1.3,0-2.9,0.4-3.7-0.2c-0.8-0.7-0.2-2.5-0.2-3.7
		c0-2.5,0-2.5,2.5-2.5c2.3,0,4.6,0,6.9,0.1c3,0.2,4.6,1.9,4.9,4.9c0.1,0.6,0.1,1.1,0.1,1.7c0,8.8,0,17.6,0,26.4
		c0,2.4,0.1,4.8,0.6,7.1c1.2,5.5,4.5,8.4,10.1,8.7c8.6,0.5,16.1-4.5,19.4-12.9c1.3-3.2,1.9-6.5,1.9-9.9c0-8.3,0-16.5,0-24.8
		c0-1,0.3-1.3,1.3-1.3c1.7,0.1,3.4,0.1,5.1,0c0.9,0,1.2,0.2,1.2,1.2c0,7.4,0,14.8,0,22.2c0,7.4,0,14.7,0,22.1c0,2.2,0.6,2.8,2.8,2.8
		c1.1,0,2.3,0,3.4,0c0.6,0,0.8,0.2,0.8,0.8c0,1.6,0,3.2,0,4.8c0,0.4,0,0.9-0.6,0.9c-3-0.1-5.9,0.2-8.9-0.2c-3.1-0.4-4.6-2.2-4.7-5.4
		c0-1.1,0-2.2,0-3.3C852.2,65.5,852.2,64.5,852.2,63.2z"/>
	<path class="st1" d="M925.8,32.9c1.9-4,4.5-7.1,7.8-9.3c6.8-4.6,14.3-5.4,22-3c5.7,1.8,8.4,6.4,9.6,12c0.6,2.7,0.7,5.4,0.7,8.2
		c0,8.4,0,16.9,0,25.3c0,2.1,0.6,2.7,2.7,2.7c1.4,0,3.2-0.6,4,0.3c0.7,0.7,0.2,2.6,0.2,3.9c0,2.3,0,2.3-2.3,2.3c-2,0-4,0-6,0
		c-3.9-0.1-5.9-1.9-6.1-5.8c0-0.6,0-1.2,0-1.8c0-9.4,0-18.8-0.1-28.2c0-2.3-0.4-4.5-1.2-6.6c-1.4-3.8-4.1-5.8-8-6.3
		c-11-1.4-21.1,6.3-22.9,17.2c-0.3,1.9-0.4,3.9-0.5,5.8c0,8.1,0,16.3,0,24.4c0,1.1-0.3,1.4-1.4,1.3c-1.6-0.1-3.1-0.1-4.7,0
		c-1.2,0.1-1.4-0.4-1.4-1.5c0-12,0-23.9,0-35.9c0-2.7,0-5.3,0-8c0-2.2-0.7-2.9-3-2.9c-1,0-2.1,0-3.1,0c-0.6,0-0.9-0.1-0.9-0.8
		c0.1-1.6,0-3.2,0-4.8c0-0.5,0-0.8,0.7-0.8c2.9,0.1,5.7,0,8.6,0.1c3.2,0.2,4.9,2,5,5.2C925.9,28.2,925.8,30.4,925.8,32.9z"/>
	<path class="st0" d="M661.5,32.4c1.4-3.2,3.1-6.2,5.7-8.6c3.7-3.5,8.1-5.2,13.3-4.9c0.7,0.1,1.2,0.2,1.1,1.1c-0.1,3.9,0,7.8,0,11.8
		c0,0.7-0.1,1-0.9,0.9c-9.4-1-16.6,4.7-18.2,14.1c-0.4,2.4-0.6,4.7-0.6,7.1c0,6.7,0,13.3,0,20c0,1-0.3,1.2-1.2,1.2
		c-3.8-0.1-7.6-0.1-11.4,0c-1,0-1.2-0.2-1.2-1.2c0-13.1,0-26.2,0-39.3c0-2.7-0.5-3.2-3.2-3.2c-1.1,0-2.6,0.5-3.3-0.2
		c-0.7-0.7-0.2-2.1-0.2-3.3c0-2.4,0-4.8,0-7.2c0-0.8,0.1-1.1,1.1-1.1c4.1,0.1,8.2,0,12.3,0c4.5,0.1,6.7,2.3,6.7,6.8
		C661.5,28.5,661.5,30.5,661.5,32.4z"/>
	<path class="st0" d="M356.2,85.3c-13.3,0-26.6,0-40,0c-1.1,0-1.4-0.2-1.4-1.3c0-26,0-52.1,0-78.1c0-1.1,0.4-1.3,1.4-1.3
		c26.6,0,53.3,0,79.9,0c1.1,0,1.4,0.3,1.4,1.4c0,26,0,52.1,0,78.1c0,1.2-0.4,1.3-1.4,1.3C382.9,85.3,369.5,85.3,356.2,85.3z
		 M356.3,7.2c-12.5,0-24.9,0-37.4,0c-1,0-1.4,0.1-1.4,1.3c0,24.3,0,48.7,0,73c0,1,0.2,1.2,1.2,1.2c25,0,50,0,75,0
		c1.1,0,1.3-0.3,1.3-1.3c0-24.3,0-48.6,0-72.9c0-1.1-0.3-1.4-1.3-1.3C381.2,7.3,368.7,7.2,356.3,7.2z"/>
	<path class="st1" d="M885.6,34c1.3-3.2,2.9-6.1,5.2-8.5c3.8-4,8.4-5.8,14-5.2c0.9,0.1,1.2,0.3,1.2,1.3c-0.1,1.8,0,3.7,0,5.5
		c0,0.5,0.1,0.8-0.7,0.7c-7.7-0.8-12.7,3-16.1,9.4c-2.7,4.9-3.4,10.3-3.4,15.9c0,7.1,0,14.1,0,21.2c0,0.9-0.2,1.3-1.2,1.3
		c-1.7-0.1-3.5-0.1-5.2,0c-0.9,0-1.1-0.2-1.1-1.1c0-3.8,0-7.7,0-11.5c0-10.9,0-21.8,0-32.7c0-2.4-0.6-3-3-3c-1.1,0-2.2,0-3.3,0
		c-0.6,0-0.8-0.2-0.8-0.7c0-1.7,0-3.3,0-5c0-0.6,0.2-0.8,0.7-0.8c3,0.1,5.9-0.2,8.9,0.1c2.9,0.3,4.6,2.1,4.7,5
		C885.7,28.5,885.6,31.3,885.6,34z"/>
	<path class="st2" d="M482.2,29.7c0,0,0,0.1-0.1,0.1c0-0.1-0.1-0.2-0.1-0.2c0,0,0.1-0.1,0.1-0.1C482.2,29.5,482.2,29.6,482.2,29.7z"
		/>
	<path class="st2" d="M711.9,40.2c-3.7,0-7.3,0-11,0c-0.6,0-0.9-0.1-0.8-0.9c1.5-6.9,8.8-11.6,15.7-9.9c4.3,1,7.5,4.9,8,10.1
		c0.1,0.9-0.5,0.6-0.9,0.7c0,0-0.1,0-0.1,0C719.2,40.2,715.6,40.2,711.9,40.2z"/>
	<path class="st0" d="M356.5,60.8c0.4-2,0.7-3.9,1.2-5.6c2-7.4,4.7-14.5,7-21.8c1.4-4.3,2.9-8.7,4.3-13c1.4-4.1,3.6-5.7,7.9-5.8
		c4.1,0,8.3,0,12.4-0.1c0.9,0,1.2,0.2,1.2,1.1c-0.1,3.6-0.1,7.1,0,10.7c0,0.9-0.3,1.2-1.2,1.1c-1.8-0.1-3.7,0-5.5,0
		c-2.1,0-2.9,0.5-3.6,2.5c-3.1,8.7-6.1,17.3-9.2,26c-2.1,6-4.2,12-6.3,18.1c-0.3,0.9-0.7,1.2-1.7,1.2c-4.7-0.1-9.5-0.1-14.2,0
		c-0.9,0-1.3-0.3-1.6-1.2c-5.1-14.5-10.2-29-15.3-43.4c-1-2.9-1.3-3.1-4.3-3.1c-1.8,0-3.6-0.1-5.4,0c-0.7,0-0.9-0.2-0.9-0.9
		c0-3.7,0-7.5,0-11.2c0-0.6,0.1-0.9,0.8-0.9c4.9,0.1,9.7,0,14.6,0.2c3.4,0.1,5.6,1.9,6.7,5.1c1.5,4.5,3.1,9.1,4.5,13.6
		c2.3,7.1,4.9,14.2,7,21.4C355.6,56.7,356,58.7,356.5,60.8z"/>
</g>
</svg>
