<?xml version="1.0" encoding="utf-8"?>
<!-- Generator: Adobe Illustrator 19.0.0, SVG Export Plug-In . SVG Version: 6.00 Build 0)  -->
<svg version="1.1" id="Layer_1" xmlns="http://www.w3.org/2000/svg" xmlns:xlink="http://www.w3.org/1999/xlink" x="0px" y="0px"
	 width="686px" height="161px" viewBox="301 -41 686 161" style="enable-background:new 301 -41 686 161;" xml:space="preserve">
<style type="text/css">
	.st0{display:none;}
	.st1{display:inline;fill:#060606;}
	.st2{display:inline;fill:#0689C2;}
	.st3{display:inline;fill:#030303;}
	.st4{display:inline;fill:#0488C1;}
	.st5{display:inline;fill:#F8FBFD;}
	.st6{fill:#EC1E26;}
	.st7{fill:#A9CE3B;}
	.st8{fill:#A8CE3A;}
	.st9{fill:#EC1F27;}
	.st10{fill:#A9CF3B;}
	.st11{fill:#BCC0BF;}
	.st12{fill:#55A246;}
	.st13{fill:#65A845;}
	.st14{fill:#96C142;}
	.st15{fill:#88BA43;}
	.st16{fill:#74AF45;}
	.st17{fill:#9AC354;}
	.st18{fill:#F7F3F3;}
	.st19{fill:#FBFBFA;}
</style>
<title>vector_h-trans</title>
<g class="st0">
	<path class="st1" d="M453.2,49.5c0-13.9,0.1-27.7-0.1-41.6c0-3,0.6-4.9,3.8-5.8c20.2-5.8,40.6-8,61.2-2.7
		c15.8,4,22.5,13.2,22.5,29.6c0,20.5-0.1,40.9,0.1,61.4c0,4.3-1.2,5.9-5.5,5.4c-5.6-0.7-12.8,2.4-16.4-1.3
		c-3.3-3.4-0.9-10.5-0.9-15.9c-0.1-16.5,0-33-0.1-49.5c0-10.7-4-15.5-14.4-18.1c-7.7-1.9-15.3-1-22.9,0.3c-4.2,0.7-4.9,3.1-4.9,6.9
		c0.2,23.8-0.1,47.5,0.2,71.3c0.1,5.3-1.5,6.5-6.6,6.4c-16.1-0.3-16.1-0.1-16.1-16C453.2,69.7,453.2,59.6,453.2,49.5z"/>
	<path class="st2" d="M950.7,57.4c0,9.9-0.1,19.8,0.1,29.7c0.1,3.2-1,4.8-4,5.7c-19.7,6-39.7,7.7-59.8,2.3
		c-13.6-3.6-21-12.4-21.9-24.1c-1-13,4.9-22.6,17.8-28.7c12.7-6.1,26.4-8.2,40.3-9.1c6.3-0.4,7-3.4,6.3-8.4
		c-1-7.5-5.2-11.9-13.1-13.7C904.5,8.5,893,10,881.9,14c-8,2.8-6.8-3.9-8.6-7.1c-2.7-4.9,2.3-4.6,4.7-5.4c15.3-4.8,31-6.6,46.8-3.4
		c16.8,3.4,25.7,14.5,25.8,31.7C950.7,38.9,950.7,48.2,950.7,57.4z M929.5,62.9c0-5.5,0-11,0-16.4c0-2.1,0-4.1-3-3.8
		c-11.1,1.2-22.4,2.2-32,8.7c-7.1,4.8-9.2,12-7.8,20.2c1.4,8,7,11.8,14.3,13.6c7.6,1.8,15.2,1.5,22.8-0.1c4-0.8,6.1-2.4,5.7-7
		C929.2,73,929.5,68,929.5,62.9z"/>
	<path class="st2" d="M550.2,47.3C550,10.6,576.7-10.5,612.5-2c19.2,4.6,33.1,24.9,31,45.1c-0.4,3.7-2.8,3.3-5.1,3.5
		c-20.3,2.5-40.6,5.2-60.9,7.4c-4.8,0.5-5.7,2.2-4.6,6.6c3.3,14.1,14.1,22.4,30.7,22.8c8.4,0.2,16.8-0.6,24.7-3.7c5-2,6.8-0.6,8.4,4
		c2.8,7.9,3.1,7.8-4.7,10.2c-11.7,3.5-23.7,4.9-35.9,3.9C566.8,95.5,550.3,77.2,550.2,47.3z M597.4,9.3c-16.2,0-30.2,16.8-27.1,32.3
		c0.5,2.7,2,2.4,3.8,2.2c14.6-1.9,29.2-3.8,43.8-5.7c2.5-0.3,3.8-1.1,3.8-4.1C621.8,19.5,611.9,9.4,597.4,9.3z"/>
	<path class="st2" d="M643.3,95.7c10-13.4,19.2-25.7,28.3-38c9.2-12.4,9.2-12.4,0.2-24.9c-7.8-10.8-15.7-21.6-24.5-33.7
		c8.5,0,15.8-0.1,23.1,0c2.7,0,3.4,2.6,4.6,4.3c6.3,9.2,12.4,18.5,19.1,28.4c6.2-8.9,12.3-16.9,17.5-25.5c3.5-5.8,7.8-8.2,14.4-7.3
		c3.8,0.5,7.7,0.1,13.1,0.1c-8.1,10.6-15.3,20.2-22.5,29.8c-3.8,5.1-10.4,10.2-10.4,15.4c-0.1,5.2,6.4,10.4,10.1,15.6
		c8.5,11.7,17.1,23.2,26.4,35.9c-8.7,0-16.1-0.1-23.4,0c-3.1,0.1-4-2.2-5.3-4.2C706.8,81,699.7,70.4,692.1,59
		c-7.2,10.7-14.3,20.6-20.7,31c-2.8,4.6-6.1,6.2-11.2,5.8C655.1,95.4,650.1,95.7,643.3,95.7z"/>
	<path class="st3" d="M337.9,33.6c0-18.5,0.1-37-0.1-55.4c0-3.9,0.4-5.8,5.1-5.7c20.2,0.3,40.5,0.4,60.7,0c6.7-0.1,4.7,4.1,4.8,7.4
		c0.1,3.3,1.4,7-4.7,6.8c-12.3-0.5-24.6,0.1-37-0.2c-4.4-0.1-5.6,1.2-5.4,5.5c0.3,9.4,0.4,18.9,0,28.4c-0.2,4.6,1.6,5.4,5.6,5.3
		c10.6-0.2,21.1,0.3,31.7-0.2c6.7-0.3,4.7,4.1,4.8,7.3c0.2,3.4,1,6.9-4.9,6.6c-10.3-0.5-20.7,0.1-31-0.2c-4.8-0.2-6.4,0.9-6.3,6
		c0.4,15.2,0,30.4,0.2,45.5c0.1,4-1,5.6-5.1,5.1c-6-0.7-13.9,2.6-17.6-1.4c-2.9-3.1-0.9-10.8-0.9-16.5
		C337.8,63.1,337.9,48.3,337.9,33.6z"/>
	<path class="st4" d="M779.1-28.4c0,7.9,0.2,15.2-0.1,22.4c-0.2,4.2,1.3,5.5,5.3,5.1c2.8-0.3,5.7,0.2,8.6-0.1
		c4.4-0.4,6.7,0.4,6.6,5.8c-0.1,5.4-1.4,7.1-7,7c-13.4-0.3-13.4,0-13.4,13.1c0,14.5,0,29,0,43.5c0,10.6,4.8,15.3,15.2,15.4
		c1.9,0,5.1-1.6,4.7,2.2c-0.3,3.6,2.6,8.4-2.3,10.6c-15.2,6.9-37-4-39.7-20c-0.7-4.3-0.4-8.8-0.4-13.2c0-15.2-0.3-30.3,0.1-45.5
		c0.1-5.4-1.6-6.7-6.6-6.5c-3.5,0.1-8.4,2.3-8.4-5.2c0-6.2,2-8.3,7.7-7.3c5.6,1,7.5-1,7.3-7c-0.5-14.6-0.1-14.6,14.3-18.3
		C773.5-26.9,776-27.6,779.1-28.4z"/>
	<path class="st4" d="M812,49.4c0-13.2,0.3-26.4-0.1-39.6c-0.2-5.2,1.7-7.2,6.5-8.6c14.6-4.2,29.4-4.9,44.4-4.5
		c3.3,0.1,4.4,1.2,3.2,4.4c-0.8,2.1-1.7,4.1-2.1,6.2c-0.7,3.7-2.7,4.5-6.1,3.8c-5.9-1.2-11.8-0.9-17.7,0c-4.2,0.6-5.7,2.5-5.7,6.9
		c0.2,23.8-0.1,47.5,0.2,71.3c0.1,5.3-1.4,6.6-6.6,6.5c-16-0.3-16,0-16-16.1C812,69.6,812,59.5,812,49.4z"/>
	<path class="st3" d="M440.7,47.4c0,14.5-0.1,29,0.1,43.5c0.1,3.7-1,5.1-4.8,4.8c-5.7-0.4-13,1.8-16.6-1c-3.9-3-1.2-10.6-1.3-16.2
		c-0.1-24.6,0.1-49.2-0.2-73.8c0-4.6,1-6.3,5.7-5.7c5.4,0.6,12.5-2.2,15.9,1c3.5,3.3,0.9,10.4,1,15.8
		C440.8,26.3,440.7,36.9,440.7,47.4z"/>
	<path class="st3" d="M429-13.6c-0.9,0-1.8,0-2.6,0c-7.7,0-10.9-4.9-8.3-12.2c0.8-2.2,2.4-1.6,3.7-1.6c3.7-0.1,7.5,0.4,11.2-0.1
		c6.2-0.8,8.6,1.1,7.9,7.7C440.2-13.7,440.7-13.6,429-13.6z"/>
	<path class="st5" d="M929.5,62.9c0,5-0.3,10.1,0.1,15.1c0.4,4.6-1.7,6.2-5.7,7c-7.6,1.6-15.2,1.9-22.8,0.1
		c-7.4-1.8-12.9-5.6-14.3-13.6c-1.5-8.2,0.7-15.4,7.8-20.2c9.6-6.5,20.9-7.5,32-8.7c3-0.3,3,1.7,3,3.8
		C929.5,52,929.5,57.4,929.5,62.9z"/>
	<path class="st5" d="M597.4,9.3c14.5,0,24.3,10.2,24.3,24.7c0,3-1.3,3.8-3.8,4.1c-14.6,1.9-29.2,3.8-43.8,5.7
		c-1.8,0.2-3.2,0.4-3.8-2.2C567.2,26.1,581.2,9.3,597.4,9.3z"/>
</g>
<g>
	<path class="st6" d="M503.3,87.2c3.7,5.6,2.6,11.4,1.2,17.2c-0.5,2.1-2.2,1.7-3.9,1.4c-17-3.2-34.1-4.8-51.3-4.7
		c-14,0-28,0.8-41.4,5.7c-3.4,1.2-4.7-2.4-5.9-4.1c-3.3-4.7-5.7-9.9-6.4-16c-0.9-9.2,4.8-14.5,11-19.3c13.7-10.6,29.5-17.5,44.9-25
		c9.3-4.6,19.1-8.4,27.5-15.5c-3.4-1.6-6.8-2.1-10.3-2.2c-15.2-0.7-30.1,1.2-45,4c-3.2,0.6-4.7,0-5.1-3.3c-0.3-2.5-1-5-1.2-7.5
		C417,8,421.8,2.4,433.2-2c8.2-3.2,16.8-4.1,25.5-4.5c18.2-0.9,36.3,0.4,54.4,2.2c2.4,0.2,3.3,1.4,3.4,3.5c0.1,0.9,0.3,1.9,0,2.8
		c-1.8,5.6,1.3,9.8,4.3,13.8c4.4,5.6,3.1,10.5-3.6,12.8c-10.3,3.5-20.8,6.4-30.9,10.5c-12.7,5.1-25.2,10.3-35.5,19.6
		c-3.2,2.9-6,6.3-6.4,11c-0.2,3.1,0.6,4.3,4,3.8c9.3-1.4,18.6-1.3,27.9,0.1c4.6,0.7,9.1,1.7,13.7,3.7c0.8-2.8-0.7-5.5-0.6-8.1
		c0.7-10.5,5.7-18.9,13.5-25.3c11.9-9.7,25.9-13.8,41.1-13.5c4.7,0.1,9.2,1.1,13.2,3.9c4.3,3,5.9,8.9,3.9,13.5
		c-6.1,14.3-18.4,18.3-32.3,19.8c-2.1,0.2-5.6-1.2-5.7,2.5c-0.1,3.3,3.2,4,5.8,4.4c5.9,1,11.3-1.2,16.5-3.5c1.6-0.7,3.2-1.4,4.8-2.1
		c3.1-1.3,5.6,0.2,7.4,2.4c1.7,2.1,0.2,4-1.3,5.9c-4.4,5.4-10.8,7.1-16.9,9c-11.5,3.7-23.3,4.5-35,0.8
		C504.2,87,503.7,87.2,503.3,87.2z M523,54.7c0,1.4-0.1,2.9,1.4,3.4c1.3,0.5,2.5-0.1,3.7-0.8c3.8-2.3,4.9-6.3,6.9-9.8
		c1.6-2.7-0.2-4-1.5-5.4c-1.4-1.5-3.3-0.6-4.7,0.5C525.2,45.8,523.3,49.9,523,54.7z"/>
	<path class="st7" d="M814,43.8c0.2-9.9,0.2-9.9,9.2-10.2c4-0.1,8-0.3,11.9,0.7c5.1,1.3,6.2,3.8,4.2,8.8c-1,2.4-1.2,5.1-1.7,7.7
		c-2.9,14.4-8,28.2-11.1,42.6c-1.8,8.4-7.8,14.2-15.6,17.8c-13.6,6.1-27.5,7.9-41.8,2.4c-2.3-0.9-4.1-2.6-5.6-4.3
		c-2.8-2.9-1.8-7.9,1.5-10.4c1.5-1.1,3.2-1.9,4.8-2.7c4.1-2,7-1.6,9.7,2.4c2.5,3.7,6.5,5.8,10.9,6.8c6.3,1.4,11.2-1.1,14.7-8.1
		c2.4-4.8,2.9-10.4,4.1-15.6c0.2-0.8,0.5-2-0.7-2.4c-1.2-0.4-1.5,0.8-2,1.5c-2.1,2.9-4.8,5.2-7.7,7.2c-7.7,5.4-21.4-0.2-24.7-10.3
		c-3.5-10.6-0.6-20.3,1.1-30.4c0.8-4.8,1.9-9.5,4.2-14c0.8-1.5,1.6-2.6,3.2-3.2c7.2-2.7,14.2-0.9,21.2,0.8c2,0.5,1.1,1.2,0.6,2.5
		c-3.9,10.2-8.4,20.4-6.5,31.8c0.9,5.5,4.7,6.6,9.1,3.3c3.8-2.8,5.4-6.5,5.4-10.9C812.3,52.7,815.1,48,814,43.8z"/>
	<path class="st8" d="M664.9,42c5.7-4.5,11.1-8.4,18.3-8.7c11.1-0.4,17.8,5.6,18.2,16.9c0.3,6.1-0.9,11.8-3.4,17.7
		c-2.6,6.1-5.7,11.4-10.1,16.3c-7.7,8.5-22.6,13.7-32.4,5.3c-2.1-1.8-2.1,0.4-2.3,1.5c-1.3,6.8-1.9,13.7-0.9,20.7
		c0.2,1.6,0.6,2.9-1.4,3.4c-5.8,1.3-11.7,2.9-17.7,2.5c-6.9-0.5-8.6-2.4-7.5-9.2c1.2-7.2,4.1-13.8,6.7-20.5c0.9-2.2,1.4-4.6,1.9-6.9
		c1.9-9.1,3.5-18.2,5.8-27.2c1.2-4.9,2.4-9.7,2.2-14.8c-0.1-1.8,0-4.2-1-5.4c-3.1-3.5-0.1-3.1,1.9-3.4c4-0.5,7.9-1.3,11.9-1.3
		c7.5,0,10.7,1.9,9.8,9.7C664.8,39.5,664.9,40.5,664.9,42z M678.1,53.4c-0.5-2.7,0.6-5-1.6-6c-2-0.9-3.8,0.5-5.6,1.4
		c-0.7,0.3-1.2,1.1-1.8,1.6c-7.4,6.9-10.3,16-12.3,25.5c-0.3,1.5-1.9,3.6,0,4.7c1.6,0.9,3.6-0.3,5.2-1.3
		C672.2,73.2,675.7,63.2,678.1,53.4z"/>
	<path class="st9" d="M613.5,30.3c4.7,0.1,9.7,0.6,14.3,3.3c5.6,3.3,7.2,10.8,4,16.4c-6.7,11.8-17.7,16-30.2,17.4
		c-0.5,0.1-1.1,0-1.6,0.1c-2,0.5-5.2-1-5.4,2.4c-0.2,3.3,2.9,3.9,5.3,4.4c6.2,1.3,11.7-1.1,17.3-3.5c3.2-1.4,6.3-3.8,10.1-1.3
		c2.9,1.9,3.3,5,0.9,7.6c-4.4,4.8-10.4,6.7-16.3,8.7c-12,4-24.2,4.8-36.5,1.1c-10.5-3.2-15.5-11.5-14.3-20
		c1.3-9.4,5.8-17.5,13.4-23.4C585.7,34.8,598.7,30.5,613.5,30.3z M594.3,55.5c0,0.3-0.3,1.8,1.1,2.6c1.5,0.8,2.7-0.1,4-0.9
		c3.5-2.1,5-5.7,6.7-9c0.9-1.6,1.6-4.3-1.1-6c-2.1-1.3-3.9-0.9-5.3,0.7C596.8,46.2,594.3,49.8,594.3,55.5z"/>
	<path class="st10" d="M742.4,75.1c-2.9,4.4-6.7,7.8-11.2,10.3c-6.2,3.4-12.5,3.9-19,0.3c-3-1.7-5-4.3-5.7-7.2
		c-1.5-6.5-1.7-12.9,1.3-19.4c1.9-4.2,3.1-8.6,5.6-12.6c5.7-8.9,13.1-15.6,23.9-17.4c5.9-1,13.1-0.2,16,8.8c0.3,1,0.5,2.1,2,2
		c1.4,0,1.9-0.8,2.2-1.9c0.9-3.5,2.1-6.8,3.7-10c1.2-2.3,1.5-4.5-0.9-6.7c-2.3-2.1-0.6-6,3-8c2.9-1.7,8.5-0.8,10.8,1.7
		c2.7,2.9,1.5,7.5-3,9.2c-3,1.1-3.9,3-4.6,5.6c-0.6,2.4-1.2,4.8-2.7,7c-0.8,1.2-2.1,3.5,1.2,4.2c1.1,0.2,1.7,1.5,1.5,2.6
		c-0.5,3.7-0.8,7.5-2,10.9c-2.7,7.6-4.2,15.3-2.6,23.4c0.7,3.5,2.8,6.2,4.6,9.1c1,1.6,1.1,2.7-1.1,3.1c-4.6,0.7-9.1,1.9-13.8,1.3
		c-5.6-0.8-7.7-2.8-8-8.5c-0.2-2.5,0-4.9,0-7.4C743.1,75.4,742.7,75.2,742.4,75.1z M744.4,51.8c-0.4-2.6,0.9-6.1-1-7
		c-2.5-1.2-3.5,2.6-5.3,3.9c-0.1,0.1-0.3,0.1-0.4,0.2c-5.3,6.5-9.3,13.7-10.4,22.1c-0.2,1.2-0.6,2.8,0.8,3.7c1.5,1,2.8,0,4.1-0.7
		C740.4,68.8,744.2,61.1,744.4,51.8z M767.2,15.7c-1.5,0.3-3.8,0.4-3.9,3c-0.1,2.6,2.2,3.2,4.1,3.3c1.8,0.1,3.8-0.6,3.9-3
		C771.3,16.6,769.7,15.8,767.2,15.7z"/>
	<path class="st9" d="M823.6,17.1c-0.5,0.2-0.6-0.8-1.2-1.6c-2.9-4.1-4.5-8.7-7.5-12.8c-10.7-15.1-25.2-23.7-43.4-26.2
		c-9.5-1.3-18.9-0.8-28.2,1.3c-2.5,0.6-3.7-0.1-4.3-2.5c-0.3-1.3-0.8-2.5-1.5-3.7c-2.5-4.6-2.6-4.7,2.5-5.7
		c20.2-4.1,40.1-2.9,58.9,5.9c9.6,4.5,17.8,11.1,24.6,19.4c4.8,5.8,8.6,12.1,12.1,18.7c1.3,2.4,1.2,3.7-2,4.3
		C830.5,14.8,827.4,16,823.6,17.1z"/>
	<path class="st11" d="M506.2,111.2c0.3,2.2-0.8,4.1-1.4,6.2c-0.6,2-1.7,2.6-3.9,2.1c-16-3.7-32.2-4.9-48.5-6.1
		c-16.5-1.1-32.7-0.1-48.8,2.7c-3.6,0.6-7.2,2-10.6,3.3c-2.5,0.9-4.4,0.9-6.6-1c-10.3-8.9-15.3-21.5-12.4-35.1
		c0.8-3.8,3.3-6.5,5.7-9c7.4-7.8,16.5-13.6,25.8-18.8c16.5-9.1,33.6-16.8,50.4-25.3c2.6-1.3,5.2-1.9,8.1-1.4
		c-3.9,3.8-9.3,5-13.8,7.9c-0.3,0.3-0.6,0.5-0.9,0.8l0-0.1c-2.8,0.5-5.1,2.1-7.6,3.3c-6.8,3.4-14,6.2-20.4,10.4
		c-2.2,0.1-3.9,1.6-5.7,2.6c-6.9,3.7-14.1,7.1-20.1,12.2c-2.9,0.6-4.7,3-6.8,4.7c-5.1,4.1-10.5,8.4-11.5,15.5
		c-1.2,9.4,1.2,17.9,6.8,25.4c3.8,5.1,5.7,5.7,9.2,3.9c2.7-0.7,5.4-1.1,8-2.1c1.3-0.5,3.5,0.5,3.8-1.9c0.9,0,1.8-0.1,2.8-0.1
		c0.8,1.1,2,0.6,3,0.5c10.1-1.7,20.3-1.7,30.5-2.2c12.5,0.8,25.1,1.7,37.6,2.5c5.7,1,11.5,2,17.2,3c5.3,1,5.3,1,6.7-4.5
		C503.9,110.9,505.1,111.1,506.2,111.2L506.2,111.2z"/>
	<path class="st10" d="M760,4.2c-0.3,0-0.5,0-0.8,0c-2.2-0.1-5.1,1.4-6.6-0.1c-2-2.1-2.8-5.2-4.2-7.9c-0.8-1.5-0.1-2.2,1.4-2.5
		c16-2.4,30.9-1.2,43.2,11.2c4.6,4.6,7.3,10.2,10.6,15.5c0.7,1.2,0,1.6-1,1.9c-2.8,0.7-5.7,1.4-8.5,2.3c-2.1,0.7-2.1-0.9-2.7-2
		c-2.8-5.1-6.2-9.7-11.1-13.1C774.2,5.2,767.3,3.9,760,4.2z"/>
	<path class="st12" d="M393.3,115.4c-3.5,1.9-5.4,1.2-9.2-3.9c-5.7-7.5-8.1-16.1-6.8-25.4c1-7.1,6.3-11.4,11.5-15.5
		c2.1-1.7,3.8-4.2,6.8-4.7c0,1.4,1.2,2,1.8,3c-8.9,8.8-7.2,19.1-4.1,29.5C392.8,104.1,391.4,109.8,393.3,115.4z"/>
	<path class="st11" d="M413.8,26.9c1.3,2.1,0.7,3.2-1.7,3.4c-0.9,0.1-1.8,0.2-2.7,0.4c-7.3,1.7-7.4,1.7-9.4-5.4
		c-1-3.4-2.6-6.8-2.6-10.2C397.3,4.4,401.7-3.6,412-9c9.7-5.1,20.3-6.9,31-7.9c8.6-0.8,17.2-1.4,25.9-0.9
		c14.8,0.9,29.7,1.6,44.5,3.2c1.9,0.2,3.6,1,5,2.3c1.1,1.1,2.2,2.8,1.1,4.3c-0.9,1.3-2.4,0.3-3.6-0.2c0.1-2.1-1-3.1-3.1-3.3
		c-6.7-0.5-13.4-1.1-20.2-1.6c-5.3-1-10.7-1.1-16.1-1.2c-10.4-0.4-20.8-0.8-31.2,0.5c-8.2,0.5-16.4,1.3-24,4.6
		C405.9-4.7,398,5.7,402.1,21.5c1.6,6.2,2.6,6.6,8.9,5.7C411.9,27,412.9,27,413.8,26.9z"/>
	<path class="st13" d="M413.8,26.9c-0.9,0.1-1.9,0.1-2.8,0.3c-6.3,0.9-7.3,0.5-8.9-5.7C398,5.7,405.9-4.7,421.2-9.1
		c0.1,2.4-0.6,5.1,2,6.8c-6.5,4.7-11.2,10.4-10.7,19C412.8,20.1,413.4,23.5,413.8,26.9z"/>
	<path class="st14" d="M804-5.2c6.1,5.9,10.8,12.7,14.4,20.4c1,2.2,0.8,3.5-1.9,3.8c-3.3,0.4-7,3.5-9.7,1.2
		c-2.2-1.9-2.6-5.8-4.7-8.5c-1.3-1.6-2.1-3.7-3.1-5.5C800,2.1,799.5-2.6,804-5.2z"/>
	<path class="st15" d="M804-5.2c-4.5,2.6-4.1,7.2-4.9,11.4c-2.6-0.3-2.9-2.9-4.5-4.3c-4.7-4.1-10-7.2-15.7-9.8
		c0.3-3.7,0.7-7.3,3.4-10.2C790.7-15.6,797.8-11.1,804-5.2z"/>
	<path class="st13" d="M768.8-10.3c-6.9-0.8-13.8-0.6-20.7,0.8c-1.8,0.4-2.7-0.4-3.4-1.9c-3.8-7.4-3.4-8.1,4.7-9.2
		c7-0.9,14-1.4,21.1,0C770.2-17.1,768.4-13.9,768.8-10.3z"/>
	<path class="st15" d="M478.9,112.1c-12.5-0.8-25.1-1.7-37.6-2.5c0-1.4,0-2.8,0-4.2c11.6-0.9,23.1-0.7,34.5,1.6
		c1,0.2,2.1,0.1,3.2,0.1C478.9,108.9,478.9,110.5,478.9,112.1z"/>
	<path class="st16" d="M423.3-2.3c-2.7-1.7-1.9-4.3-2-6.8c7.7-3.4,15.8-4.1,24-4.6c0.3,1.3,0.5,2.7,0.8,4
		C438.2-8,430.5-6.1,423.3-2.3z"/>
	<path class="st14" d="M478.9,112.1c0-1.6,0-3.3,0-4.9c8.1-0.1,16,1.4,23.9,3.5c-1.4,5.4-1.4,5.4-6.7,4.5
		C490.4,114.1,484.6,113.2,478.9,112.1z"/>
	<path class="st16" d="M768.8-10.3c-0.4-3.6,1.4-6.8,1.7-10.3c4.2-0.2,8,1.6,12,2.5c-2.7,2.9-3.1,6.5-3.4,10.2
		C775.6-8.6,772.2-9.5,768.8-10.3z"/>
	<path class="st15" d="M446.1-9.7c-0.3-1.3-0.5-2.7-0.8-4c10.4-1.3,20.8-0.9,31.2-0.5c0.1,1.1,0.1,2.1,0.2,3.2
		C466.4-11.2,456.3-10.4,446.1-9.7z"/>
	<path class="st13" d="M393.3,115.4c-1.9-5.7-0.5-11.3-0.1-17c2.9,1.8,3,5.5,5.7,7.7c2.1,1.7,4,3.7,6.2,5.3
		c-0.3,2.4-2.5,1.4-3.8,1.9C398.7,114.3,396,114.8,393.3,115.4z"/>
	<path class="st16" d="M441.3,105.5c0,1.4,0,2.8,0,4.2c-10.2,0.5-20.4,0.5-30.5,2.2c-1,0.2-2.1,0.6-3-0.5c7.6-3.4,15.5-5.2,23.8-5
		C434.9,106.5,438,104.8,441.3,105.5z"/>
	<path class="st13" d="M397.3,68.9c-0.6-1-1.9-1.6-1.8-3c6-5.2,13.2-8.5,20.1-12.2c1.8-1,3.5-2.5,5.7-2.6c0,0.5,0,1-0.1,1.5
		c-7.8,4.6-15.8,8.9-22.2,15.5C398.6,68.5,397.9,68.7,397.3,68.9z"/>
	<path class="st10" d="M492.6-13.1c6.7,0.5,13.4,1.1,20.2,1.6c2.1,0.2,3.2,1.1,3.1,3.3c-7.5-0.7-15-1.4-22.5-2
		C493.1-11.2,492.9-12.1,492.6-13.1z"/>
	<path class="st17" d="M492.6-13.1c0.3,1,0.5,1.9,0.8,2.9c-5.6-0.3-11.2-0.6-16.8-0.8c-0.1-1.1-0.1-2.1-0.2-3.2
		C481.9-14.2,487.3-14.1,492.6-13.1z"/>
	<path class="st15" d="M421.2,52.6c0-0.5,0-1,0.1-1.5c6.4-4.2,13.6-6.9,20.4-10.4c2.4-1.2,4.8-2.8,7.6-3.3c0,0.3,0,0.6,0.1,0.9
		C439.9,43,430.6,47.8,421.2,52.6z"/>
	<path class="st17" d="M449.3,38.3c0-0.3,0-0.6-0.1-0.9c0,0,0,0.1,0,0.1c0.3-0.3,0.6-0.5,0.9-0.8c4.5-2.9,9.9-4.1,13.8-7.9
		c1.2,0,2.3-0.8,4.1,0.2C461.7,32.7,455.7,35.7,449.3,38.3z"/>
	<path class="st18" d="M522.8,0c0,2.2,0.1,4.4-0.1,6.6c0,0.6,0.3,2.3-1.3,1.8c-1.3-0.4-1.2-2-0.7-2.7C522.2,4,522.2,2,522.8,0z"/>
	<path class="st11" d="M469.2,68.5c-5,0-9.9,0-14.9,0c0-0.1,0-0.2,0-0.3c5,0,9.9,0,14.9,0C469.2,68.3,469.2,68.4,469.2,68.5z"/>
	<path class="st18" d="M754.4,7c4.5,0,9,0,13.5,0c0,0.1,0,0.3,0,0.4c-4.5,0-9,0-13.5,0C754.4,7.3,754.4,7.1,754.4,7z"/>
	<path class="st11" d="M520.4-5.8c-0.1,0.1-0.1,0.2-0.2,0.3c0-0.1-0.1-0.2-0.1-0.3c0-0.1,0.1-0.2,0.2-0.3
		C520.3-6,520.3-5.9,520.4-5.8z"/>
	<path class="st11" d="M506.2,111.2c0.1-0.1,0.1-0.2,0.2-0.3C506.3,111,506.2,111.1,506.2,111.2
		C506.2,111.2,506.2,111.2,506.2,111.2z"/>
	<path class="st18" d="M523,54.7c0.4-4.8,2.2-8.9,5.9-12.1c1.3-1.1,3.2-2,4.7-0.5c1.3,1.3,3,2.6,1.5,5.4c-2,3.5-3.1,7.6-6.9,9.8
		c-1.2,0.7-2.4,1.4-3.7,0.8C522.9,57.6,522.9,56.1,523,54.7z"/>
	<path class="st19" d="M678.1,53.4c-2.4,9.9-5.8,19.9-16.1,25.9c-1.6,1-3.6,2.2-5.2,1.3c-1.9-1.1-0.3-3.2,0-4.7
		c2-9.5,4.9-18.6,12.3-25.5c0.6-0.5,1.1-1.3,1.8-1.6c1.8-0.9,3.6-2.3,5.6-1.4C678.7,48.3,677.5,50.7,678.1,53.4z"/>
	<path class="st19" d="M594.3,55.5c0-5.7,2.5-9.3,5.4-12.5c1.4-1.6,3.2-2,5.3-0.7c2.7,1.7,2,4.3,1.1,6c-1.8,3.3-3.2,6.9-6.7,9
		c-1.3,0.8-2.5,1.7-4,0.9C593.9,57.3,594.3,55.7,594.3,55.5z"/>
	<path class="st19" d="M744.4,51.8c-0.3,9.3-4,17-12.3,22.2c-1.2,0.8-2.6,1.7-4.1,0.7c-1.3-0.9-0.9-2.5-0.8-3.7
		c1.2-8.4,5.1-15.6,10.4-22.1c0.1-0.1,0.3-0.1,0.4-0.2c1.9-1.3,2.9-5,5.3-3.9C745.3,45.8,744,49.2,744.4,51.8z"/>
	<path class="st19" d="M767.2,15.7c2.6,0.1,4.1,1,4.1,3.3c0,2.4-2.1,3.1-3.9,3c-1.9-0.1-4.2-0.7-4.1-3.3
		C763.4,16,765.7,16,767.2,15.7z"/>
	<path class="st15" d="M450.1,36.7c-0.3,0.3-0.6,0.5-0.9,0.8C449.5,37.2,449.8,36.9,450.1,36.7z"/>
</g>
</svg>
