<?xml version="1.0" encoding="utf-8"?>
<!-- Generator: Adobe Illustrator 19.0.0, SVG Export Plug-In . SVG Version: 6.00 Build 0)  -->
<svg version="1.1" id="Layer_1" xmlns="http://www.w3.org/2000/svg" xmlns:xlink="http://www.w3.org/1999/xlink" x="0px" y="0px"
	 width="121.4px" height="89px" viewBox="0 0 121.4 89" style="enable-background:new 0 0 121.4 89;" xml:space="preserve">
<style type="text/css">
	.st0{fill:#FFFFFF;stroke:#DDE4F0;stroke-width:3;}
	.st1{fill:none;}
	.st2{fill:#29ABE2;}
	.st3{fill:#4D4D4D;}
	.st4{fill:#FC7A51;}
	.st5{fill:#F4D521;}
	.st6{fill:#86D359;}
	.st7{fill:#77BC4A;}
	.st8{fill:#F9DE58;}
	.st9{fill:#D6B71D;}
	.st10{fill:#808080;}
	.st11{fill:#2BE0C6;}
	.st12{fill:#E6E6E6;}
	.st13{opacity:0.32;fill:#FFFFFF;enable-background:new    ;}
	.st14{fill:#999999;}
	.st15{fill:#CCCCCC;}
	.st16{fill:#F2F2F2;}
	.st17{fill:#2496B5;}
	.st18{opacity:0.2;fill:#4D4D4D;enable-background:new    ;}
</style>
<g id="XMLID_158_">
	<ellipse id="XMLID_159_" class="st0" cx="60.8" cy="43.7" rx="39.2" ry="39.4"/>
</g>
<g id="XMLID_2_">
	<path id="XMLID_112_" class="st1" d="M64.6,58.1c-0.2-0.1-0.3-0.2-0.5-0.2h0C64.2,57.9,64.4,58,64.6,58.1z"/>
	<path id="XMLID_111_" class="st1" d="M61.9,58.5c0.3-0.3,0.6-0.5,1-0.6h0C62.5,58,62.2,58.2,61.9,58.5c-0.2,0.2-0.4,0.5-0.5,0.8h0
		C61.5,59,61.7,58.7,61.9,58.5z"/>
	<path id="XMLID_107_" class="st2" d="M35.9,32.9v6.4c0,0.7,0.6,1.3,1.3,1.3h11v-7.7H35.9z M39.6,39c-0.1,0-0.1,0-0.2,0
		c-1,0-1.9-0.8-1.9-1.9c0-1,0.8-1.9,1.9-1.9c0.1,0,0.1,0,0.2,0c-0.4,0.5-0.7,1.2-0.7,1.9C38.9,37.9,39.1,38.5,39.6,39z M41.7,39
		c-1,0-1.9-0.8-1.9-1.9c0-1,0.8-1.9,1.9-1.9s1.9,0.8,1.9,1.9C43.6,38.2,42.7,39,41.7,39z"/>
	<path id="XMLID_106_" class="st2" d="M48.3,26.4h-11c-0.7,0-1.3,0.6-1.3,1.3v1.7h12.4V26.4z"/>
	<rect id="XMLID_105_" x="50.2" y="26.4" class="st2" width="0" height="3"/>
	<rect id="XMLID_104_" x="50.2" y="32.9" class="st2" width="0" height="7.7"/>
	<rect id="XMLID_103_" x="35.9" y="29.4" class="st3" width="12.4" height="3.5"/>
	<rect id="XMLID_102_" x="50.2" y="29.4" class="st3" width="0" height="3.5"/>
	<path id="XMLID_101_" class="st4" d="M39.4,35.3c-1,0-1.9,0.8-1.9,1.9c0,1,0.8,1.9,1.9,1.9c0.1,0,0.1,0,0.2,0
		c-0.4-0.5-0.7-1.2-0.7-1.9c0-0.7,0.3-1.4,0.7-1.9C39.5,35.3,39.5,35.3,39.4,35.3z"/>
	<circle id="XMLID_100_" class="st5" cx="41.7" cy="37.2" r="1.9"/>
	<path id="XMLID_99_" class="st6" d="M76.9,35c0,1.5,1.2,2.7,2.7,2.7v6.9c-1.5,0-2.7,1.2-2.7,2.7h-4.8V49h9.2V33.3h-9.2V35H76.9z"/>
	<path id="XMLID_98_" class="st7" d="M76.9,47.3c0-1.5,1.2-2.7,2.7-2.7v-6.9c-1.5,0-2.7-1.2-2.7-2.7h-4.8v12.3H76.9z"/>
	<path id="XMLID_97_" class="st8" d="M48.3,52.2V50c-0.5-0.6-0.8-1.3-0.8-2.1c0-0.8,0.3-1.6,0.8-2.1v-2.1c0.6-0.3,1.2-0.5,1.9-0.6v0
		c-0.7,0.1-1.4,0.2-1.9,0.6c-1.5,0.8-2.5,2.4-2.5,4.3C45.8,49.8,46.8,51.3,48.3,52.2c0.6,0.3,1.2,0.5,1.9,0.6v0
		C49.5,52.7,48.9,52.5,48.3,52.2z"/>
	<path id="XMLID_96_" class="st9" d="M47.5,47.9c0,0.8,0.3,1.6,0.8,2.1v-4.3C47.8,46.3,47.5,47.1,47.5,47.9z"/>
	<path id="XMLID_95_" class="st10" d="M51.2,51.2V24.5H58l-1.5-4.9h-3.9c-1.3,0-2.4,1.1-2.4,2.4v4.4v3v3.5v7.7v2.5v0c0,0,0,0,0,0
		v9.6c0,0,0,0,0,0v0v1.6c0,1.3,1.1,2.4,2.4,2.4h4.2v-5.6H51.2z"/>
	<path id="XMLID_87_" class="st11" d="M53.7,49.3h-0.9v-2.7h0.9h11.1l-0.9-3.1v0.2c0,0.2-0.1,0.3-0.3,0.3h-2c-0.2,0-0.3-0.1-0.3-0.3
		v-2c0-0.2,0.1-0.3,0.3-0.3h1.7L62.8,40h-1.3c-0.2,0-0.3-0.1-0.3-0.3v-2c0-0.2,0.1-0.3,0.3-0.3h0.5L61.5,36h-0.1
		c-0.2,0-0.3-0.1-0.3-0.3v-0.9l-1-3.4h-6.9c-0.2,0-0.3-0.1-0.3-0.3v-3.9c0-0.2,0.1-0.3,0.3-0.3h5.5L58,24.5l0,0h-6.8v26.7h5.6v-1
		c0-0.3-0.1-0.6-0.2-0.8H53.7z M55.5,35.7c0,0.2-0.1,0.3-0.3,0.3h-2c-0.2,0-0.3-0.1-0.3-0.3v-2c0-0.2,0.1-0.3,0.3-0.3h2
		c0.2,0,0.3,0.1,0.3,0.3V35.7z M53.2,37.3h2c0.2,0,0.3,0.1,0.3,0.3v2c0,0.2-0.1,0.3-0.3,0.3h-2c-0.2,0-0.3-0.1-0.3-0.3v-2
		C52.9,37.5,53,37.3,53.2,37.3z M53.2,41.4h2c0.2,0,0.3,0.1,0.3,0.3v2c0,0.2-0.1,0.3-0.3,0.3h-2c-0.2,0-0.3-0.1-0.3-0.3v-2
		C52.9,41.6,53,41.4,53.2,41.4z M59.7,43.8c0,0.2-0.1,0.3-0.3,0.3h-2c-0.2,0-0.3-0.1-0.3-0.3v-2c0-0.2,0.1-0.3,0.3-0.3h2
		c0.2,0,0.3,0.1,0.3,0.3V43.8z M59.7,39.7c0,0.2-0.1,0.3-0.3,0.3h-2c-0.2,0-0.3-0.1-0.3-0.3v-2c0-0.2,0.1-0.3,0.3-0.3h2
		c0.2,0,0.3,0.1,0.3,0.3V39.7z M59.7,35.7c0,0.2-0.1,0.3-0.3,0.3h-2c-0.2,0-0.3-0.1-0.3-0.3v-2c0-0.2,0.1-0.3,0.3-0.3h2
		c0.2,0,0.3,0.1,0.3,0.3V35.7z"/>
	<path id="XMLID_86_" class="st12" d="M58.7,26.8h-5.5c-0.2,0-0.3,0.1-0.3,0.3V31c0,0.2,0.1,0.3,0.3,0.3h6.9L58.7,26.8z"/>
	<path id="XMLID_85_" class="st10" d="M55.2,33.3h-2c-0.2,0-0.3,0.1-0.3,0.3v2c0,0.2,0.1,0.3,0.3,0.3h2c0.2,0,0.3-0.1,0.3-0.3v-2
		C55.5,33.5,55.4,33.3,55.2,33.3z"/>
	<path id="XMLID_84_" class="st10" d="M59.4,33.3h-2c-0.2,0-0.3,0.1-0.3,0.3v2c0,0.2,0.1,0.3,0.3,0.3h2c0.2,0,0.3-0.1,0.3-0.3v-2
		C59.7,33.5,59.5,33.3,59.4,33.3z"/>
	<path id="XMLID_83_" class="st10" d="M61.2,34.8v0.9c0,0.2,0.1,0.3,0.3,0.3h0.1L61.2,34.8z"/>
	<path id="XMLID_82_" class="st10" d="M52.9,39.7c0,0.2,0.1,0.3,0.3,0.3h2c0.2,0,0.3-0.1,0.3-0.3v-2c0-0.2-0.1-0.3-0.3-0.3h-2
		c-0.2,0-0.3,0.1-0.3,0.3V39.7z"/>
	<path id="XMLID_81_" class="st10" d="M59.4,37.3h-2c-0.2,0-0.3,0.1-0.3,0.3v2c0,0.2,0.1,0.3,0.3,0.3h2c0.2,0,0.3-0.1,0.3-0.3v-2
		C59.7,37.5,59.5,37.3,59.4,37.3z"/>
	<path id="XMLID_80_" class="st10" d="M61.5,37.3c-0.2,0-0.3,0.1-0.3,0.3v2c0,0.2,0.1,0.3,0.3,0.3h1.3l-0.8-2.7H61.5z"/>
	<path id="XMLID_79_" class="st10" d="M52.9,43.8c0,0.2,0.1,0.3,0.3,0.3h2c0.2,0,0.3-0.1,0.3-0.3v-2c0-0.2-0.1-0.3-0.3-0.3h-2
		c-0.2,0-0.3,0.1-0.3,0.3V43.8z"/>
	<path id="XMLID_78_" class="st10" d="M59.4,41.4h-2c-0.2,0-0.3,0.1-0.3,0.3v2c0,0.2,0.1,0.3,0.3,0.3h2c0.2,0,0.3-0.1,0.3-0.3v-2
		C59.7,41.6,59.5,41.4,59.4,41.4z"/>
	<path id="XMLID_77_" class="st10" d="M61.5,41.4c-0.2,0-0.3,0.1-0.3,0.3v2c0,0.2,0.1,0.3,0.3,0.3h2c0.2,0,0.3-0.1,0.3-0.3v-0.2
		l-0.6-2.1H61.5z"/>
	<path id="XMLID_76_" class="st10" d="M69.6,24.5V49c0.2,0.3,0.3,0.8,0.3,1.2V56c0.4-0.4,0.6-1,0.6-1.6V49v-1.7V35v-1.7V22
		c0-1.3-1.1-2.4-2.4-2.4H56.5l1.5,4.9H69.6z"/>
	<path id="XMLID_75_" class="st13" d="M69.6,24.5V49c0.2,0.3,0.3,0.8,0.3,1.2V56c0.4-0.4,0.6-1,0.6-1.6V49v-1.7V35v-1.7V22
		c0-1.3-1.1-2.4-2.4-2.4H56.5l1.5,4.9H69.6z"/>
	<path id="XMLID_70_" class="st11" d="M58.7,26.8h8.9c0.2,0,0.3,0.1,0.3,0.3V31c0,0.2-0.1,0.3-0.3,0.3h-7.5l1,3.4v-1.1
		c0-0.2,0.1-0.3,0.3-0.3h2c0.2,0,0.3,0.1,0.3,0.3v2c0,0.2-0.1,0.3-0.3,0.3h-2l0.4,1.3h1.6c0.2,0,0.3,0.1,0.3,0.3v2
		c0,0.2-0.1,0.3-0.3,0.3h-0.8l0.4,1.4h0.3c0.2,0,0.3,0.1,0.3,0.3v1.8l0.9,3.1h2.3H68v1.3c0.7,0.1,1.3,0.5,1.6,1.1V24.5H58l0,0
		L58.7,26.8z M68,43.8c0,0.2-0.1,0.3-0.3,0.3h-2c-0.2,0-0.3-0.1-0.3-0.3v-2c0-0.2,0.1-0.3,0.3-0.3h2c0.2,0,0.3,0.1,0.3,0.3V43.8z
		 M68,39.7c0,0.2-0.1,0.3-0.3,0.3h-2c-0.2,0-0.3-0.1-0.3-0.3v-2c0-0.2,0.1-0.3,0.3-0.3h2c0.2,0,0.3,0.1,0.3,0.3V39.7z M68,35.7
		c0,0.2-0.1,0.3-0.3,0.3h-2c-0.2,0-0.3-0.1-0.3-0.3v-2c0-0.2,0.1-0.3,0.3-0.3h2c0.2,0,0.3,0.1,0.3,0.3V35.7z"/>
	<path id="XMLID_65_" class="st13" d="M58.7,26.8h8.9c0.2,0,0.3,0.1,0.3,0.3V31c0,0.2-0.1,0.3-0.3,0.3h-7.5l1,3.4v-1.1
		c0-0.2,0.1-0.3,0.3-0.3h2c0.2,0,0.3,0.1,0.3,0.3v2c0,0.2-0.1,0.3-0.3,0.3h-2l0.4,1.3h1.6c0.2,0,0.3,0.1,0.3,0.3v2
		c0,0.2-0.1,0.3-0.3,0.3h-0.8l0.4,1.4h0.3c0.2,0,0.3,0.1,0.3,0.3v1.8l0.9,3.1h2.3H68v1.3c0.7,0.1,1.3,0.5,1.6,1.1V24.5H58l0,0
		L58.7,26.8z M68,43.8c0,0.2-0.1,0.3-0.3,0.3h-2c-0.2,0-0.3-0.1-0.3-0.3v-2c0-0.2,0.1-0.3,0.3-0.3h2c0.2,0,0.3,0.1,0.3,0.3V43.8z
		 M68,39.7c0,0.2-0.1,0.3-0.3,0.3h-2c-0.2,0-0.3-0.1-0.3-0.3v-2c0-0.2,0.1-0.3,0.3-0.3h2c0.2,0,0.3,0.1,0.3,0.3V39.7z M68,35.7
		c0,0.2-0.1,0.3-0.3,0.3h-2c-0.2,0-0.3-0.1-0.3-0.3v-2c0-0.2,0.1-0.3,0.3-0.3h2c0.2,0,0.3,0.1,0.3,0.3V35.7z"/>
	<path id="XMLID_62_" class="st12" d="M68,31v-3.9c0-0.2-0.1-0.3-0.3-0.3h-8.9l1.4,4.6h7.5C67.8,31.3,68,31.2,68,31z M66.6,30.5
		h-3.2v-0.8h3.2V30.5z"/>
	<path id="XMLID_59_" class="st13" d="M68,31v-3.9c0-0.2-0.1-0.3-0.3-0.3h-8.9l1.4,4.6h7.5C67.8,31.3,68,31.2,68,31z M66.6,30.5
		h-3.2v-0.8h3.2V30.5z"/>
	<path id="XMLID_58_" class="st8" d="M67.7,33.3h-2c-0.2,0-0.3,0.1-0.3,0.3v2c0,0.2,0.1,0.3,0.3,0.3h2c0.2,0,0.3-0.1,0.3-0.3v-2
		C68,33.5,67.8,33.3,67.7,33.3z"/>
	<path id="XMLID_57_" class="st13" d="M67.7,33.3h-2c-0.2,0-0.3,0.1-0.3,0.3v2c0,0.2,0.1,0.3,0.3,0.3h2c0.2,0,0.3-0.1,0.3-0.3v-2
		C68,33.5,67.8,33.3,67.7,33.3z"/>
	<path id="XMLID_56_" class="st4" d="M67.7,37.3h-2c-0.2,0-0.3,0.1-0.3,0.3v2c0,0.2,0.1,0.3,0.3,0.3h2c0.2,0,0.3-0.1,0.3-0.3v-2
		C68,37.5,67.8,37.3,67.7,37.3z"/>
	<path id="XMLID_55_" class="st13" d="M67.7,37.3h-2c-0.2,0-0.3,0.1-0.3,0.3v2c0,0.2,0.1,0.3,0.3,0.3h2c0.2,0,0.3-0.1,0.3-0.3v-2
		C68,37.5,67.8,37.3,67.7,37.3z"/>
	<path id="XMLID_54_" class="st10" d="M63.8,35.7v-2c0-0.2-0.1-0.3-0.3-0.3h-2c-0.2,0-0.3,0.1-0.3,0.3v1.1l0.4,1.2h2
		C63.7,36,63.8,35.9,63.8,35.7z"/>
	<path id="XMLID_53_" class="st13" d="M63.8,35.7v-2c0-0.2-0.1-0.3-0.3-0.3h-2c-0.2,0-0.3,0.1-0.3,0.3v1.1l0.4,1.2h2
		C63.7,36,63.8,35.9,63.8,35.7z"/>
	<path id="XMLID_52_" class="st10" d="M63.8,39.7v-2c0-0.2-0.1-0.3-0.3-0.3h-1.6l0.8,2.7h0.8C63.7,40,63.8,39.9,63.8,39.7z"/>
	<path id="XMLID_51_" class="st13" d="M63.8,39.7v-2c0-0.2-0.1-0.3-0.3-0.3h-1.6l0.8,2.7h0.8C63.7,40,63.8,39.9,63.8,39.7z"/>
	<path id="XMLID_50_" class="st10" d="M63.5,41.4h-0.3l0.6,2.1v-1.8C63.8,41.6,63.7,41.4,63.5,41.4z"/>
	<path id="XMLID_49_" class="st13" d="M63.5,41.4h-0.3l0.6,2.1v-1.8C63.8,41.6,63.7,41.4,63.5,41.4z"/>
	<path id="XMLID_48_" class="st10" d="M67.7,41.4h-2c-0.2,0-0.3,0.1-0.3,0.3v2c0,0.2,0.1,0.3,0.3,0.3h2c0.2,0,0.3-0.1,0.3-0.3v-2
		C68,41.6,67.8,41.4,67.7,41.4z"/>
	<path id="XMLID_47_" class="st13" d="M67.7,41.4h-2c-0.2,0-0.3,0.1-0.3,0.3v2c0,0.2,0.1,0.3,0.3,0.3h2c0.2,0,0.3-0.1,0.3-0.3v-2
		C68,41.6,67.8,41.4,67.7,41.4z"/>
	<rect id="XMLID_46_" x="63.4" y="29.7" class="st14" width="3.2" height="0.8"/>
	<rect id="XMLID_45_" x="63.4" y="29.7" class="st13" width="3.2" height="0.8"/>
	<path id="XMLID_41_" class="st12" d="M70,50.2H56.8v1v5.6V60c0,1.2,1,2.2,2.2,2.2c0.6,0,1.2-0.2,1.6-0.7c0.3-0.3,0.6-0.8,0.6-1.2
		h-2.7v-1.1h2.9c0.1-0.3,0.3-0.6,0.5-0.8c0.3-0.3,0.6-0.5,1-0.6h-4.4v-1.1h9.8v1H70V56V50.2z M58.5,55.4v-1.1h9.8v1.1H58.5z
		 M58.5,52.9v-1.1h9.8v1.1H58.5z"/>
	<rect id="XMLID_40_" x="58.5" y="51.8" class="st14" width="9.8" height="1.1"/>
	<rect id="XMLID_39_" x="58.5" y="54.3" class="st14" width="9.8" height="1.1"/>
	<path id="XMLID_38_" class="st14" d="M63.5,57.8c0.2,0,0.4,0,0.6,0.1h0C63.9,57.8,63.7,57.8,63.5,57.8l4.8,0v-1h-9.8v1.1h4.4h0
		C63.1,57.8,63.3,57.8,63.5,57.8z"/>
	<path id="XMLID_37_" class="st14" d="M61.4,59.3L61.4,59.3h-2.9v1.1h2.7h0c0-0.1,0-0.2,0-0.3C61.2,59.8,61.3,59.5,61.4,59.3z"/>
	<path id="XMLID_36_" class="st15" d="M65.7,60c0-0.6-0.2-1.2-0.7-1.6c-0.1-0.1-0.3-0.3-0.5-0.4c-0.2-0.1-0.3-0.2-0.5-0.2
		c-0.2-0.1-0.4-0.1-0.6-0.1s-0.4,0-0.6,0.1c-0.4,0.1-0.7,0.3-1,0.6c-0.2,0.2-0.4,0.5-0.5,0.8c-0.1,0.2-0.1,0.5-0.1,0.8
		c0,0.1,0,0.2,0,0.3c-0.1,0.5-0.3,0.9-0.6,1.2c-0.4,0.4-1,0.7-1.6,0.7h6.7V60z"/>
	<path id="XMLID_31_" class="st12" d="M65.7,60v2.2v6.7l1.3,1.3l1.3-1.3l1.3,1.3l1.3-1.3l1.3,1.3l1.3-1.3l1.3,1.3l1.3-1.3l1.3,1.3
		l1.3-1.3V60H65.7z M77.1,67.2h-9.8V66h9.8V67.2z M77.1,64.7h-9.8v-1.1h9.8V64.7z M77.1,62.2h-9.8v-1.1h9.8V62.2z"/>
	<path id="XMLID_30_" class="st16" d="M63.5,57.8c0.2,0,0.4,0,0.6,0.1c0.2,0.1,0.4,0.1,0.5,0.2c0.2,0.1,0.3,0.2,0.5,0.4
		c0.4,0.4,0.7,1,0.7,1.6h13.2h0c0-0.6-0.2-1.2-0.7-1.6c-0.3-0.3-0.7-0.5-1.1-0.6c-0.1,0-0.3,0-0.4,0H70h-1.7H63.5z"/>
	<rect id="XMLID_29_" x="67.4" y="61.1" class="st14" width="9.8" height="1.1"/>
	<rect id="XMLID_28_" x="67.4" y="63.6" class="st14" width="9.8" height="1.1"/>
	<rect id="XMLID_27_" x="67.4" y="66" class="st14" width="9.8" height="1.1"/>
	<rect id="XMLID_26_" x="52.8" y="46.6" class="st17" width="0.9" height="2.7"/>
	<path id="XMLID_25_" class="st2" d="M68,46.6h-0.9h-2.3H53.7v2.7h3c-0.1-0.3-0.3-0.6-0.5-0.8h-1.8v-1.2h13.1v0.5h0.3
		c0.1,0,0.2,0,0.3,0V46.6z"/>
	<path id="XMLID_24_" class="st17" d="M54.3,47.4v1.2h1.8c-0.4-0.4-1-0.7-1.6-0.7h2.3h10.6v-0.5H54.3z"/>
	<path id="XMLID_23_" class="st12" d="M68,47.9c-0.1,0-0.2,0-0.3,0h-0.3H56.8h-2.3c0.6,0,1.2,0.3,1.6,0.7c0.2,0.2,0.4,0.5,0.5,0.8
		c0.1,0.3,0.2,0.5,0.2,0.8H70c0-0.4-0.1-0.8-0.3-1.2C69.3,48.4,68.7,48,68,47.9z"/>
	<rect id="XMLID_22_" x="48.3" y="26.4" class="st2" width="1.9" height="3"/>
	<rect id="XMLID_21_" x="48.3" y="26.4" class="st18" width="1.9" height="3"/>
	<rect id="XMLID_20_" x="48.3" y="32.9" class="st2" width="1.9" height="7.7"/>
	<rect id="XMLID_19_" x="48.3" y="32.9" class="st18" width="1.9" height="7.7"/>
	<rect id="XMLID_18_" x="48.3" y="29.4" class="st3" width="1.9" height="3.5"/>
	<rect id="XMLID_17_" x="48.3" y="29.4" class="st18" width="1.9" height="3.5"/>
	<path id="XMLID_16_" class="st8" d="M48.3,45.8c0.5-0.5,1.2-0.9,1.9-1v-1.7c-0.7,0.1-1.4,0.2-1.9,0.6V45.8z"/>
	<path id="XMLID_15_" class="st18" d="M48.3,45.8c0.5-0.5,1.2-0.9,1.9-1v-1.7c-0.7,0.1-1.4,0.2-1.9,0.6V45.8z"/>
	<path id="XMLID_14_" class="st8" d="M48.3,50v2.1c0.6,0.3,1.2,0.5,1.9,0.6V51C49.5,50.9,48.8,50.6,48.3,50z"/>
	<path id="XMLID_13_" class="st18" d="M48.3,50v2.1c0.6,0.3,1.2,0.5,1.9,0.6V51C49.5,50.9,48.8,50.6,48.3,50z"/>
	<path id="XMLID_12_" class="st9" d="M50.2,51v-6.2c-0.8,0.1-1.4,0.4-1.9,1V50C48.8,50.6,49.5,50.9,50.2,51z"/>
	<path id="XMLID_11_" class="st18" d="M50.2,51v-6.2c-0.8,0.1-1.4,0.4-1.9,1V50C48.8,50.6,49.5,50.9,50.2,51z"/>
	<polygon id="XMLID_10_" class="st10" points="50.2,51 50.2,52.7 50.2,52.7 50.2,43.1 50.2,43.1 50.2,44.8 	"/>
	<polygon id="XMLID_9_" class="st18" points="50.2,51 50.2,52.7 50.2,52.7 50.2,43.1 50.2,43.1 50.2,44.8 	"/>
	<rect id="XMLID_8_" x="70.6" y="47.3" class="st6" width="1.5" height="1.7"/>
	<rect id="XMLID_7_" x="70.6" y="47.3" class="st18" width="1.5" height="1.7"/>
	<rect id="XMLID_6_" x="70.6" y="33.3" class="st6" width="1.5" height="1.7"/>
	<rect id="XMLID_5_" x="70.6" y="33.3" class="st18" width="1.5" height="1.7"/>
	<rect id="XMLID_4_" x="70.6" y="35" class="st7" width="1.5" height="12.3"/>
	<rect id="XMLID_3_" x="70.6" y="35" class="st18" width="1.5" height="12.3"/>
</g>
</svg>
