<?xml version="1.0" encoding="utf-8"?>
<!-- Generator: Adobe Illustrator 19.0.0, SVG Export Plug-In . SVG Version: 6.00 Build 0)  -->
<svg version="1.1" id="Layer_1" xmlns="http://www.w3.org/2000/svg" xmlns:xlink="http://www.w3.org/1999/xlink" x="0px" y="0px"
	 width="189px" height="89px" viewBox="0 0 189 89" style="enable-background:new 0 0 189 89;" xml:space="preserve">
<style type="text/css">
	.st0{fill:#FFFFFF;}
	.st1{fill:none;stroke:#43AE7A;stroke-width:1.5;}
	.st2{fill:#FFFFFF;stroke:#DDE4F0;stroke-width:2;}
	.st3{fill:none;}
	.st4{fill:#29ABE2;}
	.st5{fill:#4D4D4D;}
	.st6{fill:#FC7A51;}
	.st7{fill:#F4D521;}
	.st8{fill:#86D359;}
	.st9{fill:#77BC4A;}
	.st10{fill:#F9DE58;}
	.st11{fill:#D6B71D;}
	.st12{fill:#808080;}
	.st13{fill:#2BE0C6;}
	.st14{fill:#E6E6E6;}
	.st15{opacity:0.32;fill:#FFFFFF;enable-background:new    ;}
	.st16{fill:#999999;}
	.st17{fill:#CCCCCC;}
	.st18{fill:#F2F2F2;}
	.st19{fill:#2496B5;}
	.st20{opacity:0.2;fill:#4D4D4D;enable-background:new    ;}
</style>
<g>
	<path class="st0" d="M0,2h189v87H0V2z"/>
	<path class="st1" d="M29.5,38.8 M29.5,51.8 M25.7,45.3 M19.3,45.3 M159.7,45.3 M168.8,45.3"/>
	<ellipse class="st2" cx="94.5" cy="43.7" rx="42.5" ry="42.7"/>
</g>
<g id="XMLID_2_">
	<path id="XMLID_112_" class="st3" d="M99.7,61.4c-0.2-0.1-0.4-0.2-0.7-0.3h0C99.3,61.2,99.5,61.3,99.7,61.4z"/>
	<path id="XMLID_111_" class="st3" d="M96.3,61.9c0.3-0.3,0.8-0.6,1.2-0.7h0C97.1,61.3,96.7,61.5,96.3,61.9c-0.3,0.3-0.5,0.6-0.6,1
		h0C95.8,62.5,96.1,62.1,96.3,61.9z"/>
	<path id="XMLID_107_" class="st4" d="M63.9,29.9v8c0,0.9,0.8,1.7,1.7,1.7h13.8v-9.7H63.9z M68.5,37.5c-0.1,0-0.2,0-0.2,0
		c-1.3,0-2.4-1.1-2.4-2.4c0-1.3,1.1-2.4,2.4-2.4c0.1,0,0.2,0,0.2,0c-0.6,0.6-0.9,1.4-0.9,2.3C67.6,36.1,67.9,36.9,68.5,37.5z
		 M71.1,37.6c-1.3,0-2.4-1.1-2.4-2.4c0-1.3,1.1-2.4,2.4-2.4s2.4,1.1,2.4,2.4C73.4,36.5,72.4,37.6,71.1,37.6z"/>
	<path id="XMLID_106_" class="st4" d="M79.3,21.8H65.5c-0.9,0-1.7,0.8-1.7,1.7v2.1h15.5V21.8z"/>
	<rect id="XMLID_105_" x="81.8" y="21.8" class="st4" width="0" height="3.8"/>
	<rect id="XMLID_104_" x="81.8" y="29.9" class="st4" width="0" height="9.7"/>
	<rect id="XMLID_103_" x="63.9" y="25.6" class="st5" width="15.5" height="4.3"/>
	<rect id="XMLID_102_" x="81.8" y="25.6" class="st5" width="0" height="4.3"/>
	<path id="XMLID_101_" class="st6" d="M68.2,32.8c-1.3,0-2.4,1.1-2.4,2.4c0,1.3,1.1,2.4,2.4,2.4c0.1,0,0.2,0,0.2,0
		c-0.6-0.6-0.9-1.4-0.9-2.3c0-0.9,0.3-1.7,0.9-2.3C68.4,32.9,68.3,32.8,68.2,32.8z"/>
	<circle id="XMLID_100_" class="st7" cx="71.1" cy="35.2" r="2.4"/>
	<path id="XMLID_99_" class="st8" d="M115.1,32.5c0,1.9,1.5,3.4,3.4,3.4v8.6c-1.9,0-3.4,1.5-3.4,3.4h-6V50h11.5V30.4h-11.5v2.1
		H115.1z"/>
	<path id="XMLID_98_" class="st9" d="M115.1,47.9c0-1.9,1.6-3.4,3.4-3.4v-8.6c-1.9,0-3.4-1.5-3.4-3.4h-6v15.4H115.1z"/>
	<path id="XMLID_97_" class="st10" d="M79.3,54v-2.7c-0.6-0.7-1.1-1.6-1.1-2.7s0.4-2,1.1-2.7v-2.7c0.7-0.4,1.5-0.6,2.4-0.7v0
		c-0.9,0.1-1.7,0.3-2.4,0.7c-1.9,1-3.2,3-3.2,5.3S77.5,53,79.3,54c0.7,0.4,1.5,0.6,2.4,0.7v0C80.9,54.6,80.1,54.4,79.3,54z"/>
	<path id="XMLID_96_" class="st11" d="M78.3,48.7c0,1,0.4,2,1.1,2.7V46C78.7,46.7,78.3,47.6,78.3,48.7z"/>
	<path id="XMLID_95_" class="st12" d="M83,52.8V19.4h8.6l-1.9-6.1h-4.9c-1.7,0-3,1.3-3,3v5.5v3.8v4.3v9.7v3.1v0c0,0,0,0,0,0v12
		c0,0,0,0,0,0v0v2c0,1.7,1.3,3,3,3H90v-6.9H83z"/>
	<path id="XMLID_87_" class="st13" d="M86,50.4h-1.1V47H86h13.9l-1.2-3.9v0.3c0,0.2-0.2,0.4-0.4,0.4h-2.6c-0.2,0-0.4-0.2-0.4-0.4
		v-2.6c0-0.2,0.2-0.4,0.4-0.4H98l-0.5-1.8h-1.6c-0.2,0-0.4-0.2-0.4-0.4v-2.6c0-0.2,0.2-0.4,0.4-0.4h0.6l-0.5-1.7h-0.1
		c-0.2,0-0.4-0.2-0.4-0.4v-1.1l-1.3-4.3h-8.7c-0.2,0-0.4-0.2-0.4-0.4v-4.9c0-0.2,0.2-0.4,0.4-0.4h6.9l-0.9-2.9l0,0H83v33.4h7v-1.3
		c0-0.4-0.1-0.7-0.2-1H86z M88.4,33.4c0,0.2-0.2,0.4-0.4,0.4h-2.6c-0.2,0-0.4-0.2-0.4-0.4v-2.6c0-0.2,0.2-0.4,0.4-0.4H88
		c0.2,0,0.4,0.2,0.4,0.4V33.4z M85.5,35.4H88c0.2,0,0.4,0.2,0.4,0.4v2.6c0,0.2-0.2,0.4-0.4,0.4h-2.6c-0.2,0-0.4-0.2-0.4-0.4v-2.6
		C85.1,35.6,85.2,35.4,85.5,35.4z M85.5,40.5H88c0.2,0,0.4,0.2,0.4,0.4v2.6c0,0.2-0.2,0.4-0.4,0.4h-2.6c-0.2,0-0.4-0.2-0.4-0.4v-2.6
		C85.1,40.7,85.2,40.5,85.5,40.5z M93.6,43.5c0,0.2-0.2,0.4-0.4,0.4h-2.6c-0.2,0-0.4-0.2-0.4-0.4v-2.6c0-0.2,0.2-0.4,0.4-0.4h2.6
		c0.2,0,0.4,0.2,0.4,0.4V43.5z M93.6,38.4c0,0.2-0.2,0.4-0.4,0.4h-2.6c-0.2,0-0.4-0.2-0.4-0.4v-2.6c0-0.2,0.2-0.4,0.4-0.4h2.6
		c0.2,0,0.4,0.2,0.4,0.4V38.4z M93.6,33.4c0,0.2-0.2,0.4-0.4,0.4h-2.6c-0.2,0-0.4-0.2-0.4-0.4v-2.6c0-0.2,0.2-0.4,0.4-0.4h2.6
		c0.2,0,0.4,0.2,0.4,0.4V33.4z"/>
	<path id="XMLID_86_" class="st14" d="M92.4,22.3h-6.9c-0.2,0-0.4,0.2-0.4,0.4v4.9c0,0.2,0.2,0.4,0.4,0.4h8.7L92.4,22.3z"/>
	<path id="XMLID_85_" class="st12" d="M88,30.4h-2.6c-0.2,0-0.4,0.2-0.4,0.4v2.6c0,0.2,0.2,0.4,0.4,0.4H88c0.2,0,0.4-0.2,0.4-0.4
		v-2.6C88.4,30.6,88.2,30.4,88,30.4z"/>
	<path id="XMLID_84_" class="st12" d="M93.2,30.4h-2.6c-0.2,0-0.4,0.2-0.4,0.4v2.6c0,0.2,0.2,0.4,0.4,0.4h2.6c0.2,0,0.4-0.2,0.4-0.4
		v-2.6C93.6,30.6,93.4,30.4,93.2,30.4z"/>
	<path id="XMLID_83_" class="st12" d="M95.4,32.2v1.1c0,0.2,0.2,0.4,0.4,0.4h0.1L95.4,32.2z"/>
	<path id="XMLID_82_" class="st12" d="M85.1,38.4c0,0.2,0.2,0.4,0.4,0.4H88c0.2,0,0.4-0.2,0.4-0.4v-2.6c0-0.2-0.2-0.4-0.4-0.4h-2.6
		c-0.2,0-0.4,0.2-0.4,0.4V38.4z"/>
	<path id="XMLID_81_" class="st12" d="M93.2,35.4h-2.6c-0.2,0-0.4,0.2-0.4,0.4v2.6c0,0.2,0.2,0.4,0.4,0.4h2.6c0.2,0,0.4-0.2,0.4-0.4
		v-2.6C93.6,35.6,93.4,35.4,93.2,35.4z"/>
	<path id="XMLID_80_" class="st12" d="M95.8,35.4c-0.2,0-0.4,0.2-0.4,0.4v2.6c0,0.2,0.2,0.4,0.4,0.4h1.6l-1-3.3H95.8z"/>
	<path id="XMLID_79_" class="st12" d="M85.1,43.5c0,0.2,0.2,0.4,0.4,0.4H88c0.2,0,0.4-0.2,0.4-0.4v-2.6c0-0.2-0.2-0.4-0.4-0.4h-2.6
		c-0.2,0-0.4,0.2-0.4,0.4V43.5z"/>
	<path id="XMLID_78_" class="st12" d="M93.2,40.5h-2.6c-0.2,0-0.4,0.2-0.4,0.4v2.6c0,0.2,0.2,0.4,0.4,0.4h2.6c0.2,0,0.4-0.2,0.4-0.4
		v-2.6C93.6,40.7,93.4,40.5,93.2,40.5z"/>
	<path id="XMLID_77_" class="st12" d="M95.8,40.5c-0.2,0-0.4,0.2-0.4,0.4v2.6c0,0.2,0.2,0.4,0.4,0.4h2.6c0.2,0,0.4-0.2,0.4-0.4v-0.3
		L98,40.5H95.8z"/>
	<path id="XMLID_76_" class="st12" d="M106,19.4V50c0.3,0.4,0.4,0.9,0.4,1.5v7.2c0.5-0.5,0.8-1.2,0.8-2V50v-2.1V32.5v-2.1V16.3
		c0-1.7-1.3-3-3-3H89.7l1.9,6.1H106z"/>
	<path id="XMLID_75_" class="st15" d="M106,19.4V50c0.3,0.4,0.4,0.9,0.4,1.5v7.2c0.5-0.5,0.8-1.2,0.8-2V50v-2.1V32.5v-2.1V16.3
		c0-1.7-1.3-3-3-3H89.7l1.9,6.1H106z"/>
	<path id="XMLID_70_" class="st13" d="M92.4,22.3h11.2c0.2,0,0.4,0.2,0.4,0.4v4.9c0,0.2-0.2,0.4-0.4,0.4h-9.4l1.3,4.3v-1.4
		c0-0.2,0.2-0.4,0.4-0.4h2.6c0.2,0,0.4,0.2,0.4,0.4v2.6c0,0.2-0.2,0.4-0.4,0.4h-2.5l0.5,1.7h2c0.2,0,0.4,0.2,0.4,0.4v2.6
		c0,0.2-0.2,0.4-0.4,0.4h-1l0.5,1.8h0.4c0.2,0,0.4,0.2,0.4,0.4v2.2l1.2,3.9h2.9h1.1v1.6c0.9,0.1,1.6,0.6,2,1.3V19.4H91.5l0,0
		L92.4,22.3z M104,43.5c0,0.2-0.2,0.4-0.4,0.4H101c-0.2,0-0.4-0.2-0.4-0.4v-2.6c0-0.2,0.2-0.4,0.4-0.4h2.6c0.2,0,0.4,0.2,0.4,0.4
		V43.5z M104,38.4c0,0.2-0.2,0.4-0.4,0.4H101c-0.2,0-0.4-0.2-0.4-0.4v-2.6c0-0.2,0.2-0.4,0.4-0.4h2.6c0.2,0,0.4,0.2,0.4,0.4V38.4z
		 M104,33.4c0,0.2-0.2,0.4-0.4,0.4H101c-0.2,0-0.4-0.2-0.4-0.4v-2.6c0-0.2,0.2-0.4,0.4-0.4h2.6c0.2,0,0.4,0.2,0.4,0.4V33.4z"/>
	<path id="XMLID_65_" class="st15" d="M92.4,22.3h11.2c0.2,0,0.4,0.2,0.4,0.4v4.9c0,0.2-0.2,0.4-0.4,0.4h-9.4l1.3,4.3v-1.4
		c0-0.2,0.2-0.4,0.4-0.4h2.6c0.2,0,0.4,0.2,0.4,0.4v2.6c0,0.2-0.2,0.4-0.4,0.4h-2.5l0.5,1.7h2c0.2,0,0.4,0.2,0.4,0.4v2.6
		c0,0.2-0.2,0.4-0.4,0.4h-1l0.5,1.8h0.4c0.2,0,0.4,0.2,0.4,0.4v2.2l1.2,3.9h2.9h1.1v1.6c0.9,0.1,1.6,0.6,2,1.3V19.4H91.5l0,0
		L92.4,22.3z M104,43.5c0,0.2-0.2,0.4-0.4,0.4H101c-0.2,0-0.4-0.2-0.4-0.4v-2.6c0-0.2,0.2-0.4,0.4-0.4h2.6c0.2,0,0.4,0.2,0.4,0.4
		V43.5z M104,38.4c0,0.2-0.2,0.4-0.4,0.4H101c-0.2,0-0.4-0.2-0.4-0.4v-2.6c0-0.2,0.2-0.4,0.4-0.4h2.6c0.2,0,0.4,0.2,0.4,0.4V38.4z
		 M104,33.4c0,0.2-0.2,0.4-0.4,0.4H101c-0.2,0-0.4-0.2-0.4-0.4v-2.6c0-0.2,0.2-0.4,0.4-0.4h2.6c0.2,0,0.4,0.2,0.4,0.4V33.4z"/>
	<path id="XMLID_62_" class="st14" d="M104,27.6v-4.9c0-0.2-0.2-0.4-0.4-0.4H92.4l1.7,5.7h9.4C103.8,27.9,104,27.8,104,27.6z
		 M102.3,26.8h-4v-1h4V26.8z"/>
	<path id="XMLID_59_" class="st15" d="M104,27.6v-4.9c0-0.2-0.2-0.4-0.4-0.4H92.4l1.7,5.7h9.4C103.8,27.9,104,27.8,104,27.6z
		 M102.3,26.8h-4v-1h4V26.8z"/>
	<path id="XMLID_58_" class="st10" d="M103.6,30.4H101c-0.2,0-0.4,0.2-0.4,0.4v2.6c0,0.2,0.2,0.4,0.4,0.4h2.6c0.2,0,0.4-0.2,0.4-0.4
		v-2.6C104,30.6,103.8,30.4,103.6,30.4z"/>
	<path id="XMLID_57_" class="st15" d="M103.6,30.4H101c-0.2,0-0.4,0.2-0.4,0.4v2.6c0,0.2,0.2,0.4,0.4,0.4h2.6c0.2,0,0.4-0.2,0.4-0.4
		v-2.6C104,30.6,103.8,30.4,103.6,30.4z"/>
	<path id="XMLID_56_" class="st6" d="M103.6,35.4H101c-0.2,0-0.4,0.2-0.4,0.4v2.6c0,0.2,0.2,0.4,0.4,0.4h2.6c0.2,0,0.4-0.2,0.4-0.4
		v-2.6C104,35.6,103.8,35.4,103.6,35.4z"/>
	<path id="XMLID_55_" class="st15" d="M103.6,35.4H101c-0.2,0-0.4,0.2-0.4,0.4v2.6c0,0.2,0.2,0.4,0.4,0.4h2.6c0.2,0,0.4-0.2,0.4-0.4
		v-2.6C104,35.6,103.8,35.4,103.6,35.4z"/>
	<path id="XMLID_54_" class="st12" d="M98.8,33.4v-2.6c0-0.2-0.2-0.4-0.4-0.4h-2.6c-0.2,0-0.4,0.2-0.4,0.4v1.4l0.5,1.5h2.5
		C98.6,33.8,98.8,33.6,98.8,33.4z"/>
	<path id="XMLID_53_" class="st15" d="M98.8,33.4v-2.6c0-0.2-0.2-0.4-0.4-0.4h-2.6c-0.2,0-0.4,0.2-0.4,0.4v1.4l0.5,1.5h2.5
		C98.6,33.8,98.8,33.6,98.8,33.4z"/>
	<path id="XMLID_52_" class="st12" d="M98.8,38.4v-2.6c0-0.2-0.2-0.4-0.4-0.4h-2l1,3.3h1C98.6,38.8,98.8,38.6,98.8,38.4z"/>
	<path id="XMLID_51_" class="st15" d="M98.8,38.4v-2.6c0-0.2-0.2-0.4-0.4-0.4h-2l1,3.3h1C98.6,38.8,98.8,38.6,98.8,38.4z"/>
	<path id="XMLID_50_" class="st12" d="M98.4,40.5H98l0.8,2.6v-2.2C98.8,40.7,98.6,40.5,98.4,40.5z"/>
	<path id="XMLID_49_" class="st15" d="M98.4,40.5H98l0.8,2.6v-2.2C98.8,40.7,98.6,40.5,98.4,40.5z"/>
	<path id="XMLID_48_" class="st12" d="M103.6,40.5H101c-0.2,0-0.4,0.2-0.4,0.4v2.6c0,0.2,0.2,0.4,0.4,0.4h2.6c0.2,0,0.4-0.2,0.4-0.4
		v-2.6C104,40.7,103.8,40.5,103.6,40.5z"/>
	<path id="XMLID_47_" class="st15" d="M103.6,40.5H101c-0.2,0-0.4,0.2-0.4,0.4v2.6c0,0.2,0.2,0.4,0.4,0.4h2.6c0.2,0,0.4-0.2,0.4-0.4
		v-2.6C104,40.7,103.8,40.5,103.6,40.5z"/>
	<rect id="XMLID_46_" x="98.3" y="25.9" class="st16" width="4" height="1"/>
	<rect id="XMLID_45_" x="98.3" y="25.9" class="st15" width="4" height="1"/>
	<path id="XMLID_41_" class="st14" d="M106.4,51.5H90v1.3v6.9v4.1c0,1.5,1.2,2.8,2.8,2.8c0.8,0,1.5-0.3,2-0.8c0.4-0.4,0.7-1,0.8-1.6
		h-3.4v-1.4h3.6c0.1-0.4,0.4-0.7,0.6-1c0.3-0.3,0.8-0.6,1.2-0.7h-5.5v-1.4h12.2V61h2.1v-2.3V51.5z M92.1,58v-1.4h12.2V58H92.1z
		 M92.1,55v-1.4h12.2V55H92.1z"/>
	<rect id="XMLID_40_" x="92.1" y="53.6" class="st16" width="12.2" height="1.4"/>
	<rect id="XMLID_39_" x="92.1" y="56.7" class="st16" width="12.2" height="1.4"/>
	<path id="XMLID_38_" class="st16" d="M98.3,61c0.3,0,0.5,0,0.7,0.1h0C98.8,61.1,98.6,61,98.3,61l6,0v-1.3H92.1v1.4h5.5h0
		C97.8,61.1,98,61,98.3,61z"/>
	<path id="XMLID_37_" class="st16" d="M95.7,62.8L95.7,62.8h-3.6v1.4h3.4h0c0-0.1,0-0.3,0-0.4C95.5,63.5,95.6,63.1,95.7,62.8z"/>
	<path id="XMLID_36_" class="st17" d="M101.1,63.8c0-0.8-0.3-1.5-0.8-2c-0.2-0.2-0.4-0.3-0.6-0.4c-0.2-0.1-0.4-0.2-0.7-0.3
		c-0.2-0.1-0.5-0.1-0.7-0.1c-0.3,0-0.5,0-0.7,0.1c-0.5,0.1-0.9,0.4-1.2,0.7c-0.3,0.3-0.5,0.6-0.6,1c-0.1,0.3-0.2,0.6-0.2,1
		c0,0.1,0,0.3,0,0.4c-0.1,0.6-0.4,1.1-0.8,1.6c-0.5,0.5-1.2,0.8-2,0.8h8.3V63.8z"/>
	<path id="XMLID_31_" class="st14" d="M101.1,63.8v2.8v8.3l1.6,1.7l1.6-1.7l1.6,1.7l1.6-1.7l1.6,1.7l1.6-1.7l1.6,1.7l1.6-1.7
		l1.6,1.7l1.6-1.7V63.8H101.1z M115.4,72.7h-12.2v-1.4h12.2V72.7z M115.4,69.6h-12.2v-1.4h12.2V69.6z M115.4,66.5h-12.2v-1.4h12.2
		V66.5z"/>
	<path id="XMLID_30_" class="st18" d="M98.3,61c0.3,0,0.5,0,0.7,0.1c0.2,0.1,0.5,0.2,0.7,0.3c0.2,0.1,0.4,0.3,0.6,0.4
		c0.5,0.5,0.8,1.2,0.8,2h16.5h0c0-0.8-0.3-1.5-0.8-2c-0.4-0.4-0.9-0.6-1.4-0.8c-0.2,0-0.4-0.1-0.6-0.1h-8.3h-2.1H98.3z"/>
	<rect id="XMLID_29_" x="103.2" y="65.1" class="st16" width="12.2" height="1.4"/>
	<rect id="XMLID_28_" x="103.2" y="68.2" class="st16" width="12.2" height="1.4"/>
	<rect id="XMLID_27_" x="103.2" y="71.3" class="st16" width="12.2" height="1.4"/>
	<rect id="XMLID_26_" x="84.9" y="47" class="st19" width="1.1" height="3.4"/>
	<path id="XMLID_25_" class="st4" d="M104,47h-1.1h-2.9H86v3.4h3.7c-0.1-0.4-0.4-0.7-0.6-1h-2.3V48h16.3v0.6h0.4c0.1,0,0.3,0,0.4,0
		V47z"/>
	<path id="XMLID_24_" class="st19" d="M86.8,48v1.5h2.3c-0.5-0.5-1.2-0.8-2-0.8H90h13.2V48H86.8z"/>
	<path id="XMLID_23_" class="st14" d="M104,48.7c-0.1,0-0.3,0-0.4,0h-0.4H90h-2.8c0.8,0,1.5,0.3,2,0.8c0.3,0.3,0.5,0.6,0.6,1
		c0.1,0.3,0.2,0.7,0.2,1h16.5c0-0.5-0.2-1.1-0.4-1.5C105.6,49.3,104.8,48.8,104,48.7z"/>
	<rect id="XMLID_22_" x="79.3" y="21.8" class="st4" width="2.4" height="3.8"/>
	<rect id="XMLID_21_" x="79.3" y="21.8" class="st20" width="2.4" height="3.8"/>
	<rect id="XMLID_20_" x="79.3" y="29.9" class="st4" width="2.4" height="9.7"/>
	<rect id="XMLID_19_" x="79.3" y="29.9" class="st20" width="2.4" height="9.7"/>
	<rect id="XMLID_18_" x="79.3" y="25.6" class="st5" width="2.4" height="4.3"/>
	<rect id="XMLID_17_" x="79.3" y="25.6" class="st20" width="2.4" height="4.3"/>
	<path id="XMLID_16_" class="st10" d="M79.3,46c0.6-0.7,1.5-1.1,2.4-1.2v-2.1c-0.9,0.1-1.7,0.3-2.4,0.7V46z"/>
	<path id="XMLID_15_" class="st20" d="M79.3,46c0.6-0.7,1.5-1.1,2.4-1.2v-2.1c-0.9,0.1-1.7,0.3-2.4,0.7V46z"/>
	<path id="XMLID_14_" class="st10" d="M79.3,51.3V54c0.7,0.4,1.5,0.6,2.4,0.7v-2.1C80.8,52.4,80,52,79.3,51.3z"/>
	<path id="XMLID_13_" class="st20" d="M79.3,51.3V54c0.7,0.4,1.5,0.6,2.4,0.7v-2.1C80.8,52.4,80,52,79.3,51.3z"/>
	<path id="XMLID_12_" class="st11" d="M81.8,52.5v-7.8c-1,0.1-1.8,0.6-2.4,1.2v5.3C80,52,80.8,52.4,81.8,52.5z"/>
	<path id="XMLID_11_" class="st20" d="M81.8,52.5v-7.8c-1,0.1-1.8,0.6-2.4,1.2v5.3C80,52,80.8,52.4,81.8,52.5z"/>
	<polygon id="XMLID_10_" class="st12" points="81.8,52.5 81.8,54.7 81.8,54.7 81.8,42.6 81.8,42.6 81.8,44.8 	"/>
	<polygon id="XMLID_9_" class="st20" points="81.8,52.5 81.8,54.7 81.8,54.7 81.8,42.6 81.8,42.6 81.8,44.8 	"/>
	<rect id="XMLID_8_" x="107.2" y="47.9" class="st8" width="1.9" height="2.1"/>
	<rect id="XMLID_7_" x="107.2" y="47.9" class="st20" width="1.9" height="2.1"/>
	<rect id="XMLID_6_" x="107.2" y="30.4" class="st8" width="1.9" height="2.1"/>
	<rect id="XMLID_5_" x="107.2" y="30.4" class="st20" width="1.9" height="2.1"/>
	<rect id="XMLID_4_" x="107.2" y="32.5" class="st9" width="1.9" height="15.4"/>
	<rect id="XMLID_3_" x="107.2" y="32.5" class="st20" width="1.9" height="15.4"/>
</g>
</svg>
