<svg xmlns="http://www.w3.org/2000/svg" xmlns:xlink="http://www.w3.org/1999/xlink" version="1.1" id="Layer_1" x="0" y="0" viewBox="-289 381.2 32.4 31.8" xml:space="preserve"><style type="text/css">
	.st0{display:none;}
	.st1{display:inline;}
	.st2{fill:none;stroke:#49B882;stroke-width:1.5;stroke-linecap:round;stroke-linejoin:round;}
	.st3{fill:none;stroke:#49B882;stroke-width:1.5;}
	.st4{fill:#49B882;}
	.st5{clip-path:url(#SVGID_2_);}
	.st6{clip-path:url(#SVGID_4_);}
	.st7{clip-path:url(#SVGID_6_);}
</style><title>Group 16</title><g id="Page-1" class="st0"><g id="Desktop" transform="translate(-1219 -1615)" class="st1"><g id="Customer-Touch-Points" transform="translate(546 1252)"><g id="Sources" transform="translate(264 340)"><g id="Server" transform="translate(350)"><g id="Group-16" transform="translate(60 24)"><g id="icon_x2F_mini_x2F_server_x2F_green"><path id="Stroke-1" class="st2" d="M-862.9 1172.7v0.9M-840.5 1172.7v0.9M-844.9 1149.3c0-1.2 1-2.2 2.2-2.2s2.2 1 2.2 2.2c0 1.2-1 2.2-2.2 2.2S-844.9 1150.5-844.9 1149.3zM-836.4 1155.2H-867v-11.8h30.6V1155.2zM-862.5 1147.6v3.3M-858 1147.6v3.3M-841.9 1165.6c0 0.6-0.5 1-1 1 -0.6 0-1-0.5-1-1s0.5-1 1-1S-841.9 1165-841.9 1165.6zM-836.6 1171.5h-30.6v-11.8h30.6V1171.5zM-862.7 1163.9v3.4M-858.2 1163.9v3.4"/></g></g></g></g></g></g></g><path class="st4" d="M-264.9 401v1.8c0 2-1.5 3.7-3.5 3.9v2.2h1.5c0.2 0 0.4 0.2 0.4 0.4s-0.2 0.4-0.4 0.4h-4c-0.2 0-0.4-0.2-0.4-0.4s0.2-0.4 0.4-0.4h1.5v-2.2c-2-0.2-3.5-1.9-3.5-3.9V401c0-0.2 0.2-0.4 0.4-0.4s0.4 0.2 0.4 0.4v1.8c0 1.7 1.4 3.1 3.1 3.1s3.1-1.4 3.1-3.1V401c0-0.2 0.2-0.4 0.4-0.4S-264.9 400.7-264.9 401zM-266.7 397.9c0-1.2-1-2.2-2.2-2.2s-2.2 1-2.2 2.2v4.6h4.4V397.9zM-268.9 404.9c1.1 0 2.1-0.9 2.2-2h-4.4C-270.9 404.1-270 404.9-268.9 404.9z"/><path class="st4" d="M-264.7 386.6h-8.6l-2.3 2.3c0 0-5.1 0-6.9 0s-1.8 1.8-1.8 1.8 0 7.4 0 12.6h3.5c0 0 0 0 0.1 0 -0.1-0.7-0.1-1.4-0.1-2.3 0-7.4 6.2-11.9 12.8-11.9 2.1 0 3.9 0.7 5.5 1.7v-2.2L-264.7 386.6z"/><defs><rect id="SVGID_1_" x="-266.9" y="389.2" width="10.7" height="6.3"/></defs><clipPath id="SVGID_2_"><use xlink:href="#SVGID_1_"/></clipPath><g class="st5"><path class="st4" d="M-268.9 410.2c-5.1 0-9.2-4.1-9.2-9.2s4.1-9.2 9.2-9.2 9.2 4.1 9.2 9.2S-263.8 410.2-268.9 410.2zM-268.9 393.9c-3.9 0-7.1 3.2-7.1 7.1 0 3.9 3.2 7.1 7.1 7.1s7.1-3.2 7.1-7.1C-261.7 397.1-264.9 393.9-268.9 393.9z"/></g><defs><rect id="SVGID_3_" x="-285.1" y="386.9" width="17.3" height="15.6"/></defs><clipPath id="SVGID_4_"><use xlink:href="#SVGID_3_"/></clipPath><g class="st6"><path class="st4" d="M-268.9 410.2c-5.1 0-9.2-4.1-9.2-9.2s4.1-9.2 9.2-9.2 9.2 4.1 9.2 9.2S-263.8 410.2-268.9 410.2zM-268.9 393.9c-3.9 0-7.1 3.2-7.1 7.1 0 3.9 3.2 7.1 7.1 7.1s7.1-3.2 7.1-7.1C-261.7 397.1-264.9 393.9-268.9 393.9z"/></g><defs><rect id="SVGID_5_" x="-280.1" y="393.2" width="9.6" height="17.3"/></defs><clipPath id="SVGID_6_"><use xlink:href="#SVGID_5_"/></clipPath><g class="st7"><path class="st4" d="M-268.9 407.8v-0.7c3.3 0 6.1-2.7 6.1-6.1 0-3.3-2.7-6.1-6.1-6.1 -3.3 0-6.1 2.7-6.1 6.1h-0.7c0-3.7 3-6.7 6.7-6.7s6.7 3 6.7 6.7S-265.2 407.8-268.9 407.8z"/></g><path class="st4" d="M-268.9 411.7c-5.9 0-10.7-4.8-10.7-10.7s4.8-10.7 10.7-10.7 10.7 4.8 10.7 10.7S-263 411.7-268.9 411.7zM-268.9 391c-5.5 0-10 4.5-10 10s4.5 10 10 10 10-4.5 10-10S-263.4 391-268.9 391z"/><rect x="-281.7" y="388" class="st4" width="2.8" height="1.2"/></svg>