<svg xmlns="http://www.w3.org/2000/svg" version="1.1" x="0" y="0" viewBox="-289 384 33 26" xml:space="preserve"><style type="text/css">
	.st0{fill:none;stroke:#49B882;stroke-width:1.4;stroke-linecap:round;stroke-linejoin:round;}
	.st1{fill:none;stroke:#49B882;stroke-width:1.5;stroke-linecap:round;stroke-linejoin:round;}
	.st2{fill:#49B882;}
</style><title>icon-small-advanced</title><path class="st0" d="M-283.1 388.8c1 0.6 2.3 0.3 2.9-0.7s0.3-2.3-0.7-2.9c0 0 0 0-0.1 0 -1-0.6-2.3-0.3-2.9 0.7C-284.4 386.9-284.1 388.2-283.1 388.8L-283.1 388.8 -283.1 388.8zM-286 387.6c-0.6 0.3-1.1 0.7-1.4 1.2 -2 3.3 3 10.1 11.2 15.1 8.2 5.1 16.5 6.5 18.6 3.2 2-3.3-3-10.1-11.2-15.1 -2.4-1.5-4.9-2.7-7.1-3.5"/><path class="st2" d="M-264 405.8c-0.6 0.6-0.9 1.3-1.5 1.9 -0.6 0.6-2.4 0.7-2.6 0.4 -0.4-0.6 0-0.7-0.4-1.5 -0.4-0.6-0.4-0.4-0.6-1.3 -0.2-1.5-0.6-1.7-0.9-2.6v-0.2c-0.2-0.6 0.4-1.1 0.6-1.7 0.2-0.6-0.2-1.5-0.4-1.9 0-0.2-0.2-0.4-0.2-0.4 -0.2-0.7-1.1-0.7-0.7-1.7 0-0.2 0.2-0.6 0-0.7 0-0.4-0.2-0.6-0.4-0.7 -0.2 0-0.4 0-0.6 0 -0.2 0-0.2 0.2-0.4 0.2s0-0.2-0.2-0.4c0-0.2-0.2-0.2-0.4-0.4 -0.6-0.2-0.7-0.2-1.1 0.2 -0.6 0.2-0.6 0.2-1.1 0.2 -0.6 0-0.6 0.2-1.1 0.2 -0.7 0.2-1.5-0.7-1.7-1.1 -0.2-0.2-0.4-0.4-0.4-0.6 -0.2-0.4-0.2-0.4-0.6-0.7 0 0-0.2 0-0.4-0.4 0-0.2 0.2-0.4 0.2-0.4 -0.2-0.4-0.2-0.4 0-0.7v-0.2c0.2-0.7-0.2-1.1 0-1.3 0.2-0.6 0.9-1.5 1.1-1.9 0.2-0.4 0-0.2 0.2-0.4 0.9-0.4 0.6-0.4 0.9-1.3 0.2-0.4 0.2-0.2 0.6-0.6 0.2-0.2 0.2-0.6 0.4-0.6 0.6 0 0.2 0.2 0.7 0.2 0.2 0 0.4 0 0.6 0 0.4-0.2 0.9-0.6 1.5-0.6 0.6 0 1.3-0.4 1.9-0.2 0.4 0.2-0.2 0.9 0 1.1 0.2 0.4 0.6 0.2 0.9 0.4 0.6 0.2 0.2 0.2 0.7 0.6 1.3 0.7 0.7-0.2 1.3-0.6 0.6-0.4 0.7 0.2 1.1 0.4h0.2c0.4 0 0.7 0.2 1.1 0.2 0.6 0 0.6-0.4 0.9 0 0.4 0.2 0 0.2 0 0.7 0 0.4 0.7 1.3 0.9 1.9 0 0.2 0.2 0.2 0.2 0.2s0.6 1.7 0.7 1.7c0.4 0.4 0 0 0.4 0.6 0.2 0.4 0 0.2 0.4 0.4 0.2 0.2 0 0 0.4 0.2 0.2 0.2 0.2 0.2 0.2 0.4 0.2 0.4 0 0.6 0.4 0.7 1.1 0.7 1.9-0.6 2.2-0.2 0.4 0.4-0.6 1.5-0.7 2 -0.6 1.1-2 1.5-2.6 3 -0.6 1.1 0.4 1.7 0.2 2.2 0 0 0 0 0 0.2s0 0.2 0 0.4c0.4 1.5-0.6 1.3-1.3 2 -0.9 0.9-0.4 0.4-0.2 1.3 0 0.2 0 0.4-0.2 0.6l0 0C-263.4 405.1-263.8 405.5-264 405.8z"/></svg>