<svg xmlns="http://www.w3.org/2000/svg" version="1.1" x="0" y="0" viewBox="-281 380.2 47.1 32.8" xml:space="preserve"><style type="text/css">
	.st0{fill:#49B882;}
</style><path class="st0" d="M-242.8 407.9l-6.3-6.3 -0.8 0.8 -2.7-2.6c1.4-1.9 2.2-4.3 2.2-6.9 0-6.5-5.3-11.8-11.8-11.8 -6.5 0-11.8 5.3-11.8 11.8 0 6.5 5.3 11.8 11.8 11.8 2.7 0 5.3-0.9 7.3-2.5l2.7 2.6 -0.8 0.8 6.3 6.3c0.5 0.5 1.2 0.8 2 0.8s1.5-0.3 2-0.8C-241.7 410.8-241.7 409-242.8 407.9zM-254.4 400.1c-0.1 0.1-0.1 0.1-0.2 0.2 -0.2 0.2-0.4 0.4-0.6 0.5 -0.1 0.1-0.2 0.2-0.3 0.3l0 0c-1.9 1.5-4.2 2.4-6.8 2.4 -5.9 0-10.7-4.8-10.7-10.7 0-5.9 4.8-10.7 10.7-10.7 5.9 0 10.7 4.8 10.7 10.7 0 2.5-0.9 4.8-2.3 6.7C-254 399.7-254.2 399.9-254.4 400.1zM-259.6 388.5c-0.6-0.5-1.3-0.7-1.9-0.9 0.1-0.1 0.1-0.3 0.2-0.4 0.2 0 0.3 0.1 0.5 0.1 0.2 0.1 0.3 0 0.4-0.2s0-0.3-0.2-0.4c-0.2-0.1-0.4-0.1-0.6-0.2 0-0.4-0.3-0.8-0.6-1.1 -0.7-0.5-1.7-0.4-2.2 0.3 -0.2 0.3-0.3 0.7-0.3 1 -1 0.4-1.9 1-2.6 1.9 -1 1.4-1.4 3.1-1.1 4.7 -0.1 0.1-0.2 0.2-0.4 0.3 -0.5 0.7-0.4 1.7 0.3 2.2 0.7 0.5 1.7 0.4 2.2-0.3 0 0 0.1-0.1 0.1-0.1 0.2 0.2 0.3 0.3 0.5 0.4 1 0.8 1.9 1.6 2.7 2.5 0.1 0.1 0.3 0.1 0.4 0 0 0 0 0 0 0 0.1-0.1 0.1-0.3 0-0.4 -0.8-1-1.8-1.8-2.8-2.6 -0.2-0.2-0.5-0.4-0.7-0.6 0.1-0.5-0.2-1.1-0.6-1.4 -0.1 0-0.1-0.1-0.2-0.1 -0.3-1.2-0.1-2.5 0.7-3.6 0.1-0.1 0.1-0.3-0.1-0.4 -0.1-0.1-0.3-0.1-0.4 0.1 -0.9 1.1-1.1 2.5-0.9 3.8 -0.2 0-0.3 0-0.5 0 -0.2-1.4 0.1-2.9 1-4.1 0.6-0.8 1.4-1.3 2.2-1.7 0.1 0.1 0.1 0.3 0.2 0.4 -0.5 0.2-0.9 0.4-1.4 0.8 -0.1 0.1-0.2 0.3 0 0.4 0.1 0.1 0.3 0.2 0.4 0 0.5-0.4 1-0.7 1.6-0.8 0.4 0.2 1 0.1 1.4-0.1 0.8 0.1 1.5 0.3 2.1 0.8 1.2 0.9 2.3 1.9 3.3 3 0.1 0.1 0.3 0.1 0.4 0 0 0 0 0 0 0 0.1-0.1 0.1-0.3 0-0.4C-257.3 390.5-258.4 389.4-259.6 388.5zM-266.7 393.9c0.4 0.3 0.5 1 0.2 1.4s-1 0.5-1.4 0.2c-0.4-0.3-0.5-1-0.2-1.4S-267.1 393.6-266.7 393.9zM-262.1 387.4c-0.3 0.4-1 0.5-1.4 0.2 -0.4-0.3-0.5-1-0.2-1.4s1-0.5 1.4-0.2C-261.9 386.3-261.8 386.9-262.1 387.4zM-264.4 394.7c-1.3-1-1.6-2.9-0.6-4.3 0.8-1.1 2.3-1.5 3.5-1 0.2 0.1 0.3 0 0.4-0.2 0.1-0.2 0-0.3-0.2-0.4 -1.5-0.6-3.3-0.1-4.2 1.2 -1.2 1.6-0.9 3.9 0.7 5.1 1.2 0.9 2.3 2 3.3 3.2 0.1 0.1 0.3 0.2 0.4 0 0 0 0 0 0.1-0.1 0.1-0.1 0.1-0.3 0-0.4C-262 396.8-263.1 395.6-264.4 394.7zM-263.7 393.8c-0.1-0.1-0.3-0.1-0.4 0.1 -0.1 0.1-0.1 0.3 0.1 0.4 1.4 1.1 2.6 2.3 3.7 3.7 0.1 0.1 0.3 0.2 0.4 0.1 0 0 0 0 0.1-0.1 0.1-0.1 0.1-0.3 0-0.4L-263.7 393.8zM-258.8 390.6c-0.1-0.3-0.3-0.6-0.5-0.8 -0.2-0.2-0.5-0.3-0.8-0.3 0 0-0.1-0.1-0.1-0.1 -0.1-0.1-0.3-0.1-0.4 0.1 0 0 0 0.1 0 0.1 -0.3 0.1-0.5 0.2-0.7 0.4 -1.1-0.5-2.4-0.2-3.1 0.8 -0.5 0.7-0.7 1.6-0.4 2.5 0.1 0.2 0.2 0.2 0.4 0.2 0.2-0.1 0.2-0.2 0.2-0.4 -0.2-0.6-0.1-1.3 0.3-1.9 0.5-0.7 1.5-0.9 2.3-0.6 -0.1 0.1-0.1 0.3-0.1 0.4 -0.6-0.3-1.4-0.1-1.8 0.5 -0.5 0.7-0.4 1.6 0.3 2.1 0.6 0.4 1.1 0.9 1.6 1.4 0.1 0.1 0.3 0.1 0.4 0 0 0 0 0 0 0 0.1-0.1 0.1-0.3 0-0.4 -0.5-0.5-1.1-1-1.7-1.4 -0.4-0.3-0.5-0.9-0.2-1.3 0.3-0.4 0.9-0.5 1.3-0.2 0 0 0.1 0 0.1 0 0.1 0.3 0.3 0.5 0.5 0.7 0.2 0.2 0.4 0.3 0.7 0.3 1.1 1 2.1 2 3 3.1 0.1 0.1 0.3 0.2 0.4 0.1 0 0 0 0 0.1-0.1 0.1-0.1 0.1-0.3 0-0.4 -0.8-1-1.7-2-2.6-2.8 0.1-0.1 0.3-0.1 0.4-0.2 0.8 0.8 1.6 1.6 2.2 2.4 0.1 0.1 0.3 0.2 0.4 0 0 0 0 0 0.1-0.1 0.1-0.1 0.1-0.3 0-0.4 -0.7-0.9-1.5-1.7-2.3-2.5 0.1-0.1 0.1-0.3 0.2-0.5 0.7 0.7 1.4 1.4 2 2.1 0.1 0.1 0.3 0.1 0.4 0 0 0 0 0 0 0 0.1-0.1 0.1-0.3 0-0.4C-257.1 392.2-257.9 391.3-258.8 390.6zM-259.6 391.6c-0.3 0.4-1 0.5-1.4 0.2s-0.5-1-0.2-1.4c0.3-0.4 1-0.5 1.4-0.2C-259.3 390.6-259.2 391.2-259.6 391.6z"/></svg>