<svg xmlns="http://www.w3.org/2000/svg" version="1.1" x="0" y="0" viewBox="-289 381.2 32.4 31.8" xml:space="preserve"><style type="text/css">
	.st0{fill:#49B882;}
	.st1{fill:none;stroke:#49B882;stroke-width:1.5;stroke-linecap:round;stroke-linejoin:round;}
</style><path class="st0" d="M-272.5 387.9c-0.6 0-1.2 0-1.7 0.1 -1.3 0.1-2.2 0.8-2.6 2 -0.2 0.6-0.3 1.1-0.4 1.7 0 0.2-0.1 0.2-0.3 0.3 -0.8 0.1-1.6 0.2-2.4 0.3 -0.7 0.1-1.3 0.3-1.8 0.8 -0.6 0.5-0.5 1.3 0.1 1.8 0.8 0.5 1.8 0.3 2.6 0.3 0.5 0 1 0 1.4 0 1.4 0 2.8 0 4.2 0 1.5 0 3 0 4.5 0 0.9 0 1.7 0 2.6 0 0.8 0 1.7 0.2 2.4-0.1 0.5-0.3 0.8-0.8 0.6-1.4 -0.3-0.7-1.1-1-1.8-1.2 -0.9-0.3-1.9-0.4-2.8-0.4 -0.2 0-0.2-0.1-0.2-0.2 -0.1-0.6-0.2-1.2-0.4-1.7 -0.4-1.2-1.2-1.8-2.4-2C-271.3 387.9-272 387.9-272.5 387.9zM-267.9 401.5c-1.3-0.2-2.7-0.5-4-0.7 -0.3-0.1-0.6-0.1-0.9-0.1 -0.8 0.1-1.5 0.3-2.3 0.4 -0.8 0.1-1.5 0.3-2.4 0.4 0.3 0.8 1.7 3.3 2.4 3.9 0.8 0.7 2 1 3 0.8 2.2-0.3 3.8-2.7 4.3-4.7C-267.7 401.5-267.8 401.5-267.9 401.5zM-266.7 396.6c0-0.2-0.4-0.2-0.4-0.2 -0.4-0.1-0.8-0.1-1.2-0.1 -0.5 0-1 0-1.4 0 -0.6 0-1.2 0-1.7 0.1 -0.4 0-0.8 0.1-1.2 0.1 -0.4 0-0.8-0.1-1.2-0.1 -0.5-0.1-1.1-0.1-1.7-0.1 -0.4 0-0.9 0-1.4 0 -0.4 0-0.7 0.1-1.2 0.1 0 0-0.3 0.1-0.4 0.2 0 0.1 0 0.4 0.1 0.6 0.2 0.2 0.2 0.4 0.2 0.6 0 0.5 0.2 1 0.4 1.5 0.3 0.5 0.6 0.7 1.2 0.8 0.3 0 0.7 0.1 1 0.1 0.3 0 0.6 0 0.9-0.1 0.7-0.1 1.2-0.5 1.4-1.2 0.1-0.3 0.2-0.7 0.3-1 0-0.1 0-0.2 0.1-0.3 0-0.2 0.1-0.3 0.3-0.3 0.1 0 0.2 0 0.3 0.3 0 0.1 0 0.2 0.1 0.3 0.1 0.3 0.2 0.7 0.3 1 0.2 0.7 0.7 1.1 1.4 1.2 0.3 0.1 0.6 0.1 0.9 0.1 0.3 0 0.7 0 1-0.1 0.5-0.1 0.9-0.3 1.2-0.8 0.3-0.5 0.4-1 0.4-1.5 0-0.2 0.1-0.4 0.3-0.6C-266.6 397-266.6 396.8-266.7 396.6zM-273.6 397.9c0 0.1 0 0.2 0 0.4 -0.1 0.7-0.5 1.1-1.2 1.2 -0.2 0-0.4 0-0.5 0.1 -0.1 0-0.1 0-0.2 0 -0.1 0-0.2 0-0.2 0 -0.2 0-0.3 0-0.5 0 -0.6-0.1-0.9-0.3-1-0.7 -0.1-0.3-0.2-0.6-0.2-1 0-0.6 0.1-0.7 0.7-0.9 0.4-0.1 0.8-0.2 1.2-0.2 0.2 0 0.5 0 0.8 0 0.3 0 0.6 0.1 0.9 0.2 0.2 0.1 0.4 0.3 0.3 0.5C-273.6 397.7-273.6 397.8-273.6 397.9zM-267.7 397.9c0 0.4-0.1 0.7-0.2 1 -0.2 0.4-0.5 0.6-1 0.7 -0.1 0-0.3 0-0.5 0 -0.1 0-0.2 0-0.2 0 -0.1 0-0.1 0-0.2 0 -0.2 0-0.4 0-0.5-0.1 -0.7-0.1-1.1-0.5-1.2-1.2 0-0.1 0-0.2 0-0.4 0-0.1 0-0.2 0-0.2 0-0.3 0.1-0.5 0.3-0.5 0.3-0.1 0.6-0.2 0.9-0.2 0.3 0 0.5 0 0.8 0 0.4 0 0.8 0.1 1.2 0.2C-267.8 397.1-267.7 397.3-267.7 397.9z"/><path class="st1" d="M-264.2 382.3h6.6M-257.6 382.3v4.2M-287.8 382.2h6.6M-287.8 386.4v-4.2M-281.4 412.1h-6.6M-288 412.1v-4.2M-257.6 412h-6.6M-257.6 407.8v4.2"/></svg>