<?xml version="1.0" encoding="utf-8"?>
<!-- Generator: Adobe Illustrator 19.0.0, SVG Export Plug-In . SVG Version: 6.00 Build 0)  -->
<svg version="1.1" id="Layer_1" xmlns="http://www.w3.org/2000/svg" xmlns:xlink="http://www.w3.org/1999/xlink" x="0px" y="0px"
	 width="209px" height="86px" viewBox="10 2 209 86" style="enable-background:new 10 2 209 86;" xml:space="preserve">
<style type="text/css">
	.st0{fill:#FFFFFF;stroke:#DDE4F0;stroke-width:3;}
	.st1{fill:#33547D;}
	.st2{fill:#E06866;}
	.st3{font-family:'ProximaNova-Bold';}
	.st4{font-size:12px;}
	.st5{letter-spacing:32;}
	.st6{fill:#2D4151;}
	.st7{fill:#CCCCCC;}
	.st8{fill:#B3B3B3;}
	.st9{fill:#808080;}
	.st10{opacity:0.2;fill:#FCFAFA;enable-background:new    ;}
	.st11{fill:#FFFFFF;}
	.st12{fill:#B51D1D;}
	.st13{fill:#F93030;}
	.st14{fill:#174461;}
	.st15{fill:#FF755C;}
	.st16{fill:#FF9356;}
	.st17{fill:#FFCE47;}
</style>
<path id="a_1_" class="st0" d="M55.8,79.4C36.9,79.4,21.6,64,21.6,45s15.3-34.4,34.2-34.4S90,26,90,45S74.7,79.4,55.8,79.4"/>
<path id="b_1_" class="st0" d="M176.8,79.4c-18.9,0-34.2-15.4-34.2-34.4s15.3-34.4,34.2-34.4S211.1,26,211.1,45
	S195.7,79.4,176.8,79.4"/>
<g>
	<g transform="translate(16.092 42.925)">
		<ellipse class="st1" cx="149.5" cy="8.6" rx="1.3" ry="1.3"/>
	</g>
</g>
<path id="c_3_" class="st0" d="M115.8,6.1C94.4,6.1,77.1,23.5,77.1,45s17.3,38.9,38.7,38.9"/>
<path id="c_1_" class="st0" d="M115.8,83.9c21.4,0,38.7-17.4,38.7-38.9c0-21.5-17.3-38.9-38.7-38.9"/>
<g transform="translate(17.905 17.17)">
	<g>
		<polygon class="st2" points="93.5,5.1 93.5,5.1 93.5,5.1 		"/>
	</g>
</g>
<text transform="matrix(1 0 0 1 159.0628 46.4502)"><tspan x="0" y="0" class="st1 st3 st4">central </tspan><tspan x="0" y="14.4" class="st1 st3 st4 st5">	</tspan></text>
<text transform="matrix(1 0 0 1 172.544 54.6379)" class="st1 st3 st4">banks</text>
<g>
	<path class="st6" d="M116,25.5v-2.2c-0.1,0-0.1-0.1-0.2-0.1l-0.1-0.1v-0.6c-0.7-0.9,0.2-3,0.2-3h-0.4v6c0,0,0,0,0.1,0
		C115.7,25.5,115.9,25.5,116,25.5z"/>
	<path class="st6" d="M116,22.5L116,22.5C115.9,22.5,115.9,22.5,116,22.5L116,22.5z"/>
	<rect x="103.8" y="32.1" class="st7" width="11.9" height="0"/>
	<path class="st7" d="M115.7,25.5C115.7,25.5,115.7,25.5,115.7,25.5c-4.6,0-8.6,2.2-11.2,5.7h11.2V25.5z"/>
	<path class="st8" d="M115.7,31.2H127c-2.5-3.4-6.5-5.6-11-5.6c-0.1,0-0.2,0-0.2,0V31.2z"/>
	<path class="st8" d="M129.8,35.6v-3.5h-2.2c0,0,0,0,0,0h-11.9v0h-11.9h-2.2v3.5H129.8z M116.8,35.1v-2.5h0.8v2.5H116.8z
		 M119.8,35.1v-2.5h0.8v2.5H119.8z M122.9,35.1v-2.5h0.8v2.5H122.9z M125.9,35.1v-2.5h0.8v2.5H125.9z M113.8,32.6h0.8v2.5h-0.8V32.6
		z M110.7,32.6h0.8v2.5h-0.8V32.6z M107.7,32.6h0.8v2.5h-0.8V32.6z M104.7,32.6h0.8v2.5h-0.8V32.6z"/>
	<rect x="104.7" y="32.6" class="st9" width="0.8" height="2.5"/>
	<rect x="107.7" y="32.6" class="st9" width="0.8" height="2.5"/>
	<rect x="110.7" y="32.6" class="st9" width="0.8" height="2.5"/>
	<rect x="113.8" y="32.6" class="st9" width="0.8" height="2.5"/>
	<rect x="116.8" y="32.6" class="st9" width="0.8" height="2.5"/>
	<rect x="119.8" y="32.6" class="st9" width="0.8" height="2.5"/>
	<rect x="122.9" y="32.6" class="st9" width="0.8" height="2.5"/>
	<rect x="125.9" y="32.6" class="st9" width="0.8" height="2.5"/>
	<polygon class="st9" points="127.6,32.1 131,32.1 131,31.2 127,31.2 115.7,31.2 104.5,31.2 100.4,31.2 100.4,32.1 103.8,32.1 
		115.7,32.1 	"/>
	<path class="st7" d="M134,71.3V35.6h-4.2h-28.2h-4.2v35.7h-5V72H139v-0.7H134z M123.9,52.6h-7.7V37.8h7.7V52.6z M107.5,37.8h7.7
		v14.8h-7.7V37.8z M106.6,68.2h-7.7V53.4h7.7V68.2z M98.8,52.6V37.8h7.7v14.8H98.8z M123.2,71.2h-7.3h-0.4h-7.3V56.4h7.3h0.4h7.3
		V71.2z M124.4,55.7h-17.3v-2.4h17.3V55.7z M132.6,68.2h-7.7V53.4h7.7V68.2z M132.6,52.6h-7.7V37.8h7.7V52.6z"/>
	<path class="st6" d="M114.6,60.3c0.2-0.9,0.3-1.8,0.4-2.8v2.8h0.4V57h-6.6v3.3H114.6z"/>
	<path class="st6" d="M115,60.8v9.4h-5.2c0,0,3.3-3.6,4.7-9.4h-5.7v9.8h6.6v-9.8H115z"/>
	<path class="st6" d="M114.6,60.3h0.4v-2.8C114.9,58.5,114.8,59.4,114.6,60.3z"/>
	<path class="st10" d="M114.6,60.3h0.4v-2.8C114.9,58.5,114.8,59.4,114.6,60.3z"/>
	<path class="st6" d="M115,70.3v-9.4h-0.5c-1.4,5.9-4.7,9.4-4.7,9.4H115z M114.7,63.8v3.3h-0.4v-3.3H114.7z"/>
	<path class="st10" d="M115,70.3v-9.4h-0.5c-1.4,5.9-4.7,9.4-4.7,9.4H115z M114.7,63.8v3.3h-0.4v-3.3H114.7z"/>
	<path class="st8" d="M115.5,56.4h-7.3v14.8h7.3h0.4h7.3V56.4h-7.3H115.5z M115.4,57v3.3H115h-0.4h-5.9V57H115.4z M108.7,70.7v-9.8
		h5.7h0.5h0.4v9.8H108.7z M116,70.7v-9.8h5.7h0.5h0.4v9.8H116z M122.7,57v3.3h-0.4h-0.4H116V57H122.7z"/>
	<path class="st6" d="M122.3,60.8v9.4h-5.2c0,0,3.3-3.6,4.7-9.4H116v9.8h6.6v-9.8H122.3z M116.7,63.8h0.4v3.3h-0.4V63.8z"/>
	<path class="st6" d="M121.9,60.3c0.2-0.9,0.3-1.8,0.4-2.8v2.8h0.4V57H116v3.3H121.9z"/>
	<path class="st6" d="M121.9,60.3h0.4v-2.8C122.2,58.5,122.1,59.4,121.9,60.3z"/>
	<path class="st10" d="M121.9,60.3h0.4v-2.8C122.2,58.5,122.1,59.4,121.9,60.3z"/>
	<path class="st6" d="M122.3,70.3v-9.4h-0.5c-1.4,5.9-4.7,9.4-4.7,9.4H122.3z"/>
	<path class="st10" d="M122.3,70.3v-9.4h-0.5c-1.4,5.9-4.7,9.4-4.7,9.4H122.3z"/>
	<path class="st8" d="M124.9,68.2h7.7V53.4h-7.7V68.2z M125.4,67.6v-9.8h5.7h0.5h0.4v9.8H125.4z M132,54v3.3h-0.4h-0.4h-5.9V54H132z
		"/>
	<path class="st6" d="M131.7,57.8v9.4h-5.2c0,0,3.3-3.6,4.7-9.4h-5.7v9.8h6.6v-9.8H131.7z"/>
	<path class="st6" d="M131.2,57.2c0.2-0.9,0.3-1.8,0.4-2.8v2.8h0.4V54h-6.6v3.3H131.2z"/>
	<path class="st6" d="M131.2,57.2h0.4v-2.8C131.6,55.4,131.4,56.4,131.2,57.2z"/>
	<path class="st10" d="M131.2,57.2h0.4v-2.8C131.6,55.4,131.4,56.4,131.2,57.2z"/>
	<path class="st6" d="M131.7,67.2v-9.4h-0.5c-1.4,5.9-4.7,9.4-4.7,9.4H131.7z"/>
	<path class="st10" d="M131.7,67.2v-9.4h-0.5c-1.4,5.9-4.7,9.4-4.7,9.4H131.7z"/>
	<path class="st8" d="M98.8,68.2h7.7V53.4h-7.7V68.2z M99.4,67.6v-9.8h5.7h0.5h0.4v9.8H99.4z M106,54v3.3h-0.4h-0.4h-5.9V54H106z"/>
	<path class="st6" d="M105.2,57.2c0.2-0.9,0.3-1.8,0.4-2.8v2.8h0.4V54h-6.6v3.3H105.2z"/>
	<path class="st6" d="M105.6,57.8v9.4h-5.2c0,0,3.3-3.6,4.7-9.4h-5.7v9.8h6.6v-9.8H105.6z"/>
	<path class="st6" d="M105.2,57.2h0.4v-2.8C105.6,55.4,105.4,56.4,105.2,57.2z"/>
	<path class="st10" d="M105.2,57.2h0.4v-2.8C105.6,55.4,105.4,56.4,105.2,57.2z"/>
	<path class="st6" d="M105.6,67.2v-9.4h-0.5c-1.4,5.9-4.7,9.4-4.7,9.4H105.6z"/>
	<path class="st10" d="M105.6,67.2v-9.4h-0.5c-1.4,5.9-4.7,9.4-4.7,9.4H105.6z"/>
	<path class="st8" d="M124.9,37.8v14.8h7.7V37.8H124.9z M125.4,52v-9.8h5.7h0.5h0.4V52H125.4z M132,41.6h-0.4h-0.4h-5.9v-3.3h6.6
		V41.6z"/>
	<path class="st6" d="M131.7,42.2v9.4h-5.2c0,0,3.3-3.6,4.7-9.4h-5.7V52h6.6v-9.8H131.7z"/>
	<path class="st6" d="M125.4,38.4v3.3h5.9c0.2-0.9,0.3-1.8,0.4-2.8v2.8h0.4v-3.3H125.4z"/>
	<path class="st6" d="M131.7,51.6v-9.4h-0.5c-1.4,5.9-4.7,9.4-4.7,9.4H131.7z"/>
	<path class="st10" d="M131.7,51.6v-9.4h-0.5c-1.4,5.9-4.7,9.4-4.7,9.4H131.7z"/>
	<path class="st6" d="M131.2,41.6h0.4v-2.8C131.6,39.8,131.4,40.8,131.2,41.6z"/>
	<path class="st10" d="M131.2,41.6h0.4v-2.8C131.6,39.8,131.4,40.8,131.2,41.6z"/>
	<path class="st8" d="M106.6,37.8h-7.7v14.8h7.7V37.8z M106,38.4v3.3h-0.4h-0.4h-5.9v-3.3H106z M99.4,52v-9.8h5.7h0.5h0.4V52H99.4z"
		/>
	<path class="st6" d="M105.2,41.6c0.2-0.9,0.3-1.8,0.4-2.8v2.8h0.4v-3.3h-6.6v3.3H105.2z"/>
	<path class="st6" d="M106,42.2h-0.4v9.4h-5.2c0,0,3.3-3.6,4.7-9.4h-5.7V52h6.6V42.2z"/>
	<path class="st6" d="M100.4,51.6h5.2v-9.4h-0.5C103.7,48.1,100.4,51.6,100.4,51.6z"/>
	<path class="st10" d="M100.4,51.6h5.2v-9.4h-0.5C103.7,48.1,100.4,51.6,100.4,51.6z"/>
	<path class="st6" d="M105.2,41.6h0.4v-2.8C105.6,39.8,105.4,40.8,105.2,41.6z"/>
	<path class="st10" d="M105.2,41.6h0.4v-2.8C105.6,39.8,105.4,40.8,105.2,41.6z"/>
	<rect x="107.5" y="37.8" class="st8" width="7.7" height="14.8"/>
	<rect x="116.2" y="37.8" class="st8" width="7.7" height="14.8"/>
	<rect x="107.1" y="53.3" class="st11" width="17.3" height="2.4"/>
	<rect x="114.3" y="63.8" class="st7" width="0.4" height="3.3"/>
	<rect x="116.7" y="63.8" class="st7" width="0.4" height="3.3"/>
	<path class="st12" d="M116,22.5c-0.1-0.1-0.3-0.2-0.4,0v0.6l0.1,0.1c0.1,0,0.1,0.1,0.2,0.1c0.5,0.2,1.2,0.4,1.6,0.1l0.1,0
		C117.4,23.4,116.7,23.1,116,22.5z"/>
	<path class="st13" d="M115.8,22.5c0.1,0.1,0.1,0.2,0.2,0.2c0.7,0.6,1.5,0.7,1.8,0.7c0,0,0.1,0,0.1,0s-1.4-0.8-0.8-1.8
		c0.5-0.9-0.6-1.8-1-2.1c-0.1,0-0.1-0.1-0.1-0.1S115.1,21.6,115.8,22.5z"/>
</g>
<g>
	<rect x="46.2" y="52.7" class="st14" width="17.7" height="1.5"/>
	<path class="st15" d="M57.8,44.8c-2.1-1.9,0-5.9,0-8.4c0-1.5-1.2-2.7-2.7-2.7s-2.7,1.2-2.7,2.7c0,2.5,2.1,6.5,0,8.4l0,0L57.8,44.8
		L57.8,44.8z"/>
	<polygon class="st16" points="57.8,44.8 57.8,44.8 52.3,44.8 52.3,44.8 52.3,47.7 57.8,47.7 	"/>
	<path class="st17" d="M57.8,47.7L57.8,47.7h-5.5h0c-0.9,0-1.6,0.7-1.6,1.6h8.7C59.4,48.4,58.7,47.7,57.8,47.7z"/>
	<polygon class="st16" points="65.4,49.3 59.4,49.3 50.8,49.3 44.8,49.3 44.8,52.7 46.2,52.7 63.9,52.7 65.4,52.7 	"/>
</g>
</svg>
