<svg width="189" height="89" viewBox="0 0 189 89" xmlns="http://www.w3.org/2000/svg"><title>hub</title><g fill="none" fill-rule="evenodd"><path fill="#FFF" d="M0 2h189v87H0z"/><path d="M29.534 51.84l6.035-6.6-6.037-6.473m5.272 6.538h-9.06m-5.675 0h-.765m144.23 6.535l6.034-6.6-6.037-6.473m5.272 6.538h-9.06m-5.675 0h-.765" stroke="#43AE7A" stroke-width="1.5"/><ellipse cx="42.5" cy="42.731" rx="42.5" ry="42.731" transform="translate(52 1)" stroke="#DDE4F0" stroke-width="2" fill="#FFF"/><path d="M101.17 52.714H71.676a2.462 2.462 0 0 1 0-4.923h29.492a2.462 2.462 0 0 1 0 4.923" fill="#93C8A2"/><path d="M94.846 67.793c-2.403 0-4.776-.357-7.052-1.063a2.461 2.461 0 0 1 1.456-4.702c1.805.558 3.687.842 5.596.842 8.352 0 15.604-5.36 18.047-13.337a2.462 2.462 0 0 1 4.708 1.441c-3.08 10.06-12.224 16.82-22.755 16.82" fill="#43AF7A"/><path d="M118.015 40.209H88.523a2.462 2.462 0 0 1 0-4.923h29.492a2.462 2.462 0 0 1 0 4.923" fill="#93C8A2"/><path d="M74.447 40.21a2.462 2.462 0 0 1-2.355-3.183c3.08-10.061 12.224-16.82 22.754-16.82 2.404 0 4.777.357 7.053 1.063a2.462 2.462 0 0 1-1.458 4.702 18.887 18.887 0 0 0-5.595-.842c-8.352 0-15.604 5.36-18.047 13.338a2.464 2.464 0 0 1-2.352 1.741" fill="#43AF7A"/><path d="M111.918 28.367a2.462 2.462 0 1 1-4.923 0 2.462 2.462 0 0 1 4.923 0m-29.221 31.27a2.461 2.461 0 1 1-4.923 0 2.461 2.461 0 0 1 4.923 0" fill="#93C8A2"/></g></svg>