<svg xmlns="http://www.w3.org/2000/svg" version="1.1" x="0" y="0" viewBox="-289 381.2 32.4 31.8" xml:space="preserve"><style type="text/css">
	.st0{fill:#49B882;}
</style><path class="st0" d="M-277 392.6c-0.1-0.9-0.5-1.6-1.4-2 -0.4-0.2-0.8-0.2-1.2-0.2 -0.4 0-0.8 0.1-1.2 0.2 -0.9 0.4-1.3 1.1-1.4 2 0 0.1 0 0.3 0 0.4 0 1 0.2 1.9 0.6 2.8 0.2 0.4 0.5 0.8 0.8 1.2 0.4 0.4 0.8 0.5 1.2 0.5 0.4 0 0.9-0.2 1.2-0.5 0.3-0.3 0.6-0.7 0.8-1.2 0.4-0.9 0.6-1.8 0.6-2.8C-277 392.9-277 392.7-277 392.6zM-273.2 402.1c0-0.7-0.1-1.4-0.3-2.1 -0.1-0.2-0.1-0.4-0.3-0.5 -0.1-0.2-0.3-0.3-0.5-0.4 -0.5-0.1-0.9-0.2-1.4-0.4 -0.7-0.2-1.4-0.3-2.1-0.5 0 0-0.1 0-0.2 0 0 0 0 0.1 0 0.1 -0.1 0.4-0.2 0.9-0.4 1.3 -0.2 0.5-0.3 1.1-0.5 1.6 0 0.1 0 0.1-0.1 0.2 0-0.2-0.1-0.6-0.1-0.9 -0.1-0.6-0.1-1.1-0.1-1.2 0-0.1 0.1-0.1 0.1-0.2 0 0 0 0 0 0 0 0 0-0.1 0-0.1 0 0 0 0 0 0 0 0 0.1-0.1 0.1-0.2 0-0.1 0-0.1 0-0.1l0 0c0 0 0 0 0 0 0 0 0 0 0 0l0 0c0 0 0 0 0 0 0 0 0 0 0 0 0 0 0 0-0.1 0h0c0 0 0 0 0 0 -0.1 0-0.2 0-0.4 0 -0.2 0-0.3 0-0.4 0 0 0 0 0 0 0h0c0 0-0.1 0-0.1 0.1 0 0 0 0 0 0l0 0c0 0 0 0 0 0 0 0-0.1 0.1-0.1 0.1 0 0 0 0.1 0 0.1 0 0.1 0 0.1 0.1 0.2 0 0 0 0 0 0 0 0 0 0 0 0 0 0 0 0.1 0 0.1 0 0 0 0 0 0 0 0.1 0.1 0.1 0.1 0.2 0 0 0 0.1 0 0.3 -0.1 0.4-0.2 1.2-0.2 1.7 0-0.1-0.1-0.1-0.1-0.2 -0.2-0.5-0.4-1-0.5-1.6 -0.1-0.4-0.3-0.9-0.4-1.3 0 0 0-0.1 0-0.1 -0.1 0-0.1 0-0.2 0 -0.6 0.2-1.2 0.3-1.9 0.5 0 0 0 0 0 0 -0.5 0.1-1.1 0.3-1.6 0.4 -0.2 0-0.3 0.2-0.5 0.3 0 0 0 0 0 0 -0.1 0.2-0.2 0.4-0.3 0.5 -0.2 0.6-0.2 1.2-0.3 1.8 0 0.1 0 0.2 0 0.2 0 0.4-0.1 0.4 0.4 0.5 0.1 0 0.2 0.1 0.3 0.1 0.8 0.3 1.6 0.4 2.4 0.5 0.8 0.1 1.6 0.2 2.4 0.2 0.2 0 1.4 0 1.4 0 0.2 0 0.3 0 0.5 0 1.3 0 2.5-0.2 3.7-0.4 0.3-0.1 0.7-0.2 1-0.3 0.1 0 0.2-0.1 0.3-0.1C-273.1 402.5-273.2 402.6-273.2 402.1z"/><path class="st0" d="M-275.4 386.5c0 0.5 0 0.9 0 1.4 -0.1 0-0.3 0-0.4 0 -2.2 0-7.6 0-9.8 0 -1.1 0-1.8 0.7-1.8 1.8 0 4.9 0 9.8 0 14.6 0 1.1 0.6 1.8 1.7 1.8 7.3 0 14.6 0 21.9 0 1.3 0 2.6 0 3.8 0 1.1 0 1.7-0.7 1.7-1.7 0-4.9 0-9.8 0-14.7 0-1-0.7-1.7-1.7-1.7 -2.2 0-7.5 0-9.8 0 -0.1 0-0.2 0-0.4 0 0-0.5 0-0.9 0-1.4 0.1 0 0.2 0 0.3 0 2.2 0 7.6 0 9.8 0 1.7 0 3 1.3 3 3.1 0 4.9 0 9.8 0 14.7 0 1.8-1.3 3.1-3 3.1 -8.6 0-17.2 0-25.9 0 -1.7 0-3-1.3-3-3 0-4.9 0-9.9 0-14.8 0-1.7 1.3-3 3-3 2.2 0 7.7 0 10 0C-275.6 386.5-275.6 386.5-275.4 386.5zM-271.1 386.3c0-0.7 0-1.3 0-2 0-1-0.7-1.7-1.7-1.7 -0.9 0-1.7 0.7-1.7 1.7 0 1.8 0 3.7 0 5.5 0 1 0.7 1.7 1.7 1.7 0.9 0 1.7-0.8 1.7-1.7 0-0.6 0-1.2 0-1.8l0-0.9L-271.1 386.3zM-271.9 384.5c0 1.8 0 3.5 0 5.3 0 0.6-0.3 1-0.8 1l0 0c-0.5 0-0.9-0.4-0.9-0.9 0-0.6 0-1.3 0-1.9l0-0.8 0-0.6c0-0.7 0-1.3 0-2 0-0.6 0.3-1 0.9-1l0-0.1 0 0v0.1C-272.3 383.4-271.9 383.8-271.9 384.5z"/><path class="st0" d="M-270.9 394.8h9.9c0.3 0 0.5-0.2 0.5-0.5 0-0.3-0.2-0.5-0.5-0.5h-9.9c-0.3 0-0.5 0.2-0.5 0.5C-271.3 394.6-271.1 394.8-270.9 394.8zM-260.9 397h-9.9c-0.3 0-0.5 0.2-0.5 0.5 0 0.3 0.2 0.5 0.5 0.5h9.9c0.3 0 0.5-0.2 0.5-0.5C-260.4 397.2-260.7 397-260.9 397zM-260.9 400h-9.9c-0.3 0-0.5 0.2-0.5 0.5 0 0.3 0.2 0.5 0.5 0.5h9.9c0.3 0 0.5-0.2 0.5-0.5C-260.4 400.2-260.7 400-260.9 400z"/></svg>