<?xml version="1.0" encoding="utf-8"?>
<!-- Generator: Adobe Illustrator 19.0.0, SVG Export Plug-In . SVG Version: 6.00 Build 0)  -->
<svg version="1.1" id="Layer_1" xmlns="http://www.w3.org/2000/svg" xmlns:xlink="http://www.w3.org/1999/xlink" x="0px" y="0px"
	 width="84px" height="78px" viewBox="0 0 84 78" style="enable-background:new 0 0 84 78;" xml:space="preserve">
<style type="text/css">
	.st0{fill:#49B882;}
	.st1{fill:#54D194;}
</style>
<g id="XMLID_18_">
	<path id="XMLID_19_" class="st0" d="M58.5,65.6c-4.2,2.4-10.6,4.1-17.8,4.1c-15.8,0-23.9-8.1-23.9-19c0.1-8.7,4.5-14.3,15-18.1
		c6.8-2.5,8.9-4,8.9-6.7c0-3-2.4-4.8-6.5-4.8c-4.7,0-9.5,1.9-12,3.4l-3-12.6c3.4-1.8,9.1-3.4,15.6-3.4c13.7,0,22.5,8.3,22.5,19.2
		c0.1,7-4.3,13.6-15.7,17.7C35,47.5,33.3,49,33.3,52c0,3,2.1,4.9,7.3,4.9c5.1,0,11.6-2.4,14.8-4.4L58.5,65.6z"/>
</g>
<g id="XMLID_14_">
	<g id="XMLID_15_">
		<path id="XMLID_16_" class="st1" d="M14.3,16.2c0,1.4-1.1,2.5-2.7,2.5C10,18.7,9,17.5,9,16.2c0-1.5,1-2.5,2.6-2.5
			C13.2,13.6,14.3,14.7,14.3,16.2z"/>
	</g>
</g>
<g id="XMLID_10_">
	<g id="XMLID_11_">
		<path id="XMLID_12_" class="st0" d="M8.2,22.3c0,1.4-1.1,2.5-2.7,2.5c-1.6,0-2.6-1.1-2.6-2.5c0-1.5,1-2.5,2.6-2.5
			C7.2,19.8,8.2,20.9,8.2,22.3z"/>
	</g>
</g>
<g id="XMLID_6_">
	<g id="XMLID_7_">
		<path id="XMLID_8_" class="st1" d="M15.5,23.1c0,1.4-1.1,2.5-2.7,2.5c-1.6,0-2.6-1.1-2.6-2.5c0-1.5,1-2.5,2.6-2.5
			C14.5,20.5,15.5,21.6,15.5,23.1z"/>
	</g>
</g>
<g id="XMLID_2_">
	<g id="XMLID_3_">
		<path id="XMLID_4_" class="st1" d="M82.1,53.4c0,5-3.8,9.1-9.9,9.1c-5.8,0-9.6-4.1-9.5-9.1c-0.1-5.3,3.7-9.3,9.6-9.3
			C78.2,44.1,82,48.1,82.1,53.4z"/>
	</g>
</g>
</svg>
