<svg xmlns="http://www.w3.org/2000/svg" version="1.1" x="0" y="0" viewBox="-281 380.2 47.1 32.8" xml:space="preserve"><style type="text/css">
	.st0{fill:#49B882;}
</style><path class="st0" d="M-242.1 390.2c0-1.5-1.2-2.7-2.7-2.7 -0.7 0-1.4 0.3-1.9 0.8l-8.3-4.2c0-0.1 0-0.2 0-0.4 0-1.5-1.2-2.7-2.7-2.7s-2.7 1.2-2.7 2.7c0 0.1 0 0.3 0 0.4l-8.3 4.2c-0.5-0.5-1.2-0.8-1.9-0.8 -1.5 0-2.7 1.2-2.7 2.7 0 1.5 1.2 2.7 2.7 2.7 0.2 0 0.5 0 0.7-0.1l2.6 3.9 -2.6 3.9c-0.2-0.1-0.5-0.1-0.7-0.1 -1.5 0-2.7 1.2-2.7 2.7s1.2 2.7 2.7 2.7c0.7 0 1.4-0.3 1.9-0.8l8.3 4.2c0 0.1 0 0.2 0 0.4 0 1.5 1.2 2.7 2.7 2.7s2.7-1.2 2.7-2.7c0-0.1 0-0.3 0-0.4l8.3-4.2c0.5 0.5 1.2 0.8 1.9 0.8 1.5 0 2.7-1.2 2.7-2.7s-1.2-2.7-2.7-2.7c-0.2 0-0.5 0-0.7 0.1l-2.6-3.9 2.6-3.9c0.2 0.1 0.5 0.1 0.7 0.1C-243.3 392.8-242.1 391.6-242.1 390.2zM-249.1 395.1l-0.9-1.4 2.7-1.4L-249.1 395.1zM-252.4 393.1l-3.3 1.6c-0.5-0.5-1.2-0.8-1.9-0.8 -0.7 0-1.4 0.3-1.9 0.8l-3.3-1.6 4.5-6.7c0.2 0.1 0.5 0.1 0.7 0.1s0.5 0 0.7-0.1L-252.4 393.1zM-262.8 400.2l3.3-1.6c0.5 0.5 1.2 0.8 1.9 0.8s1.4-0.3 1.9-0.8l3.3 1.6 -4.5 6.7c-0.2-0.1-0.5-0.1-0.7-0.1s-0.5 0-0.7 0.1L-262.8 400.2zM-257.6 397.6c-0.5 0-1-0.4-1-1s0.4-1 1-1 1 0.4 1 1S-257.1 397.6-257.6 397.6zM-263.8 398.7l-1.4-2.1 1.4-2.1 3.5 1.7c0 0.1 0 0.2 0 0.4 0 0.1 0 0.3 0 0.4L-263.8 398.7zM-251.5 394.5l1.4 2.1 -1.4 2.1 -3.5-1.7c0-0.1 0-0.2 0-0.4 0-0.1 0-0.3 0-0.4L-251.5 394.5zM-249.1 398.1l1.8 2.7 -2.7-1.4L-249.1 398.1zM-245.8 403c0-0.5 0.4-1 1-1s1 0.4 1 1 -0.4 1-1 1S-245.8 403.6-245.8 403zM-247.5 403c0 0.1 0 0.3 0 0.4l-7.8 3.9 4.3-6.4 3.5 1.7C-247.4 402.8-247.5 402.9-247.5 403zM-258.6 409.5c0-0.5 0.4-1 1-1s1 0.4 1 1 -0.4 1-1 1S-258.6 410-258.6 409.5zM-267.9 403.4c0-0.1 0-0.2 0-0.4s0-0.3 0-0.4l3.5-1.7 4.3 6.4L-267.9 403.4zM-270.5 402.1c0.5 0 1 0.4 1 1s-0.4 1-1 1 -1-0.4-1-1S-271.1 402.1-270.5 402.1zM-266.2 398.1l0.9 1.4 -2.7 1.4L-266.2 398.1zM-266.2 395.1l-1.8-2.7 2.7 1.4L-266.2 395.1zM-269.5 390.2c0 0.5-0.4 1-1 1s-1-0.4-1-1 0.4-1 1-1S-269.5 389.6-269.5 390.2zM-267.8 390.2c0-0.1 0-0.3 0-0.4l7.7-3.9 -4.3 6.4 -3.5-1.7C-267.9 390.4-267.8 390.3-267.8 390.2zM-256.7 383.7c0 0.5-0.4 1-1 1s-1-0.4-1-1 0.4-1 1-1S-256.7 383.2-256.7 383.7zM-247.4 389.8c0 0.1 0 0.2 0 0.4 0 0.1 0 0.3 0 0.4l-3.5 1.7 -4.3-6.4L-247.4 389.8zM-243.8 390.2c0 0.5-0.4 1-1 1s-1-0.4-1-1 0.4-1 1-1S-243.8 389.6-243.8 390.2z"/></svg>