<svg xmlns="http://www.w3.org/2000/svg" version="1.1" x="0" y="0" viewBox="-289 381.2 32.4 31.8" xml:space="preserve"><style type="text/css">
	.st0{fill:#49B882;}
</style><path class="st0" d="M-266 385.6c-0.1-0.2-0.5-0.3-0.7-0.2 -0.2 0.1-0.3 0.5-0.2 0.7 0.7 1.2 1.1 2.5 1.1 3.9 0 2.9-1.6 5.5-4.2 6.8 -0.2 0.1-0.3 0.3-0.3 0.5v2.8l-1.7 2.4c-0.1 0.2-0.1 0.4 0 0.6l1.6 2.3 -1 1.6c-0.1 0.2-0.1 0.4 0 0.5l0.9 1.5 -2.6 2.6h-1.4v-8.5c0-0.3-0.2-0.5-0.5-0.5 -0.3 0-0.5 0.2-0.5 0.5v8.1l-1.3-0.8v-8.9c0-0.3-0.2-0.5-0.5-0.5s-0.5 0.2-0.5 0.5v9.2c0 0.2 0.1 0.3 0.2 0.4l2.3 1.5c0.1 0.1 0.2 0.1 0.3 0.1h2.1c0.1 0 0.3-0.1 0.4-0.2l3-3c0.2-0.2 0.2-0.4 0.1-0.6l-1-1.6 1-1.6c0.1-0.2 0.1-0.4 0-0.6l-1.6-2.3c0.5-0.7 1.6-2.2 1.6-2.3 0.1-0.1 0.1-0.2 0.1-0.3v-2.6c2.8-1.5 4.5-4.4 4.5-7.6C-264.7 388.5-265.2 387-266 385.6zM-277.7 399.7c0 0.3 0.2 0.5 0.5 0.5 0.3 0 0.5-0.2 0.5-0.5v-2.3c0-0.2-0.1-0.4-0.3-0.5 -2.6-1.3-4.2-3.9-4.2-6.8 0-4.2 3.4-7.7 7.7-7.7 2.1 0 4.1 0.9 5.6 2.4 0.2 0.2 0.5 0.2 0.7 0 0.2-0.2 0.2-0.5 0-0.7 -1.7-1.8-3.9-2.7-6.3-2.7 -4.8 0-8.7 3.9-8.7 8.7 0 3.2 1.7 6.1 4.5 7.6V399.7zM-275.4 398.3v3.2c0 0.3 0.2 0.5 0.5 0.5s0.5-0.2 0.5-0.5v-3.2c0-0.3-0.2-0.5-0.5-0.5S-275.4 398-275.4 398.3zM-270.8 387.6c0-1.5-1.2-2.7-2.7-2.7 -1.5 0-2.7 1.2-2.7 2.7s1.2 2.7 2.7 2.7S-270.8 389.1-270.8 387.6zM-275.1 387.6c0-0.9 0.7-1.7 1.7-1.7 0.9 0 1.7 0.7 1.7 1.7 0 0.9-0.7 1.7-1.7 1.7C-274.4 389.2-275.1 388.5-275.1 387.6zM-269.6 392.8c0-0.3-0.2-0.5-0.5-0.5h-6.7c-0.3 0-0.5 0.2-0.5 0.5s0.2 0.5 0.5 0.5h6.7C-269.8 393.3-269.6 393.1-269.6 392.8z"/></svg>