<?xml version="1.0" encoding="utf-8"?>
<!-- Generator: Adobe Illustrator 19.0.0, SVG Export Plug-In . SVG Version: 6.00 Build 0)  -->
<svg version="1.1" id="Layer_1" xmlns="http://www.w3.org/2000/svg" xmlns:xlink="http://www.w3.org/1999/xlink" x="0px" y="0px"
	 width="212px" height="86px" viewBox="11 2 212 86" style="enable-background:new 11 2 212 86;" xml:space="preserve">
<style type="text/css">
	.st0{fill:#FFFFFF;stroke:#DDE4F0;stroke-width:3;}
	.st1{fill:#FF6F52;}
	.st2{fill:#E25749;}
	.st3{fill:#FCD577;}
	.st4{fill:#EAC36E;}
	.st5{fill:#CFDCE5;}
	.st6{fill:#BAC6CC;}
	.st7{fill:#4EBFED;}
	.st8{fill:#314A5F;}
	.st9{fill:#FF7058;}
	.st10{fill:#FFD05B;}
	.st11{fill:#F9B54C;}
	.st12{fill:#2B3B4E;}
	.st13{fill:#FFFFFF;}
	.st14{fill:#E6E9EE;}
	.st15{fill:#ACB3BA;}
	.st16{fill:#E06866;}
	.st17{fill:#424A60;}
	.st18{fill:#E7ECED;}
	.st19{fill:#262B35;}
	.st20{fill:#25AE88;}
	.st21{fill:#57D8AB;}
</style>
<path id="a_1_" class="st0" d="M55.9,82C37,82,21.6,66.6,21.6,47.6S37,13.2,55.9,13.2s34.2,15.4,34.2,34.4S74.8,82,55.9,82"/>
<path id="b_1_" class="st0" d="M176.9,82c-18.9,0-34.2-15.4-34.2-34.4s15.3-34.4,34.2-34.4s34.2,15.4,34.2,34.4S195.8,82,176.9,82"
	/>
<g>
	<path class="st1" d="M185.3,41.8l-0.7,1.4l-6.3-6.3l-6.3,6.3l-0.7-1.4l1.4-1.4h-5.9v17.8h22.9V40.4h-5.9L185.3,41.8z M168.8,45.4
		h4.7v6.2h-4.7V45.4z M184.1,58.1h-11.7V56h1.4v-0.7v-1.5h1.8v0h-0.3v-9.9h6v9.9H181v0h1.8v1.5V56h1.4V58.1z M187.7,51.6h-4.7v-6.2
		h4.7V51.6z"/>
	<polygon class="st2" points="183,39.5 183.9,40.4 189.7,40.4 189.7,39.5 189.7,39.5 188.5,39.5 	"/>
	<polygon class="st2" points="173.6,39.5 168.1,39.5 166.8,39.5 166.8,39.5 166.8,40.4 172.7,40.4 	"/>
	<polygon class="st3" points="188.5,33.4 168.1,33.4 165.4,39.5 166.8,39.5 168.1,39.5 173.6,39.5 178.3,34.8 183,39.5 188.5,39.5 
		189.7,39.5 191.1,39.5 	"/>
	<polygon class="st2" points="178.3,36.1 172,42.5 171.3,41.8 172,43.2 178.3,36.9 184.6,43.2 185.3,41.8 184.6,42.5 	"/>
	<polygon class="st4" points="171.3,41.8 172,42.5 178.3,36.1 184.6,42.5 185.3,41.8 183.9,40.4 183,39.5 178.3,34.8 173.6,39.5 
		172.7,40.4 	"/>
	<polygon class="st5" points="182.8,53.8 181,53.8 175.6,53.8 173.8,53.8 173.8,55.3 182.8,55.3 	"/>
	<rect x="173.8" y="55.3" class="st6" width="9" height="0.7"/>
	<path class="st6" d="M181,53.8h-0.3v-9.2h-4.8v9.2h-0.3v0L181,53.8L181,53.8z M177.1,49.8c-0.2,0-0.4-0.2-0.4-0.4
		c0-0.2,0.2-0.4,0.4-0.4s0.4,0.2,0.4,0.4C177.6,49.6,177.4,49.8,177.1,49.8z"/>
	<polygon class="st2" points="175.9,44.6 180.7,44.6 180.7,53.8 181,53.8 181.3,53.8 181.3,43.9 175.3,43.9 175.3,53.8 175.6,53.8 
		175.9,53.8 	"/>
	<rect x="183.7" y="48.2" class="st7" width="3.4" height="2.7"/>
	<rect x="183.7" y="46" class="st7" width="3.4" height="1.6"/>
	<rect x="169.5" y="46" class="st7" width="3.4" height="1.6"/>
	<rect x="169.5" y="48.2" class="st7" width="3.4" height="2.7"/>
	<path class="st2" d="M183.1,51.6h4.7v-6.2h-4.7V51.6z M183.7,46h3.4v1.6h-3.4V46z M183.7,48.2h3.4V51h-3.4V48.2z"/>
	<path class="st2" d="M173.5,45.4h-4.7v6.2h4.7V45.4z M169.5,46h3.4v1.6h-3.4V46z M172.9,51h-3.4v-2.7h3.4V51z"/>
	<circle class="st8" cx="177.1" cy="49.3" r="0.4"/>
	<polygon class="st5" points="173.8,56 172.4,56 172.4,58.1 184.1,58.1 184.1,56 182.8,56 	"/>
</g>
<g>
	<path class="st9" d="M58.4,32C58.4,32,58.5,32,58.4,32c0.9,0,1.6,0,2.2,0v0v0c0,0,0,0,0,0c0.2,0,0.4,0,0.6,0c0.3,0,0.5,0,0.6,0v0v0
		c0.5,0,1.1,0,1.8,0c0,0,0,0,0,0c0,0,0.1,0,0.1,0c0.6,0,1.1,0,1.7,0l-0.5-2c-0.1-0.5-0.6-0.9-1.2-0.9h-5.3c-0.6,0-1.1,0.4-1.2,0.9
		l-0.5,2C57.4,32,57.9,32,58.4,32C58.4,32,58.4,32,58.4,32z M63.7,29.7h0.4v1.8h-0.4V29.7z M61.8,29.7h0.5l0.3,0.5l0.3-0.5h0.5
		l-0.6,0.9l0.6,0.9H63l-0.4-0.6l-0.4,0.6h-0.5l0.6-0.9L61.8,29.7z M60.9,29.7l0.8,1.8c0,0-0.4,0-0.4,0l-0.2-0.4h-0.8l-0.2,0.4h-0.4
		l0.8-1.8H60.9z M58.4,29.7h1.4v0.4h-0.5v1.5h-0.4v-1.5h-0.5V29.7z"/>
	<polygon class="st9" points="60.7,30.3 60.5,30.8 61,30.8 	"/>
	<path class="st10" d="M81,39.3C81,39.3,81,39.4,81,39.3l0,0.2c0,0.1-0.1,0.2-0.1,0.3C81,39.6,81,39.5,81,39.3
		c0-0.9-1.5-1.5-3.4-1.6v2.4c1.8-0.3,2.9-0.9,3.3-1.3C81,39,81,39.2,81,39.3z"/>
	<polygon class="st10" points="77.6,40.9 77.6,40.9 77.6,40.9 	"/>
	<path class="st10" d="M80.8,39.8C80.8,39.8,80.8,39.8,80.8,39.8C80.8,39.8,80.8,39.8,80.8,39.8z"/>
	<path class="st10" d="M80.9,39.8C80.9,39.8,80.9,39.8,80.9,39.8C80.9,39.8,80.9,39.8,80.9,39.8z"/>
	<path class="st11" d="M80.8,39.8C80.8,39.8,80.8,39.8,80.8,39.8C80.8,39.8,80.8,39.8,80.8,39.8C80.9,39.8,80.9,39.8,80.8,39.8
		c0.1-0.1,0.1-0.1,0.1-0.1c0.1-0.1,0.1-0.2,0.1-0.3l0-0.1c0,0,0-0.1,0-0.1c0-0.2,0-0.3-0.1-0.4c-0.4,0.3-1.5,1-3.3,1.3h0
		c-0.2,0-0.5,0.1-0.8,0.1c0.1,0.2,0.2,0.4,0.3,0.6h0.5h0c0,0,0,0,0,0C79.1,40.9,80.3,40.4,80.8,39.8z"/>
	<path class="st10" d="M41.7,39.8C41.7,39.8,41.7,39.8,41.7,39.8C41.7,39.8,41.7,39.8,41.7,39.8z"/>
	<path class="st10" d="M41.7,38.9c0.4,0.3,1.5,1,3.3,1.3v-2.4c-1.9,0.1-3.4,0.7-3.4,1.6c0,0.1,0,0.3,0.1,0.4
		c-0.1-0.1-0.1-0.2-0.1-0.3L41.7,38.9z"/>
	<path class="st10" d="M41.7,39.8C41.7,39.8,41.7,39.8,41.7,39.8C41.7,39.8,41.7,39.8,41.7,39.8z"/>
	<path class="st12" d="M75.1,58.4h-0.4v2.3c0,0.1,0.1,0.2,0.2,0.2h3.8c0.1,0,0.2-0.1,0.2-0.2v-4C78.6,57.5,77.5,58.3,75.1,58.4z"/>
	<path class="st12" d="M43.5,56.7v4c0,0.1,0.1,0.2,0.2,0.2h3.8c0.1,0,0.2-0.1,0.2-0.2v-2.3h-0.4C45,58.3,43.9,57.5,43.5,56.7z"/>
	<path class="st10" d="M45,42.3c0-0.1,0.1-0.2,0.1-0.3C45.1,42,45,42.1,45,42.3z"/>
	<path class="st10" d="M72.3,32.4c-1.4-0.2-4.1-0.4-6.7-0.4c-0.6,0-1.2,0-1.7,0c1.2,0,2.4,0.1,3.7,0.1l-0.4,0.7H55.3L55,32.1
		c1.1,0,2.3-0.1,3.4-0.1c-0.5,0-0.9,0-1.4,0c-2.6,0.1-5.4,0.2-6.7,0.4c0,0-2.5,3.2-4.3,7.5l1.8,4.7l-1.9-1.4l-1.2,0.5
		c0.1-0.5,0.3-1,0.4-1.4c-0.2,0.7-0.4,1.4-0.6,2.1c0,0-1,1.8-1.2,2.1V55c0,0-0.2,0.8,0.3,1.7c0.5,0.8,1.5,1.6,3.9,1.7h0.4h3.1
		l3.2-6.1h14.6l3.2,6.1h3.1h0.4c2.4-0.1,3.5-0.9,3.9-1.7c0.5-0.8,0.3-1.7,0.3-1.7v-8.6c-0.3-0.2-1.2-2.1-1.2-2.1
		c-0.3-1.2-0.7-2.3-1.1-3.5c-0.1-0.2-0.2-0.4-0.3-0.6C75,35.8,72.3,32.4,72.3,32.4z M47.2,40.6c-0.2,0-0.4-0.3-0.3-0.5l3.8-6.7
		c0.1-0.1,0.2-0.2,0.3-0.2c3.3,0.2,8.1,0.2,10.4,0.2c2.2,0,7.1,0,10.4-0.2c0.1,0,0.2,0.1,0.3,0.2l3.8,6.7c0.1,0.2,0,0.5-0.3,0.5
		c-1.9,0.1-8.7,0.4-14.2,0.4C55.8,41.1,49.1,40.7,47.2,40.6z M48.3,56.9l-1.6-0.2c-0.4,0-0.7-0.2-1-0.3c-0.8-0.5-1.2-1.3-1.1-2.3
		c0-0.1,0-0.2,0-0.2c0.2-1.1,0.7-2,0.7-2c2.7-0.7,5,1,5,1L48.3,56.9z M75.4,56.8l-1.6,0.2l-2.1-4c0,0,2.4-1.7,5-1
		c0,0,0.6,1.1,0.7,2.2C77.6,55.5,76.7,56.7,75.4,56.8z M73.1,49.9l-1-0.8c-0.5,0.3-1.4,0.6-2.5,0.8l0,0c-2.6,0.6-6.3,0.8-8.2,0.9
		c0,0-0.1,0-0.1,0c0,0,0,0,0,0c0,0,0,0,0,0c-1.9-0.1-5.7-0.4-8.4-0.9l0,0c-1-0.2-1.9-0.5-2.4-0.8l-1,0.8c0,0-3.2-0.6-5-2.4l0.3-2.2
		c0,0,3,2.1,16.6,2.1c0,0,0,0,0,0c13.6,0,16.6-2.1,16.6-2.1l0.3,2.2C76.4,49.3,73.1,49.9,73.1,49.9z M78,43.7l-1.2-0.5l-1.9,1.4
		l1.8-4.7C77.2,41.1,77.6,42.4,78,43.7z"/>
	<path class="st10" d="M61.9,31.9c-0.2,0-0.4,0-0.6,0C61.5,31.9,61.7,31.9,61.9,31.9L61.9,31.9z"/>
	<path class="st10" d="M63.7,32C63.7,32,63.7,32,63.7,32C63.7,32,63.7,32,63.7,32z"/>
	<polygon class="st10" points="60.6,31.9 60.6,31.9 60.6,31.9 	"/>
	<path class="st10" d="M58.4,32C58.4,32,58.5,32,58.4,32C58.5,32,58.4,32,58.4,32z"/>
	<path class="st11" d="M76.7,51.9c-2.7-0.7-5,1-5,1l2.1,4l1.6-0.2c1.3-0.1,2.3-1.3,2.1-2.6C77.3,53,76.7,51.9,76.7,51.9z"/>
	<path class="st11" d="M45.4,51.9c0,0-0.5,1-0.7,2c0,0.1,0,0.2,0,0.2c-0.1,0.9,0.3,1.8,1.1,2.3c0.3,0.2,0.6,0.3,1,0.3l1.6,0.2l2.1-4
		C50.4,52.9,48,51.2,45.4,51.9z"/>
	<path class="st11" d="M54,52.3l-3.2,6.1h9.8h1.3h9.8l-3.2-6.1H54z M66.3,57.2H56.2v-3.6h10.2V57.2z"/>
	<path class="st13" d="M61.3,47.3C61.3,47.3,61.3,47.3,61.3,47.3c-13.6,0-16.6-2.1-16.6-2.1l-0.3,2.2c1.8,1.9,5,2.4,5,2.4l1-0.8
		c0.5,0.3,1.4,0.6,2.4,0.8l-1.3-3C54,47.1,57.1,47.3,61.3,47.3z M46.2,48c-0.4,0-0.8-0.4-0.8-0.8s0.4-0.8,0.8-0.8s0.8,0.4,0.8,0.8
		S46.7,48,46.2,48z M48.7,49.2c-0.7,0-1.2-0.5-1.2-1.2c0-0.7,0.5-1.2,1.2-1.2c0.7,0,1.2,0.5,1.2,1.2C49.9,48.7,49.3,49.2,48.7,49.2z
		"/>
	<path class="st13" d="M61.3,47.3c4.1,0,7.2-0.2,9.6-0.4l-1.3,3c1-0.2,1.9-0.5,2.5-0.8l1,0.8c0,0,3.3-0.6,5-2.4l-0.3-2.2
		C77.8,45.2,74.8,47.3,61.3,47.3z M73.9,49.3c-0.7,0-1.2-0.5-1.2-1.2c0-0.7,0.5-1.2,1.2-1.2s1.2,0.5,1.2,1.2
		C75.1,48.8,74.5,49.3,73.9,49.3z M76.3,48c-0.4,0-0.8-0.4-0.8-0.8s0.4-0.8,0.8-0.8c0.4,0,0.8,0.4,0.8,0.8S76.7,48,76.3,48z"/>
	<path class="st13" d="M61.3,50.8c0,0,0.1,0,0.1,0C61.4,50.8,61.3,50.8,61.3,50.8C61.3,50.8,61.3,50.8,61.3,50.8z"/>
	<path class="st11" d="M76.7,39.9l-1.8,4.7l1.9-1.4l1.2,0.5C77.6,42.4,77.2,41.1,76.7,39.9z"/>
	<path class="st11" d="M45.7,43.2l1.9,1.4L45.9,40l0,0c0,0.1-0.1,0.2-0.1,0.3c-0.3,0-0.5-0.1-0.8-0.1c-1.8-0.3-2.9-0.9-3.3-1.3
		l-0.1,0.6c0,0.1,0.1,0.2,0.1,0.3c0,0,0,0,0,0c0,0,0,0,0,0c0,0,0,0,0,0.1c0,0,0,0,0,0c0.5,0.6,1.7,1,3.2,1.1h0.5
		c-0.1,0.3-0.3,0.7-0.4,1c0,0.1-0.1,0.2-0.1,0.3c0,0,0,0,0,0c-0.2,0.5-0.3,1-0.4,1.4L45.7,43.2z"/>
	<path class="st12" d="M61.3,47.3C61.3,47.3,61.3,47.3,61.3,47.3C61.3,47.3,61.3,47.3,61.3,47.3c-4.1,0-7.3-0.2-9.7-0.4l1.3,3l0,0
		c2.7,0.6,6.5,0.8,8.4,0.9c0,0,0,0,0,0c0,0,0.1,0,0.1,0c1.9-0.1,5.6-0.4,8.2-0.9l0,0l1.3-3C68.5,47.1,65.4,47.3,61.3,47.3z M59.2,49
		c0-0.6,0.9-1.1,2.1-1.1c1.2,0,2.1,0.5,2.1,1.1s-0.9,1.1-2.1,1.1C60.1,50.1,59.2,49.6,59.2,49z"/>
	<ellipse class="st14" cx="61.3" cy="49" rx="2.1" ry="1.1"/>
	<path class="st11" d="M63.7,32c-0.7,0-1.3,0-1.8,0v0c-0.2,0-0.4,0-0.6,0c-0.3,0-0.5,0-0.6,0c0,0,0,0,0,0v0c-0.6,0-1.3,0-2.1,0
		c0,0-0.1,0-0.1,0c0,0-0.1,0-0.1,0c-1.1,0-2.2,0.1-3.4,0.1l0.4,0.7h11.9l0.4-0.7C66.3,32,65,32,63.9,32C63.8,32,63.8,32,63.7,32
		C63.7,32,63.7,32,63.7,32z"/>
	<circle class="st15" cx="73.9" cy="48.1" r="1.2"/>
	<circle class="st15" cx="76.3" cy="47.2" r="0.8"/>
	<circle class="st15" cx="48.7" cy="48.1" r="1.2"/>
	<circle class="st15" cx="46.2" cy="47.2" r="0.8"/>
	<polygon class="st13" points="58.9,31.5 59.3,31.5 59.3,30.1 59.8,30.1 59.8,29.7 58.4,29.7 58.4,30.1 58.9,30.1 	"/>
	<path class="st13" d="M60.2,31.5l0.2-0.4h0.8l0.2,0.4c0,0,0.4,0,0.4,0l-0.8-1.8h-0.4l-0.8,1.8H60.2z M60.7,30.3l0.2,0.5h-0.5
		L60.7,30.3z"/>
	<polygon class="st13" points="62.2,31.5 62.6,30.9 63,31.5 63.5,31.5 62.9,30.6 63.4,29.7 62.9,29.7 62.6,30.3 62.3,29.7 
		61.8,29.7 62.3,30.6 61.7,31.5 	"/>
	<rect x="63.7" y="29.7" class="st13" width="0.4" height="1.8"/>
	<rect x="56.2" y="53.6" class="st13" width="10.2" height="3.6"/>
	<path class="st13" d="M75.6,40.6c0.2,0,0.4-0.3,0.3-0.5l-3.8-6.7c-0.1-0.1-0.2-0.2-0.3-0.2c-3.3,0.2-8.1,0.2-10.4,0.2
		c-2.2,0-7.1,0-10.4-0.2c-0.1,0-0.2,0.1-0.3,0.2l-3.8,6.7c-0.1,0.2,0,0.5,0.3,0.5c1.9,0.1,8.7,0.4,14.2,0.4
		C66.9,41.1,73.7,40.7,75.6,40.6z"/>
</g>
<path id="c_3_" class="st0" d="M115.8,8.7c-21.4,0-38.7,17.4-38.7,38.9s17.3,38.9,38.7,38.9"/>
<path id="c_1_" class="st0" d="M115.8,86.5c21.4,0,38.7-17.4,38.7-38.9c0-21.5-17.3-38.9-38.7-38.9"/>
<g transform="translate(17.905 17.17)">
	<g>
		<polygon class="st16" points="93.5,7.7 93.5,7.7 93.5,7.7 		"/>
	</g>
</g>
<g>
	<path class="st17" d="M101.4,67.3c0,1.4,1.1,2.6,2.6,2.6h19c1.4,0,2.6-1.1,2.6-2.6v-6.5h-24.1V67.3z M113.5,63.1
		c1.2,0,2.3,1,2.3,2.3c0,1.2-1,2.3-2.3,2.3c-1.2,0-2.3-1-2.3-2.3C111.2,64.1,112.2,63.1,113.5,63.1z"/>
	<path class="st17" d="M125.5,28.8c0-1.4-1.1-2.6-2.6-2.6h-19c-1.4,0-2.6,1.1-2.6,2.6v2h24.1V28.8z M113.5,29.2h-3
		c-0.4,0-0.8-0.3-0.8-0.8s0.3-0.8,0.8-0.8h3c0.4,0,0.8,0.3,0.8,0.8S113.9,29.2,113.5,29.2z M116.5,29.2h-0.8c-0.4,0-0.8-0.3-0.8-0.8
		s0.3-0.8,0.8-0.8h0.8c0.4,0,0.8,0.3,0.8,0.8S116.9,29.2,116.5,29.2z"/>
	<polygon class="st18" points="115,54 115,49.5 112,49.5 112,35.2 125.5,35.2 125.5,30.7 101.4,30.7 101.4,60.8 125.5,60.8 
		125.5,49.5 121,49.5 	"/>
	<circle class="st19" cx="113.5" cy="65.3" r="2.3"/>
	<path class="st19" d="M113.5,27.7h-3c-0.4,0-0.8,0.3-0.8,0.8s0.3,0.8,0.8,0.8h3c0.4,0,0.8-0.3,0.8-0.8S113.9,27.7,113.5,27.7z"/>
	<path class="st19" d="M116.5,27.7h-0.8c-0.4,0-0.8,0.3-0.8,0.8s0.3,0.8,0.8,0.8h0.8c0.4,0,0.8-0.3,0.8-0.8S116.9,27.7,116.5,27.7z"
		/>
	<path class="st20" d="M139.1,35.2h-13.5H112v14.3h3V54l6-4.5h4.5h13.5V35.2z M116.5,39.7h7.5c0.4,0,0.8,0.3,0.8,0.8
		s-0.3,0.8-0.8,0.8h-7.5c-0.4,0-0.8-0.3-0.8-0.8S116.1,39.7,116.5,39.7z M134.5,45h-18.1c-0.4,0-0.8-0.3-0.8-0.8s0.3-0.8,0.8-0.8
		h18.1c0.4,0,0.8,0.3,0.8,0.8S135,45,134.5,45z"/>
	<path class="st21" d="M116.5,41.2h7.5c0.4,0,0.8-0.3,0.8-0.8s-0.3-0.8-0.8-0.8h-7.5c-0.4,0-0.8,0.3-0.8,0.8S116.1,41.2,116.5,41.2z
		"/>
	<path class="st21" d="M134.5,43.5h-18.1c-0.4,0-0.8,0.3-0.8,0.8s0.3,0.8,0.8,0.8h18.1c0.4,0,0.8-0.3,0.8-0.8S135,43.5,134.5,43.5z"
		/>
</g>
</svg>
