<svg width="686" height="161" viewBox="0 0 686 161" xmlns="http://www.w3.org/2000/svg"><title>vector_h-trans</title><g fill="none" fill-rule="evenodd"><path d="M165.814 50.769h25.594V76.72h12.947c5.977 0 12.122-1.057 17.784-2.96 2.781-.934 5.899-2.235 8.646-3.87-3.614-4.68-5.458-10.588-6.002-16.411-.735-7.919.871-18.231 6.279-24.429l2.689-3.087 3.207 2.558c8.074 6.433 14.861 15.417 16.057 25.664 9.723-2.834 21.132-2.164 29.704 2.739l3.511 2.01-1.85 3.582c-7.245 14.022-22.392 18.371-37.204 17.599-22.161 54.74-70.408 80.656-128.908 80.656-30.226 0-57.955-11.205-73.743-37.792l-.26-.439-2.299-4.64c-5.337-11.707-7.111-24.532-5.907-37.343l.359-3.837h21.89V50.769h25.595V25.388h51.192V0h30.719v50.769" fill="#364548"/><path d="M248.745 60.371c1.716-13.23-8.266-23.621-14.459-28.552-7.135 8.178-8.244 29.614 2.948 38.64-6.245 5.502-19.404 10.49-32.879 10.49H40.305c-1.309 13.949 1.161 26.796 6.801 37.796l1.866 3.384a61.548 61.548 0 0 0 3.869 5.756c6.744.429 12.962.576 18.649.456h.003c11.178-.248 20.301-1.555 27.217-3.935a1.974 1.974 0 0 1 2.505 1.209 1.948 1.948 0 0 1-1.214 2.486c-.918.316-1.879.608-2.869.894h-.005c-5.442 1.541-11.281 2.579-18.811 3.036.444.009-.463.07-.468.07-.256.016-.578.05-.836.064-2.965.168-6.163.203-9.434.203-3.579 0-7.102-.069-11.04-.267l-.101.064c13.67 15.238 35.041 24.373 61.831 24.373 56.695 0 104.787-24.922 126.08-80.883 15.11 1.538 29.631-2.28 36.238-15.068-10.522-6.02-24.053-4.1-31.841-.216" fill="#22A0C8"/><path d="M248.745 60.371c1.716-13.23-8.266-23.621-14.459-28.552-7.135 8.178-8.244 29.614 2.948 38.64-6.245 5.502-19.404 10.49-32.879 10.49H50.02c-.671 21.363 7.324 37.582 21.47 47.392h.003c11.178-.248 20.301-1.555 27.217-3.935a1.974 1.974 0 0 1 2.505 1.209 1.948 1.948 0 0 1-1.214 2.486c-.918.316-1.879.608-2.869.894h-.005c-5.442 1.541-11.78 2.71-19.312 3.17-.005 0-.183-.172-.183-.172 19.293 9.814 47.271 9.78 79.351-2.437 35.966-13.703 69.435-39.812 92.786-69.672-.349.162-.694.319-1.024.487" fill="#37B0D9"/><path d="M40.614 97.898c1.017 7.476 3.222 14.473 6.492 20.847l1.866 3.384a61.548 61.548 0 0 0 3.869 5.756c6.744.429 12.962.576 18.652.456 11.178-.248 20.301-1.555 27.217-3.935a1.974 1.974 0 0 1 2.505 1.209 1.948 1.948 0 0 1-1.214 2.486c-.918.316-1.879.608-2.869.894h-.005c-5.442 1.541-11.749 2.645-19.279 3.106-.256.016-.707.019-.97.032a168.62 168.62 0 0 1-9.399.267c-3.578 0-7.237-.067-11.176-.267 13.671 15.238 35.175 24.405 61.965 24.405 48.539 0 90.765-18.269 115.275-58.64H40.614" fill="#1B81A5"/><path d="M51.498 97.898c2.9 13.124 9.875 23.422 19.995 30.443 11.178-.248 20.301-1.555 27.217-3.935a1.974 1.974 0 0 1 2.505 1.209 1.948 1.948 0 0 1-1.214 2.486c-.918.316-1.879.608-2.869.894h-.005c-5.442 1.541-11.881 2.645-19.413 3.106 19.293 9.815 47.192 9.672 79.269-2.545 19.402-7.397 38.077-18.4 54.834-31.658H51.498" fill="#1E91B4"/><path d="M62.573 77.001h22.182V54.999H62.573v22.002zm1.846-1.831h1.752V56.834h-1.752V75.17zm3.29 0h1.823V56.834h-1.823V75.17zm3.363 0h1.821V56.834h-1.821V75.17zm3.361 0h1.823V56.834h-1.823V75.17zm3.361 0h1.821V56.834h-1.821V75.17zm3.361 0h1.754V56.834h-1.754V75.17zm7.012-23.554h22.186V29.615H88.167v22.001zm1.85-1.834h1.75V31.448h-1.75v18.334zm3.294 0h1.82V31.448h-1.82v18.334zm3.355 0h1.823V31.448h-1.823v18.334zm3.365 0h1.819V31.448h-1.819v18.334zm3.363 0h1.82V31.448h-1.82v18.334zm3.359 0h1.753V31.448h-1.753v18.334z" fill="#23A3C1"/><path d="M88.167 77.001h22.186V54.999H88.167v22.002zm1.85-1.831h1.75V56.834h-1.75V75.17zm3.294 0h1.82V56.834h-1.82V75.17zm3.355 0h1.823V56.834h-1.823V75.17zm3.365 0h1.819V56.834h-1.819V75.17zm3.363 0h1.82V56.834h-1.82V75.17zm3.359 0h1.753V56.834h-1.753V75.17z" fill="#34BBDE"/><path d="M113.767 77.001h22.185V54.999h-22.185v22.002zm1.846-1.831h1.752V56.834h-1.752V75.17zm3.292 0h1.821V56.834h-1.821V75.17zm3.364 0h1.82V56.834h-1.82V75.17zm3.361 0h1.82V56.834h-1.82V75.17zm3.358 0h1.823V56.834h-1.823V75.17zm3.364 0h1.751V56.834h-1.751V75.17z" fill="#23A3C1"/><path d="M113.767 51.616h22.185V29.615h-22.185v22.001zm1.846-1.834h1.752V31.448h-1.752v18.334zm3.292 0h1.821V31.448h-1.821v18.334zm3.364 0h1.82V31.448h-1.82v18.334zm3.361 0h1.82V31.448h-1.82v18.334zm3.358 0h1.823V31.448h-1.823v18.334zm3.364 0h1.751V31.448h-1.751v18.334zm7.012 27.219h22.185V54.999h-22.185v22.002zm1.847-1.831h1.753V56.834h-1.753V75.17zm3.294 0h1.821V56.834h-1.821V75.17zm3.361 0h1.82V56.834h-1.82V75.17zm3.361 0h1.82V56.834h-1.82V75.17zm3.361 0h1.822V56.834h-1.822V75.17zm3.361 0h1.754V56.834h-1.754V75.17z" fill="#34BBDE"/><path d="M139.364 51.616h22.185V29.615h-22.185v22.001zm1.847-1.834h1.753V31.448h-1.753v18.334zm3.294 0h1.821V31.448h-1.821v18.334zm3.361 0h1.82V31.448h-1.82v18.334zm3.361 0h1.82V31.448h-1.82v18.334zm3.361 0h1.822V31.448h-1.822v18.334zm3.361 0h1.754V31.448h-1.754v18.334z" fill="#23A3C1"/><path d="M139.364 26.231h22.185V4.23h-22.185v22.001zm1.847-1.833h1.753V6.061h-1.753v18.337zm3.294 0h1.821V6.061h-1.821v18.337zm3.361 0h1.82V6.061h-1.82v18.337zm3.361 0h1.82V6.061h-1.82v18.337zm3.361 0h1.822V6.061h-1.822v18.337zm3.361 0h1.754V6.061h-1.754v18.337z" fill="#34BBDE"/><path d="M164.96 77.001h22.183V54.999H164.96v22.002zm1.849-1.831h1.749V56.834h-1.749V75.17zm3.292 0h1.818V56.834h-1.818V75.17zm3.361 0h1.821V56.834h-1.821V75.17zm3.359 0h1.821V56.834h-1.821V75.17zm3.364 0h1.819V56.834h-1.819V75.17zm3.36 0h1.751V56.834h-1.751V75.17z" fill="#23A3C1"/><path d="M108.966 112.673c3.38 0 6.121 2.717 6.121 6.066 0 3.356-2.741 6.071-6.121 6.071-3.383 0-6.12-2.715-6.12-6.071 0-3.349 2.737-6.066 6.12-6.066" fill="#D3ECEC"/><path d="M108.966 114.39c.559 0 1.092.109 1.583.297-.531.305-.892.88-.892 1.536 0 .98.8 1.773 1.789 1.773.677 0 1.264-.37 1.567-.924.216.515.333 1.075.333 1.667 0 2.402-1.961 4.35-4.38 4.35-2.421 0-4.385-1.948-4.385-4.35 0-2.398 1.964-4.349 4.385-4.349M.711 100.093h284.704c-6.203-1.561-19.616-3.665-17.402-11.723-11.273 12.937-38.458 9.075-45.318 2.697-7.637 10.99-52.114 6.812-55.215-1.75-9.577 11.148-39.255 11.148-48.836 0-3.102 8.562-47.574 12.74-55.214 1.75-6.863 6.378-34.044 10.24-45.316-2.697C20.326 96.428 6.912 98.532.711 100.093" fill="#364548"/><path d="M125.235 156.409c-15.157-7.134-23.478-16.826-28.108-27.414-5.629 1.594-12.396 2.611-20.259 3.05-2.965.167-6.077.247-9.348.247-3.771 0-7.743-.111-11.91-.329 13.898 13.777 30.995 24.383 62.658 24.575 2.335 0 4.658-.042 6.967-.129" fill="#BDD9D7"/><path d="M102.758 138.762c-2.097-2.823-4.13-6.37-5.626-9.767-5.634 1.594-12.401 2.611-20.264 3.05 5.399 2.908 13.128 5.601 25.89 6.717" fill="#D3ECEC"/><path d="M355.07 70.968V46.257c0-3.247 2.045-5.859 5.435-5.859h.938c3.39 0 5.427 2.612 5.427 5.859v52.025c0 12.685-6.321 22.78-17.332 29.213-5.107 2.975-10.752 4.506-16.672 4.506h-2.34c-12.792 0-22.959-6.272-29.451-17.188-3.015-5.067-4.548-10.656-4.548-16.531V95.96c0-12.688 6.322-22.775 17.328-29.219 5.111-2.992 10.746-4.512 16.671-4.512h2.34c8.659 0 16.009 3.329 22.204 8.739zM308.325 97.12c0 9.167 4.481 16.051 12.58 20.449 3.272 1.774 6.827 2.728 10.565 2.728 9.068 0 15.796-4.241 20.436-11.866 2.157-3.545 3.164-7.425 3.164-11.55 0-7.943-3.794-14.143-10.249-18.744-3.911-2.796-8.318-4.195-13.123-4.195-9.887 0-17.002 4.952-21.273 13.753-1.441 2.974-2.1 6.131-2.1 9.425zm99.484-34.891h1.636c13.673 0 24.07 6.58 30.659 18.417 2.635 4.734 4.044 9.902 4.044 15.314v2.322c0 12.685-6.307 22.796-17.334 29.213-5.109 2.969-10.751 4.506-16.668 4.506h-2.337c-12.794 0-22.961-6.272-29.455-17.188-3.014-5.067-4.548-10.656-4.548-16.531V95.96c0-12.688 6.348-22.746 17.32-29.217 5.106-3.008 10.752-4.514 16.683-4.514zM385.603 97.12c0 8.895 4.405 15.438 11.984 20.038 3.553 2.162 7.471 3.139 11.63 3.139 8.86 0 15.41-4.455 19.973-11.876 2.174-3.535 3.157-7.421 3.157-11.54 0-8.275-4.016-14.588-10.885-19.169-3.763-2.512-7.952-3.77-12.484-3.77-9.888 0-17.002 4.952-21.27 13.753-1.446 2.974-2.105 6.131-2.105 9.425zm107.599-22.244c-1.776-.826-5.113-1.101-7.038-1.173-9.858-.369-16.992 5.138-21.18 13.762-1.443 2.973-2.099 6.125-2.099 9.416 0 10.025 5.303 17.043 14.329 21.321 3.294 1.559 7.548 1.857 11.149 1.857 3.169 0 7.647-1.923 10.458-3.248l.487-.227h2.179l.242.046c2.687.556 4.71 2.242 4.71 5.103v1.162c0 7.122-13.131 8.757-18.142 9.1-17.68 1.215-30.901-8.415-35.945-25.139-.877-2.906-1.27-5.79-1.27-8.814v-2.319c0-12.689 6.347-22.743 17.324-29.206 5.11-3.007 10.75-4.516 16.679-4.516h2.339c6.288 0 12.084 1.77 17.275 5.289l.43.292.265.439c.561.922 1.045 1.99 1.045 3.087v1.159c0 2.988-2.254 4.591-4.975 5.112l-.224.037h-.696c-1.763 0-5.765-1.805-7.342-2.54zm38.282 7.926c4.581-4.553 9.184-9.094 13.836-13.573 1.294-1.248 6.203-6.535 8.134-6.535h2.117l.238.051c2.693.554 4.712 2.244 4.712 5.111v1.163c0 1.955-2.313 4.23-3.586 5.569-2.713 2.85-5.567 5.605-8.342 8.398l-14.254 14.351a3530.283 3530.283 0 0 1 18.358 18.357c1.683 1.7 3.368 3.405 5.029 5.129.583.609 1.452 1.372 1.942 2.218.527.797.853 1.693.853 2.65v1.205l-.071.28c-.663 2.67-2.372 4.825-5.355 4.825h-.939c-1.952 0-4.157-2.193-5.493-3.442-2.755-2.578-5.419-5.288-8.123-7.918l-9.056-8.821v14.099c0 3.242-2.05 5.852-5.437 5.852h-.932c-3.386 0-5.43-2.61-5.43-5.852V46.483c0-3.249 2.044-5.848 5.43-5.848h.932c3.387 0 5.437 2.599 5.437 5.848v36.319zM678.56 62.694h1.169c3.54 0 5.904 2.368 5.904 5.858 0 4.845-4.67 6.086-8.709 6.086-5.304 0-10.36 3.179-14.017 6.746-4.555 4.458-6.549 10.158-6.549 16.431v28.33c0 3.251-2.046 5.856-5.432 5.856h-.931c-3.393 0-5.438-2.605-5.438-5.856V96.188c0-11.504 5.646-20.891 15.06-27.482 5.625-3.935 12.058-6.012 18.943-6.012zm-83.872 56.147c4.291 1.488 9.189 1.276 13.595.514 2.251-.95 8.018-3.442 10.136-3.08l.334.058.302.147c1.293.624 2.529 1.504 3.19 2.809 1.548 3.063.803 6.14-2.228 7.875l-1.011.583c-11.193 6.407-23.099 5.519-34.258-.466-5.335-2.859-9.414-7.107-12.426-12.284l-.704-1.208c-7.186-12.339-6.216-25.323 1.89-37.06 2.796-4.055 6.451-7.191 10.725-9.641l1.62-.926c10.543-6.035 21.84-5.623 32.668-.326 5.82 2.849 10.534 7.096 13.783 12.677l.587 1.003c2.36 4.062-.699 7.595-3.856 10.013-3.665 2.8-7.363 6.175-10.875 9.18-7.83 6.704-15.644 13.424-23.472 20.132zm-10.136-7.058c8.761-7.448 17.518-14.9 26.251-22.38 2.984-2.55 6.257-5.196 9.221-7.884-2.378-2.965-6.347-5.109-9.719-6.384-6.807-2.572-13.517-1.705-19.76 1.866-8.169 4.676-11.653 12.129-11.348 21.4.124 3.65 1.113 7.167 3.069 10.276a27.283 27.283 0 0 0 2.286 3.106z" fill="#364548"/></g></svg>