<svg width="100" height="90" fill="#fff" viewBox="0 90 128 100" xmlns="http://www.w3.org/2000/svg" xmlns:xlink="http://www.w3.org/1999/xlink">
    <defs >
        <g id="l"><animateTransform attributeName="transform" type="translate" from="0 90" to="20 90" dur="4s" repeatCount="indefinite" fill="freeze"/>
        <use xlink:href="#b" transform="rotate(90)"/></g>

        <!-- straight line -->
        <g id="b" >
          <circle fill="#00386C" cx="2.5" cy="184.5" r="2.5"/>
          <circle fill="#E365A6" cx="2.5" cy="174.5" r="2.5"/>
          <circle fill="#43AE7A" cx="2.5" cy="164.5" r="2.5"/>
          <circle fill="#43AE7A" cx="2.5" cy="154.5" r="2.5"/>
          <circle fill="#00386C" cx="2.5" cy="144.5" r="2.5"/>
          <circle fill="#43AE7A" cx="2.5" cy="134.5" r="2.5"/>
          <circle fill="#B9E5FA" cx="2.5" cy="124.5" r="2.5"/>
          <circle fill="#5EEBA7" cx="2.5" cy="114.5" r="2.5"/>
          <circle fill="#43AE7A" cx="2.5" cy="104.5" r="2.5"/>
          <circle fill="#00386C" cx="2.5" cy="184.5" r="2.5"/>
          <circle fill="#E365A6" cx="2.5" cy="174.5" r="2.5"/>
          <circle fill="#43AE7A" cx="2.5" cy="164.5" r="2.5"/>
          <circle fill="#43AE7A" cx="2.5" cy="154.5" r="2.5"/>
          <circle fill="#00386C" cx="2.5" cy="144.5" r="2.5"/>
          <circle fill="#43AE7A" cx="2.5" cy="134.5" r="2.5"/>
          <circle fill="#B9E5FA" cx="2.5" cy="124.5" r="2.5"/>
          <circle fill="#5EEBA7" cx="2.5" cy="114.5" r="2.5"/>
          <circle fill="#43AE7A" cx="2.5" cy="104.5" r="2.5"/>
          <circle fill="#00386C" cx="2.5" cy="184.5" r="2.5"/>
          <circle fill="#E365A6" cx="2.5" cy="174.5" r="2.5"/>
          <circle fill="#43AE7A" cx="2.5" cy="164.5" r="2.5"/>
          <circle fill="#43AE7A" cx="2.5" cy="154.5" r="2.5"/>
          <circle fill="#00386C" cx="2.5" cy="144.5" r="2.5"/>
          <circle fill="#43AE7A" cx="2.5" cy="134.5" r="2.5"/>
          <circle fill="#B9E5FA" cx="2.5" cy="124.5" r="2.5"/>
          <circle fill="#5EEBA7" cx="2.5" cy="114.5" r="2.5"/>
          <circle fill="#43AE7A" cx="2.5" cy="104.5" r="2.5"/>
          <circle fill="#00386C" cx="2.5" cy="184.5" r="2.5"/>
          <circle fill="#E365A6" cx="2.5" cy="174.5" r="2.5"/>
          <circle fill="#43AE7A" cx="2.5" cy="164.5" r="2.5"/>
          <circle fill="#43AE7A" cx="2.5" cy="154.5" r="2.5"/>
          <circle fill="#00386C" cx="2.5" cy="144.5" r="2.5"/>
          <circle fill="#43AE7A" cx="2.5" cy="134.5" r="2.5"/>
          <circle fill="#B9E5FA" cx="2.5" cy="124.5" r="2.5"/>
          <circle fill="#5EEBA7" cx="2.5" cy="114.5" r="2.5"/>
          <circle fill="#43AE7A" cx="2.5" cy="104.5" r="2.5"/>
         <path fill="none" d="M0 0h20v331H0z" /></g>
    </defs>
    <use x="180" xlink:href="#l"/>
  </svg>
