<?xml version="1.0" encoding="utf-8"?>
<!-- Generator: Adobe Illustrator 19.0.0, SVG Export Plug-In . SVG Version: 6.00 Build 0)  -->
<svg version="1.1" id="Layer_1" xmlns="http://www.w3.org/2000/svg" xmlns:xlink="http://www.w3.org/1999/xlink" x="0px" y="0px"
	 width="510px" height="381px" viewBox="0 0 510 381" style="enable-background:new 0 0 510 381;" xml:space="preserve">
<style type="text/css">
	.st0{clip-path:url(#SVGID_2_);}
	.st1{fill:#E0AD91;}
	.st2{fill:#EBC0A4;}
	.st3{fill:#E6DDD2;}
	.st4{fill:#F6F4F4;}
	.st5{fill:#4F7186;}
	.st6{fill-rule:evenodd;clip-rule:evenodd;fill:#22A78E;}
	.st7{fill-rule:evenodd;clip-rule:evenodd;fill:#49B882;}
	.st8{fill-rule:evenodd;clip-rule:evenodd;fill:#8C9EA4;}
	.st9{fill-rule:evenodd;clip-rule:evenodd;fill:#F7F6F6;}
	.st10{fill-rule:evenodd;clip-rule:evenodd;fill:#E4E9EB;}
	.st11{fill:#22A78E;}
	.st12{fill:#8C9EA4;}
	.st13{fill-rule:evenodd;clip-rule:evenodd;fill:#7B888D;}
	.st14{fill-rule:evenodd;clip-rule:evenodd;fill:#FFFFFF;}
</style>
<g>
	<g>
		<defs>
			<rect id="SVGID_1_" x="138.4" y="77.6" width="199.8" height="240.6"/>
		</defs>
		<clipPath id="SVGID_2_">
			<use xlink:href="#SVGID_1_"  style="overflow:visible;"/>
		</clipPath>
		<g class="st0">
			<g>
				<path class="st1" d="M298.6,188l-0.2-0.2c-4.1-4.1-4.2-10.8-0.1-14.9l11.4-11.2c4.1-4.1,10.8-4,14.9,0.1l0.2,0.2
					c4.1,4.1,4.2,10.8,0.1,14.9l-11.4,11.2C309.4,192.2,302.8,192.1,298.6,188z"/>
				<path class="st1" d="M297.3,210.4l-0.1-0.2c-3.8-4.6-3.3-11.4,1.2-15.1l12.5-10.2c4.5-3.7,11.3-3,15.1,1.6l0.1,0.2
					c3.8,4.6,3.3,11.4-1.2,15.1L312.4,212C307.9,215.7,301.1,215,297.3,210.4z"/>
				<path class="st1" d="M300.4,227.6l-0.1-0.2c-2.5-4.6-0.9-10.3,3.6-12.7l12.4-6.6c4.5-2.4,10.1-0.7,12.6,3.9l0.1,0.2
					c2.5,4.6,0.9,10.3-3.6,12.7l-12.4,6.6C308.5,233.9,302.8,232.1,300.4,227.6z"/>
			</g>
			<path class="st2" d="M334.4,128.6l-0.1-0.2c-3.2-5-10.7-6-16.6-2.1l-60.5,35.6c-3.6,1.6-7.2,3.7-10.5,6.2l-0.1,0
				c-0.3,0.2-0.7,0.5-1,0.7c-3.1,2.3-5.9,4.8-8.2,7.2l-35,29.8c-6.1,17.2-4.5,28.9,1.7,36.1l-35.6,56l56.4,35.9l35.6-55.9
				c3,0.7,5.8,0.9,8.4,0.3c13.5-2.8,23.6-22.3,39.3-34.7c6-4.8,6.4-13.9,6.4-17.4c0,0-0.3-6-1.1-10.7c-1.2-6.8,0.4-23.9-19.9-39.7
				l-5.3-4.3c0,0-0.1-0.1-0.1-0.1l41.3-26.7C335.5,140.8,337.7,133.6,334.4,128.6z"/>
			<g>
				<g>
					<path class="st2" d="M295.2,178.3l-0.1-0.2c-2.2-5.2,0.2-11.2,5.2-13.3l14-5.8c5-2.1,10.9,0.4,13,5.6l0.1,0.2
						c2.2,5.2-0.2,11.2-5.2,13.3l-14,5.8C303.1,186,297.3,183.5,295.2,178.3z"/>
					<path class="st3" d="M310.3,172l-0.1-0.1c-1.4-3.6-3.8-6-8-4.3l-3.7,1.5c-4.2,1.7-4.8,5.4-3.3,8.9l0.1,0.1
						c1.4,3.6,4.3,5.8,8.5,4.1l3.7-1.5C311.7,179,311.7,175.6,310.3,172z"/>
				</g>
				<g>
					<path class="st2" d="M294.9,202.7l-0.1-0.2c-2.2-5.2,0.2-11.2,5.3-13.4l14.2-5.8c5.1-2.1,11,0.4,13.2,5.6l0.1,0.2
						c2.2,5.2-0.2,11.2-5.3,13.4l-14.2,5.8C303.1,210.4,297.1,207.9,294.9,202.7z"/>
					<path class="st3" d="M309.8,196.4l-0.1-0.1c-1.4-3.5-3.7-5.9-7.9-4.2l-3.6,1.5c-4.2,1.7-4.7,5.2-3.3,8.7l0.1,0.1
						c1.4,3.5,4.2,5.7,8.4,3.9l3.6-1.5C311.2,203.2,311.2,199.9,309.8,196.4z"/>
				</g>
				<g>
					<path class="st2" d="M296.2,226.2l-0.1-0.2c-2-4.8,0.5-10.5,5.7-12.6l14.3-5.8c5.2-2.1,11,0,13.1,4.8l0.1,0.2
						c2,4.8-0.5,10.5-5.7,12.6l-14.3,5.8C304.1,233.2,298.2,231,296.2,226.2z"/>
					<path class="st3" d="M309.9,220.6l0-0.1c-1.3-3.1-3.4-5.3-7.2-3.7l-3.3,1.3c-3.8,1.5-4.3,4.7-3,7.8l0,0.1
						c1.3,3.1,3.8,5.1,7.6,3.5l3.3-1.3C311.2,226.8,311.2,223.8,309.9,220.6z"/>
				</g>
			</g>
			<g>
				<g>
					<path class="st4" d="M240.9,318.1l-65.3-42.3c-0.4-0.3-0.5-0.8-0.3-1.2l9.9-15.3c0.3-0.4,0.8-0.5,1.2-0.3l65.3,42.3
						c0.4,0.3,0.5,0.8,0.3,1.2l-9.9,15.3C241.8,318.3,241.3,318.4,240.9,318.1z"/>
					<circle class="st5" cx="187.7" cy="269.9" r="3.1"/>
				</g>
				<path class="st5" d="M210.5,368.2L140,322.6c-0.8-0.5-1-1.5-0.5-2.3l33.7-49.2c0.5-0.8,1.5-1,2.3-0.5l70.5,45.7
					c0.8,0.5,1,1.5,0.5,2.3l-33.7,49.2C212.2,368.5,211.2,368.7,210.5,368.2z"/>
			</g>
		</g>
	</g>
	<g>
		<path class="st6" d="M372.3,271.9h-143c-2.2,0-4-1.8-4-4v-7.6c0-2.2,1.8-4,4-4h143c2.2,0,4,1.8,4,4v7.6
			C376.3,270.1,374.5,271.9,372.3,271.9z"/>
		<path class="st7" d="M372.3,268.5h-143c-2.2,0-4-1.8-4-4V97.8c0-2.2,1.8-4,4-4h143c2.2,0,4,1.8,4,4v166.7
			C376.3,266.7,374.5,268.5,372.3,268.5z"/>
		<g>
			<path class="st8" d="M360.6,262.3H240.9c-1.8,0-3.2-1.4-3.2-3.2v-7.8c0-1.8,1.4-3.2,3.2-3.2h119.6c1.8,0,3.2,1.4,3.2,3.2v7.8
				C363.8,260.9,362.3,262.3,360.6,262.3z"/>
			<path class="st9" d="M360.6,259.7H240.9c-1.8,0-3.2-1.4-3.2-3.2V107.1c0-1.8,1.4-3.2,3.2-3.2h119.6c1.8,0,3.2,1.4,3.2,3.2v149.3
				C363.8,258.3,362.3,259.7,360.6,259.7z"/>
			<g>
				<g>
					<g>
						<circle class="st10" cx="260.1" cy="137.4" r="9.6"/>
						<path class="st11" d="M263.6,134.5l-4.2,4.2l-2.5-2.5c-0.2-0.2-0.5-0.2-0.7,0l-0.9,0.9c-0.2,0.2-0.2,0.5,0,0.7l2.8,2.8
							l0.9,0.9c0.2,0.2,0.5,0.2,0.7,0l0.9-0.9l4.6-4.6c0.2-0.2,0.2-0.5,0-0.7l-0.9-0.9C264.1,134.3,263.8,134.3,263.6,134.5z"/>
					</g>
					<rect x="281.3" y="133.7" class="st12" width="69.7" height="7.4"/>
				</g>
				<g>
					<g>
						<circle class="st10" cx="260.1" cy="169.8" r="9.6"/>
						<path class="st11" d="M263.6,166.9l-4.2,4.2l-2.5-2.5c-0.2-0.2-0.5-0.2-0.7,0l-0.9,0.9c-0.2,0.2-0.2,0.5,0,0.7l2.8,2.8
							l0.9,0.9c0.2,0.2,0.5,0.2,0.7,0l0.9-0.9l4.6-4.6c0.2-0.2,0.2-0.5,0-0.7l-0.9-0.9C264.1,166.7,263.8,166.7,263.6,166.9z"/>
					</g>
					<rect x="281.3" y="166.1" class="st12" width="69.7" height="7.4"/>
				</g>
				<g>
					<g>
						<circle class="st10" cx="260.1" cy="202.2" r="9.6"/>
						<path class="st11" d="M263.6,199.2l-4.2,4.2l-2.5-2.5c-0.2-0.2-0.5-0.2-0.7,0l-0.9,0.9c-0.2,0.2-0.2,0.5,0,0.7l2.8,2.8
							l0.9,0.9c0.2,0.2,0.5,0.2,0.7,0l0.9-0.9l4.6-4.6c0.2-0.2,0.2-0.5,0-0.7l-0.9-0.9C264.1,199,263.8,199,263.6,199.2z"/>
					</g>
					<rect x="281.3" y="198.4" class="st12" width="69.7" height="7.4"/>
				</g>
				<g>
					<g>
						<circle class="st10" cx="260.1" cy="234.5" r="9.6"/>
						<path class="st11" d="M263.6,231.6l-4.2,4.2l-2.5-2.5c-0.2-0.2-0.5-0.2-0.7,0l-0.9,0.9c-0.2,0.2-0.2,0.5,0,0.7l2.8,2.8
							l0.9,0.9c0.2,0.2,0.5,0.2,0.7,0l0.9-0.9l4.6-4.6c0.2-0.2,0.2-0.5,0-0.7l-0.9-0.9C264.1,231.4,263.8,231.4,263.6,231.6z"/>
					</g>
					<rect x="281.3" y="230.8" class="st12" width="69.7" height="7.4"/>
				</g>
			</g>
		</g>
		<g>
			<path class="st8" d="M341.5,104.3H260V92.3c0-1,0.8-1.9,1.9-1.9h77.8c1,0,1.9,0.8,1.9,1.9V104.3z"/>
			<rect x="260" y="104.3" class="st13" width="81.5" height="5.3"/>
			<g>
				<circle class="st8" cx="300.8" cy="89.8" r="11.8"/>
				<circle class="st14" cx="300.8" cy="89.8" r="6.5"/>
			</g>
		</g>
	</g>
	<g>
		<path class="st1" d="M211.7,231.5l-0.7,0c-6.1-0.6-9.9-6.4-9.1-12.1l8.4-61.8c1.7-9.1,6.7-9.4,12.8-8.8l0.2,0
			c6.9,1.4,8,9.6,8,17.4c0,0.8-0.1,1.5-0.1,2.3l-6.5,52C223.9,226.2,217.8,232.1,211.7,231.5z"/>
		<path class="st2" d="M208.9,232.2l-0.2,0c-6.1-0.8-10.3-6.2-9.3-12c0,0,11.2-53.8,10.4-63.3c-0.7-8.8,7.1-9.5,13.2-8.8l0.2,0
			c7.2,1.7,8.9,13,7.8,19.5l-9.3,55.4C220.7,228.8,215,232.9,208.9,232.2z"/>
		<path class="st3" d="M215.8,148.2c-0.9-0.1-1.7,0.1-2.5,0.5c-1.4,0.6-3.1,2-3.4,4.7c-0.5,4.4-1.1,11.3-0.6,12.1
			c0.5,0.8,2.8,1.5,5.5,0.5c2.7-1,3.3-1.5,4-3.6c0.7-2.2,0.4-10.4,0.2-11.2C218.8,150.3,218.4,148.4,215.8,148.2z"/>
	</g>
</g>
</svg>
